<svg width="388" height="351" viewBox="0 0 388 351" fill="none" xmlns="http://www.w3.org/2000/svg">
<g filter="url(#filter0_d)">
<rect x="4.5" width="379" height="343" rx="6" fill="white"/>
<rect x="5" y="0.5" width="378" height="342" rx="5.5" stroke="black" stroke-opacity="0.34"/>
</g>
<rect x="15.5" y="145" width="359" height="40" rx="7" fill="#E3E3E3"/>
<path d="M34.536 25.436L31.026 38H28.056L25.698 29.054L23.232 38L20.28 38.018L16.896 25.436H19.596L21.81 35.192L24.366 25.436H27.174L29.586 35.138L31.818 25.436H34.536ZM41.7975 27.884C42.5535 27.884 43.2255 28.052 43.8135 28.388C44.4015 28.712 44.8575 29.198 45.1815 29.846C45.5175 30.482 45.6855 31.25 45.6855 32.15V38H43.1655V32.492C43.1655 31.7 42.9675 31.094 42.5715 30.674C42.1755 30.242 41.6355 30.026 40.9515 30.026C40.2555 30.026 39.7035 30.242 39.2955 30.674C38.8995 31.094 38.7015 31.7 38.7015 32.492V38H36.1815V24.68H38.7015V29.27C39.0255 28.838 39.4575 28.502 39.9975 28.262C40.5375 28.01 41.1375 27.884 41.7975 27.884ZM47.4338 32.978C47.4338 31.97 47.6318 31.076 48.0278 30.296C48.4358 29.516 48.9818 28.916 49.6658 28.496C50.3618 28.076 51.1358 27.866 51.9878 27.866C52.7318 27.866 53.3798 28.016 53.9318 28.316C54.4958 28.616 54.9458 28.994 55.2818 29.45V28.028H57.8198V38H55.2818V36.542C54.9578 37.01 54.5078 37.4 53.9318 37.712C53.3678 38.012 52.7138 38.162 51.9698 38.162C51.1298 38.162 50.3618 37.946 49.6658 37.514C48.9818 37.082 48.4358 36.476 48.0278 35.696C47.6318 34.904 47.4338 33.998 47.4338 32.978ZM55.2818 33.014C55.2818 32.402 55.1618 31.88 54.9218 31.448C54.6818 31.004 54.3578 30.668 53.9498 30.44C53.5418 30.2 53.1038 30.08 52.6358 30.08C52.1678 30.08 51.7358 30.194 51.3398 30.422C50.9438 30.65 50.6198 30.986 50.3678 31.43C50.1278 31.862 50.0078 32.378 50.0078 32.978C50.0078 33.578 50.1278 34.106 50.3678 34.562C50.6198 35.006 50.9438 35.348 51.3398 35.588C51.7478 35.828 52.1798 35.948 52.6358 35.948C53.1038 35.948 53.5418 35.834 53.9498 35.606C54.3578 35.366 54.6818 35.03 54.9218 34.598C55.1618 34.154 55.2818 33.626 55.2818 33.014ZM63.2151 30.098V34.922C63.2151 35.258 63.2931 35.504 63.4491 35.66C63.6171 35.804 63.8931 35.876 64.2771 35.876H65.4471V38H63.8631C61.7391 38 60.6771 36.968 60.6771 34.904V30.098H59.4891V28.028H60.6771V25.562H63.2151V28.028H65.4471V30.098H63.2151ZM67.7636 25.436H70.4096L68.4656 29.972H66.7376L67.7636 25.436ZM76.0326 38.162C75.2166 38.162 74.4846 38.018 73.8366 37.73C73.1886 37.43 72.6726 37.028 72.2886 36.524C71.9166 36.02 71.7126 35.462 71.6766 34.85H74.2146C74.2626 35.234 74.4486 35.552 74.7726 35.804C75.1086 36.056 75.5226 36.182 76.0146 36.182C76.4946 36.182 76.8666 36.086 77.1306 35.894C77.4066 35.702 77.5446 35.456 77.5446 35.156C77.5446 34.832 77.3766 34.592 77.0406 34.436C76.7166 34.268 76.1946 34.088 75.4746 33.896C74.7306 33.716 74.1186 33.53 73.6386 33.338C73.1706 33.146 72.7626 32.852 72.4146 32.456C72.0786 32.06 71.9106 31.526 71.9106 30.854C71.9106 30.302 72.0666 29.798 72.3786 29.342C72.7026 28.886 73.1586 28.526 73.7466 28.262C74.3466 27.998 75.0486 27.866 75.8526 27.866C77.0406 27.866 77.9886 28.166 78.6966 28.766C79.4046 29.354 79.7946 30.152 79.8666 31.16H77.4546C77.4186 30.764 77.2506 30.452 76.9506 30.224C76.6626 29.984 76.2726 29.864 75.7806 29.864C75.3246 29.864 74.9706 29.948 74.7186 30.116C74.4786 30.284 74.3586 30.518 74.3586 30.818C74.3586 31.154 74.5266 31.412 74.8626 31.592C75.1986 31.76 75.7206 31.934 76.4286 32.114C77.1486 32.294 77.7426 32.48 78.2106 32.672C78.6786 32.864 79.0806 33.164 79.4166 33.572C79.7646 33.968 79.9446 34.496 79.9566 35.156C79.9566 35.732 79.7946 36.248 79.4706 36.704C79.1586 37.16 78.7026 37.52 78.1026 37.784C77.5146 38.036 76.8246 38.162 76.0326 38.162ZM98.6983 27.884C99.9223 27.884 100.906 28.262 101.65 29.018C102.406 29.762 102.784 30.806 102.784 32.15V38H100.264V32.492C100.264 31.712 100.066 31.118 99.6703 30.71C99.2743 30.29 98.7343 30.08 98.0503 30.08C97.3663 30.08 96.8203 30.29 96.4123 30.71C96.0163 31.118 95.8183 31.712 95.8183 32.492V38H93.2983V32.492C93.2983 31.712 93.1003 31.118 92.7043 30.71C92.3083 30.29 91.7683 30.08 91.0843 30.08C90.3883 30.08 89.8363 30.29 89.4283 30.71C89.0323 31.118 88.8343 31.712 88.8343 32.492V38H86.3143V28.028H88.8343V29.234C89.1583 28.814 89.5723 28.484 90.0763 28.244C90.5923 28.004 91.1563 27.884 91.7683 27.884C92.5483 27.884 93.2443 28.052 93.8563 28.388C94.4683 28.712 94.9423 29.18 95.2783 29.792C95.6023 29.216 96.0703 28.754 96.6823 28.406C97.3063 28.058 97.9783 27.884 98.6983 27.884ZM104.528 32.978C104.528 31.97 104.726 31.076 105.122 30.296C105.53 29.516 106.076 28.916 106.76 28.496C107.456 28.076 108.23 27.866 109.082 27.866C109.826 27.866 110.474 28.016 111.026 28.316C111.59 28.616 112.04 28.994 112.376 29.45V28.028H114.914V38H112.376V36.542C112.052 37.01 111.602 37.4 111.026 37.712C110.462 38.012 109.808 38.162 109.064 38.162C108.224 38.162 107.456 37.946 106.76 37.514C106.076 37.082 105.53 36.476 105.122 35.696C104.726 34.904 104.528 33.998 104.528 32.978ZM112.376 33.014C112.376 32.402 112.256 31.88 112.016 31.448C111.776 31.004 111.452 30.668 111.044 30.44C110.636 30.2 110.198 30.08 109.73 30.08C109.262 30.08 108.83 30.194 108.434 30.422C108.038 30.65 107.714 30.986 107.462 31.43C107.222 31.862 107.102 32.378 107.102 32.978C107.102 33.578 107.222 34.106 107.462 34.562C107.714 35.006 108.038 35.348 108.434 35.588C108.842 35.828 109.274 35.948 109.73 35.948C110.198 35.948 110.636 35.834 111.044 35.606C111.452 35.366 111.776 35.03 112.016 34.598C112.256 34.154 112.376 33.626 112.376 33.014ZM123.279 38L119.895 33.752V38H117.375V24.68H119.895V32.258L123.243 28.028H126.519L122.127 33.032L126.555 38H123.279ZM129.165 26.84C128.721 26.84 128.349 26.702 128.049 26.426C127.761 26.138 127.617 25.784 127.617 25.364C127.617 24.944 127.761 24.596 128.049 24.32C128.349 24.032 128.721 23.888 129.165 23.888C129.609 23.888 129.975 24.032 130.263 24.32C130.563 24.596 130.713 24.944 130.713 25.364C130.713 25.784 130.563 26.138 130.263 26.426C129.975 26.702 129.609 26.84 129.165 26.84ZM130.407 28.028V38H127.887V28.028H130.407ZM138.422 27.884C139.61 27.884 140.57 28.262 141.302 29.018C142.034 29.762 142.4 30.806 142.4 32.15V38H139.88V32.492C139.88 31.7 139.682 31.094 139.286 30.674C138.89 30.242 138.35 30.026 137.666 30.026C136.97 30.026 136.418 30.242 136.01 30.674C135.614 31.094 135.416 31.7 135.416 32.492V38H132.896V28.028H135.416V29.27C135.752 28.838 136.178 28.502 136.694 28.262C137.222 28.01 137.798 27.884 138.422 27.884ZM148.703 27.866C149.447 27.866 150.101 28.016 150.665 28.316C151.229 28.604 151.673 28.982 151.997 29.45V28.028H154.535V38.072C154.535 38.996 154.349 39.818 153.977 40.538C153.605 41.27 153.047 41.846 152.303 42.266C151.559 42.698 150.659 42.914 149.603 42.914C148.187 42.914 147.023 42.584 146.111 41.924C145.211 41.264 144.701 40.364 144.581 39.224H147.083C147.215 39.68 147.497 40.04 147.929 40.304C148.373 40.58 148.907 40.718 149.531 40.718C150.263 40.718 150.857 40.496 151.313 40.052C151.769 39.62 151.997 38.96 151.997 38.072V36.524C151.673 36.992 151.223 37.382 150.647 37.694C150.083 38.006 149.435 38.162 148.703 38.162C147.863 38.162 147.095 37.946 146.399 37.514C145.703 37.082 145.151 36.476 144.743 35.696C144.347 34.904 144.149 33.998 144.149 32.978C144.149 31.97 144.347 31.076 144.743 30.296C145.151 29.516 145.697 28.916 146.381 28.496C147.077 28.076 147.851 27.866 148.703 27.866ZM151.997 33.014C151.997 32.402 151.877 31.88 151.637 31.448C151.397 31.004 151.073 30.668 150.665 30.44C150.257 30.2 149.819 30.08 149.351 30.08C148.883 30.08 148.451 30.194 148.055 30.422C147.659 30.65 147.335 30.986 147.083 31.43C146.843 31.862 146.723 32.378 146.723 32.978C146.723 33.578 146.843 34.106 147.083 34.562C147.335 35.006 147.659 35.348 148.055 35.588C148.463 35.828 148.895 35.948 149.351 35.948C149.819 35.948 150.257 35.834 150.665 35.606C151.073 35.366 151.397 35.03 151.637 34.598C151.877 34.154 151.997 33.626 151.997 33.014ZM170.825 28.028L164.651 42.716H161.969L164.129 37.748L160.133 28.028H162.959L165.533 34.994L168.143 28.028H170.825ZM176.611 38.162C175.651 38.162 174.787 37.952 174.019 37.532C173.251 37.1 172.645 36.494 172.201 35.714C171.769 34.934 171.553 34.034 171.553 33.014C171.553 31.994 171.775 31.094 172.219 30.314C172.675 29.534 173.293 28.934 174.073 28.514C174.853 28.082 175.723 27.866 176.683 27.866C177.643 27.866 178.513 28.082 179.293 28.514C180.073 28.934 180.685 29.534 181.129 30.314C181.585 31.094 181.813 31.994 181.813 33.014C181.813 34.034 181.579 34.934 181.111 35.714C180.655 36.494 180.031 37.1 179.239 37.532C178.459 37.952 177.583 38.162 176.611 38.162ZM176.611 35.966C177.067 35.966 177.493 35.858 177.889 35.642C178.297 35.414 178.621 35.078 178.861 34.634C179.101 34.19 179.221 33.65 179.221 33.014C179.221 32.066 178.969 31.34 178.465 30.836C177.973 30.32 177.367 30.062 176.647 30.062C175.927 30.062 175.321 30.32 174.829 30.836C174.349 31.34 174.109 32.066 174.109 33.014C174.109 33.962 174.343 34.694 174.811 35.21C175.291 35.714 175.891 35.966 176.611 35.966ZM193.076 28.028V38H190.538V36.74C190.214 37.172 189.788 37.514 189.26 37.766C188.744 38.006 188.18 38.126 187.568 38.126C186.788 38.126 186.098 37.964 185.498 37.64C184.898 37.304 184.424 36.818 184.076 36.182C183.74 35.534 183.572 34.766 183.572 33.878V28.028H186.092V33.518C186.092 34.31 186.29 34.922 186.686 35.354C187.082 35.774 187.622 35.984 188.306 35.984C189.002 35.984 189.548 35.774 189.944 35.354C190.34 34.922 190.538 34.31 190.538 33.518V28.028H193.076ZM204.423 30.098H202.677V38H200.121V30.098H198.987V28.028H200.121V27.524C200.121 26.3 200.469 25.4 201.165 24.824C201.861 24.248 202.911 23.978 204.315 24.014V26.138C203.703 26.126 203.277 26.228 203.037 26.444C202.797 26.66 202.677 27.05 202.677 27.614V28.028H204.423V30.098ZM215.326 32.798C215.326 33.158 215.302 33.482 215.254 33.77H207.964C208.024 34.49 208.276 35.054 208.72 35.462C209.164 35.87 209.71 36.074 210.358 36.074C211.294 36.074 211.96 35.672 212.356 34.868H215.074C214.786 35.828 214.234 36.62 213.418 37.244C212.602 37.856 211.6 38.162 210.412 38.162C209.452 38.162 208.588 37.952 207.82 37.532C207.064 37.1 206.47 36.494 206.038 35.714C205.618 34.934 205.408 34.034 205.408 33.014C205.408 31.982 205.618 31.076 206.038 30.296C206.458 29.516 207.046 28.916 207.802 28.496C208.558 28.076 209.428 27.866 210.412 27.866C211.36 27.866 212.206 28.07 212.95 28.478C213.706 28.886 214.288 29.468 214.696 30.224C215.116 30.968 215.326 31.826 215.326 32.798ZM212.716 32.078C212.704 31.43 212.47 30.914 212.014 30.53C211.558 30.134 211 29.936 210.34 29.936C209.716 29.936 209.188 30.128 208.756 30.512C208.336 30.884 208.078 31.406 207.982 32.078H212.716ZM226.436 32.798C226.436 33.158 226.412 33.482 226.364 33.77H219.074C219.134 34.49 219.386 35.054 219.83 35.462C220.274 35.87 220.82 36.074 221.468 36.074C222.404 36.074 223.07 35.672 223.466 34.868H226.184C225.896 35.828 225.344 36.62 224.528 37.244C223.712 37.856 222.71 38.162 221.522 38.162C220.562 38.162 219.698 37.952 218.93 37.532C218.174 37.1 217.58 36.494 217.148 35.714C216.728 34.934 216.518 34.034 216.518 33.014C216.518 31.982 216.728 31.076 217.148 30.296C217.568 29.516 218.156 28.916 218.912 28.496C219.668 28.076 220.538 27.866 221.522 27.866C222.47 27.866 223.316 28.07 224.06 28.478C224.816 28.886 225.398 29.468 225.806 30.224C226.226 30.968 226.436 31.826 226.436 32.798ZM223.826 32.078C223.814 31.43 223.58 30.914 223.124 30.53C222.668 30.134 222.11 29.936 221.45 29.936C220.826 29.936 220.298 30.128 219.866 30.512C219.446 30.884 219.188 31.406 219.092 32.078H223.826ZM230.795 24.68V38H228.275V24.68H230.795ZM236.926 32.978C236.926 31.97 237.124 31.076 237.52 30.296C237.928 29.516 238.474 28.916 239.158 28.496C239.854 28.076 240.628 27.866 241.48 27.866C242.224 27.866 242.872 28.016 243.424 28.316C243.988 28.616 244.438 28.994 244.774 29.45V28.028H247.312V38H244.774V36.542C244.45 37.01 244 37.4 243.424 37.712C242.86 38.012 242.206 38.162 241.462 38.162C240.622 38.162 239.854 37.946 239.158 37.514C238.474 37.082 237.928 36.476 237.52 35.696C237.124 34.904 236.926 33.998 236.926 32.978ZM244.774 33.014C244.774 32.402 244.654 31.88 244.414 31.448C244.174 31.004 243.85 30.668 243.442 30.44C243.034 30.2 242.596 30.08 242.128 30.08C241.66 30.08 241.228 30.194 240.832 30.422C240.436 30.65 240.112 30.986 239.86 31.43C239.62 31.862 239.5 32.378 239.5 32.978C239.5 33.578 239.62 34.106 239.86 34.562C240.112 35.006 240.436 35.348 240.832 35.588C241.24 35.828 241.672 35.948 242.128 35.948C242.596 35.948 243.034 35.834 243.442 35.606C243.85 35.366 244.174 35.03 244.414 34.598C244.654 34.154 244.774 33.626 244.774 33.014ZM255.299 27.884C256.487 27.884 257.447 28.262 258.179 29.018C258.911 29.762 259.277 30.806 259.277 32.15V38H256.757V32.492C256.757 31.7 256.559 31.094 256.163 30.674C255.767 30.242 255.227 30.026 254.543 30.026C253.847 30.026 253.295 30.242 252.887 30.674C252.491 31.094 252.293 31.7 252.293 32.492V38H249.773V28.028H252.293V29.27C252.629 28.838 253.055 28.502 253.571 28.262C254.099 28.01 254.675 27.884 255.299 27.884ZM267.182 38L265.13 34.904L263.312 38H260.612L263.87 32.996L260.576 28.028H263.42L265.454 31.106L267.29 28.028H269.99L266.714 32.996L270.026 38H267.182ZM272.672 26.84C272.228 26.84 271.856 26.702 271.556 26.426C271.268 26.138 271.124 25.784 271.124 25.364C271.124 24.944 271.268 24.596 271.556 24.32C271.856 24.032 272.228 23.888 272.672 23.888C273.116 23.888 273.482 24.032 273.77 24.32C274.07 24.596 274.22 24.944 274.22 25.364C274.22 25.784 274.07 26.138 273.77 26.426C273.482 26.702 273.116 26.84 272.672 26.84ZM273.914 28.028V38H271.394V28.028H273.914ZM280.832 38.162C279.872 38.162 279.008 37.952 278.24 37.532C277.472 37.1 276.866 36.494 276.422 35.714C275.99 34.934 275.774 34.034 275.774 33.014C275.774 31.994 275.996 31.094 276.44 30.314C276.896 29.534 277.514 28.934 278.294 28.514C279.074 28.082 279.944 27.866 280.904 27.866C281.864 27.866 282.734 28.082 283.514 28.514C284.294 28.934 284.906 29.534 285.35 30.314C285.806 31.094 286.034 31.994 286.034 33.014C286.034 34.034 285.8 34.934 285.332 35.714C284.876 36.494 284.252 37.1 283.46 37.532C282.68 37.952 281.804 38.162 280.832 38.162ZM280.832 35.966C281.288 35.966 281.714 35.858 282.11 35.642C282.518 35.414 282.842 35.078 283.082 34.634C283.322 34.19 283.442 33.65 283.442 33.014C283.442 32.066 283.19 31.34 282.686 30.836C282.194 30.32 281.588 30.062 280.868 30.062C280.148 30.062 279.542 30.32 279.05 30.836C278.57 31.34 278.33 32.066 278.33 33.014C278.33 33.962 278.564 34.694 279.032 35.21C279.512 35.714 280.112 35.966 280.832 35.966ZM297.297 28.028V38H294.759V36.74C294.435 37.172 294.009 37.514 293.481 37.766C292.965 38.006 292.401 38.126 291.789 38.126C291.009 38.126 290.319 37.964 289.719 37.64C289.119 37.304 288.645 36.818 288.297 36.182C287.961 35.534 287.793 34.766 287.793 33.878V28.028H290.313V33.518C290.313 34.31 290.511 34.922 290.907 35.354C291.303 35.774 291.843 35.984 292.527 35.984C293.223 35.984 293.769 35.774 294.165 35.354C294.561 34.922 294.759 34.31 294.759 33.518V28.028H297.297ZM303.599 38.162C302.783 38.162 302.051 38.018 301.403 37.73C300.755 37.43 300.239 37.028 299.855 36.524C299.483 36.02 299.279 35.462 299.243 34.85H301.781C301.829 35.234 302.015 35.552 302.339 35.804C302.675 36.056 303.089 36.182 303.581 36.182C304.061 36.182 304.433 36.086 304.697 35.894C304.973 35.702 305.111 35.456 305.111 35.156C305.111 34.832 304.943 34.592 304.607 34.436C304.283 34.268 303.761 34.088 303.041 33.896C302.297 33.716 301.685 33.53 301.205 33.338C300.737 33.146 300.329 32.852 299.981 32.456C299.645 32.06 299.477 31.526 299.477 30.854C299.477 30.302 299.633 29.798 299.945 29.342C300.269 28.886 300.725 28.526 301.313 28.262C301.913 27.998 302.615 27.866 303.419 27.866C304.607 27.866 305.555 28.166 306.263 28.766C306.971 29.354 307.361 30.152 307.433 31.16H305.021C304.985 30.764 304.817 30.452 304.517 30.224C304.229 29.984 303.839 29.864 303.347 29.864C302.891 29.864 302.537 29.948 302.285 30.116C302.045 30.284 301.925 30.518 301.925 30.818C301.925 31.154 302.093 31.412 302.429 31.592C302.765 31.76 303.287 31.934 303.995 32.114C304.715 32.294 305.309 32.48 305.777 32.672C306.245 32.864 306.647 33.164 306.983 33.572C307.331 33.968 307.511 34.496 307.523 35.156C307.523 35.732 307.361 36.248 307.037 36.704C306.725 37.16 306.269 37.52 305.669 37.784C305.081 38.036 304.391 38.162 303.599 38.162ZM313.102 25.004C314.35 25.004 315.352 25.346 316.108 26.03C316.876 26.702 317.26 27.632 317.26 28.82C317.26 29.996 316.882 30.896 316.126 31.52C315.37 32.132 314.368 32.438 313.12 32.438L313.048 33.824H310.834L310.744 30.764H311.554C312.598 30.764 313.402 30.626 313.966 30.35C314.53 30.074 314.812 29.57 314.812 28.838C314.812 28.31 314.656 27.89 314.344 27.578C314.044 27.266 313.63 27.11 313.102 27.11C312.55 27.11 312.118 27.26 311.806 27.56C311.506 27.86 311.356 28.274 311.356 28.802H308.98C308.968 28.07 309.124 27.416 309.448 26.84C309.772 26.264 310.246 25.814 310.87 25.49C311.506 25.166 312.25 25.004 313.102 25.004ZM311.932 38.126C311.476 38.126 311.098 37.988 310.798 37.712C310.51 37.424 310.366 37.07 310.366 36.65C310.366 36.23 310.51 35.882 310.798 35.606C311.098 35.318 311.476 35.174 311.932 35.174C312.376 35.174 312.742 35.318 313.03 35.606C313.318 35.882 313.462 36.23 313.462 36.65C313.462 37.07 313.318 37.424 313.03 37.712C312.742 37.988 312.376 38.126 311.932 38.126Z" fill="black"/>
<path d="M186.858 211.422H183.876V214.446H182.686V211.422H179.718V210.344H182.686V207.306H183.876V210.344H186.858V211.422ZM198.635 213.83H194.379L193.595 216H192.251L195.779 206.298H197.249L200.763 216H199.419L198.635 213.83ZM198.271 212.794L196.507 207.866L194.743 212.794H198.271ZM201.825 212.136C201.825 211.352 201.983 210.666 202.301 210.078C202.618 209.481 203.052 209.019 203.603 208.692C204.163 208.365 204.788 208.202 205.479 208.202C206.076 208.202 206.631 208.342 207.145 208.622C207.658 208.893 208.05 209.252 208.321 209.7V205.64H209.609V216H208.321V214.558C208.069 215.015 207.695 215.393 207.201 215.692C206.706 215.981 206.127 216.126 205.465 216.126C204.783 216.126 204.163 215.958 203.603 215.622C203.052 215.286 202.618 214.815 202.301 214.208C201.983 213.601 201.825 212.911 201.825 212.136ZM208.321 212.15C208.321 211.571 208.204 211.067 207.971 210.638C207.737 210.209 207.42 209.882 207.019 209.658C206.627 209.425 206.193 209.308 205.717 209.308C205.241 209.308 204.807 209.42 204.415 209.644C204.023 209.868 203.71 210.195 203.477 210.624C203.243 211.053 203.127 211.557 203.127 212.136C203.127 212.724 203.243 213.237 203.477 213.676C203.71 214.105 204.023 214.437 204.415 214.67C204.807 214.894 205.241 215.006 205.717 215.006C206.193 215.006 206.627 214.894 207.019 214.67C207.42 214.437 207.737 214.105 207.971 213.676C208.204 213.237 208.321 212.729 208.321 212.15ZM211.286 212.136C211.286 211.352 211.444 210.666 211.762 210.078C212.079 209.481 212.513 209.019 213.064 208.692C213.624 208.365 214.249 208.202 214.94 208.202C215.537 208.202 216.092 208.342 216.606 208.622C217.119 208.893 217.511 209.252 217.782 209.7V205.64H219.07V216H217.782V214.558C217.53 215.015 217.156 215.393 216.662 215.692C216.167 215.981 215.588 216.126 214.926 216.126C214.244 216.126 213.624 215.958 213.064 215.622C212.513 215.286 212.079 214.815 211.762 214.208C211.444 213.601 211.286 212.911 211.286 212.136ZM217.782 212.15C217.782 211.571 217.665 211.067 217.432 210.638C217.198 210.209 216.881 209.882 216.48 209.658C216.088 209.425 215.654 209.308 215.178 209.308C214.702 209.308 214.268 209.42 213.876 209.644C213.484 209.868 213.171 210.195 212.938 210.624C212.704 211.053 212.588 211.557 212.588 212.136C212.588 212.724 212.704 213.237 212.938 213.676C213.171 214.105 213.484 214.437 213.876 214.67C214.268 214.894 214.702 215.006 215.178 215.006C215.654 215.006 216.088 214.894 216.48 214.67C216.881 214.437 217.198 214.105 217.432 213.676C217.665 213.237 217.782 212.729 217.782 212.15Z" fill="black" fill-opacity="0.8"/>
<path d="M178.5 217.4H220.148V218.1H178.5V217.4Z" fill="black" fill-opacity="0.8"/>
<line x1="5.5" y1="52.75" x2="384.5" y2="52.75" stroke="#A5A5A5" stroke-width="0.5"/>
<path d="M25.516 78.636V87H24.424V78.636H25.516ZM26.9691 83.688C26.9691 83.016 27.1051 82.428 27.3771 81.924C27.6491 81.412 28.0211 81.016 28.4931 80.736C28.9731 80.456 29.5091 80.316 30.1011 80.316C30.6131 80.316 31.0891 80.436 31.5291 80.676C31.9691 80.908 32.3051 81.216 32.5371 81.6V78.12H33.6411V87H32.5371V85.764C32.3211 86.156 32.0011 86.48 31.5771 86.736C31.1531 86.984 30.6571 87.108 30.0891 87.108C29.5051 87.108 28.9731 86.964 28.4931 86.676C28.0211 86.388 27.6491 85.984 27.3771 85.464C27.1051 84.944 26.9691 84.352 26.9691 83.688ZM32.5371 83.7C32.5371 83.204 32.4371 82.772 32.2371 82.404C32.0371 82.036 31.7651 81.756 31.4211 81.564C31.0851 81.364 30.7131 81.264 30.3051 81.264C29.8971 81.264 29.5251 81.36 29.1891 81.552C28.8531 81.744 28.5851 82.024 28.3851 82.392C28.1851 82.76 28.0851 83.192 28.0851 83.688C28.0851 84.192 28.1851 84.632 28.3851 85.008C28.5851 85.376 28.8531 85.66 29.1891 85.86C29.5251 86.052 29.8971 86.148 30.3051 86.148C30.7131 86.148 31.0851 86.052 31.4211 85.86C31.7651 85.66 32.0371 85.376 32.2371 85.008C32.4371 84.632 32.5371 84.196 32.5371 83.7ZM41.4865 83.46C41.4865 83.668 41.4745 83.888 41.4505 84.12H36.1945C36.2345 84.768 36.4545 85.276 36.8545 85.644C37.2625 86.004 37.7545 86.184 38.3305 86.184C38.8025 86.184 39.1945 86.076 39.5065 85.86C39.8265 85.636 40.0505 85.34 40.1785 84.972H41.3545C41.1785 85.604 40.8265 86.12 40.2985 86.52C39.7705 86.912 39.1145 87.108 38.3305 87.108C37.7065 87.108 37.1465 86.968 36.6505 86.688C36.1625 86.408 35.7785 86.012 35.4985 85.5C35.2185 84.98 35.0785 84.38 35.0785 83.7C35.0785 83.02 35.2145 82.424 35.4865 81.912C35.7585 81.4 36.1385 81.008 36.6265 80.736C37.1225 80.456 37.6905 80.316 38.3305 80.316C38.9545 80.316 39.5065 80.452 39.9865 80.724C40.4665 80.996 40.8345 81.372 41.0905 81.852C41.3545 82.324 41.4865 82.86 41.4865 83.46ZM40.3585 83.232C40.3585 82.816 40.2665 82.46 40.0825 82.164C39.8985 81.86 39.6465 81.632 39.3265 81.48C39.0145 81.32 38.6665 81.24 38.2825 81.24C37.7305 81.24 37.2585 81.416 36.8665 81.768C36.4825 82.12 36.2625 82.608 36.2065 83.232H40.3585ZM46.1319 80.304C46.9319 80.304 47.5799 80.548 48.0759 81.036C48.5719 81.516 48.8199 82.212 48.8199 83.124V87H47.7399V83.28C47.7399 82.624 47.5759 82.124 47.2479 81.78C46.9199 81.428 46.4719 81.252 45.9039 81.252C45.3279 81.252 44.8679 81.432 44.5239 81.792C44.1879 82.152 44.0199 82.676 44.0199 83.364V87H42.9279V80.424H44.0199V81.36C44.2359 81.024 44.5279 80.764 44.8959 80.58C45.2719 80.396 45.6839 80.304 46.1319 80.304ZM51.9357 81.324V85.2C51.9357 85.52 52.0037 85.748 52.1397 85.884C52.2757 86.012 52.5117 86.076 52.8477 86.076H53.6517V87H52.6677C52.0597 87 51.6037 86.86 51.2997 86.58C50.9957 86.3 50.8437 85.84 50.8437 85.2V81.324H49.9917V80.424H50.8437V78.768H51.9357V80.424H53.6517V81.324H51.9357ZM55.5388 79.356C55.3308 79.356 55.1548 79.284 55.0108 79.14C54.8668 78.996 54.7948 78.82 54.7948 78.612C54.7948 78.404 54.8668 78.228 55.0108 78.084C55.1548 77.94 55.3308 77.868 55.5388 77.868C55.7388 77.868 55.9068 77.94 56.0428 78.084C56.1868 78.228 56.2588 78.404 56.2588 78.612C56.2588 78.82 56.1868 78.996 56.0428 79.14C55.9068 79.284 55.7388 79.356 55.5388 79.356ZM56.0668 80.424V87H54.9748V80.424H56.0668ZM60.6039 81.324H59.2239V87H58.1319V81.324H57.2799V80.424H58.1319V79.956C58.1319 79.22 58.3199 78.684 58.6959 78.348C59.0799 78.004 59.6919 77.832 60.5319 77.832V78.744C60.0519 78.744 59.7119 78.84 59.5119 79.032C59.3199 79.216 59.2239 79.524 59.2239 79.956V80.424H60.6039V81.324ZM67.5411 80.424L63.5811 90.096H62.4531L63.7491 86.928L61.0971 80.424H62.3091L64.3731 85.752L66.4131 80.424H67.5411ZM69.2028 79.356C68.9948 79.356 68.8188 79.284 68.6748 79.14C68.5308 78.996 68.4588 78.82 68.4588 78.612C68.4588 78.404 68.5308 78.228 68.6748 78.084C68.8188 77.94 68.9948 77.868 69.2028 77.868C69.4028 77.868 69.5708 77.94 69.7068 78.084C69.8508 78.228 69.9228 78.404 69.9228 78.612C69.9228 78.82 69.8508 78.996 69.7068 79.14C69.5708 79.284 69.4028 79.356 69.2028 79.356ZM69.7308 80.424V87H68.6388V80.424H69.7308ZM74.796 80.304C75.596 80.304 76.244 80.548 76.74 81.036C77.236 81.516 77.484 82.212 77.484 83.124V87H76.404V83.28C76.404 82.624 76.24 82.124 75.912 81.78C75.584 81.428 75.136 81.252 74.568 81.252C73.992 81.252 73.532 81.432 73.188 81.792C72.852 82.152 72.684 82.676 72.684 83.364V87H71.592V80.424H72.684V81.36C72.9 81.024 73.192 80.764 73.56 80.58C73.936 80.396 74.348 80.304 74.796 80.304ZM81.9798 80.316C82.5478 80.316 83.0438 80.44 83.4678 80.688C83.8998 80.936 84.2198 81.248 84.4278 81.624V80.424H85.5318V87.144C85.5318 87.744 85.4038 88.276 85.1478 88.74C84.8918 89.212 84.5238 89.58 84.0438 89.844C83.5718 90.108 83.0198 90.24 82.3878 90.24C81.5238 90.24 80.8038 90.036 80.2278 89.628C79.6518 89.22 79.3118 88.664 79.2078 87.96H80.2878C80.4078 88.36 80.6558 88.68 81.0318 88.92C81.4078 89.168 81.8598 89.292 82.3878 89.292C82.9878 89.292 83.4758 89.104 83.8518 88.728C84.2358 88.352 84.4278 87.824 84.4278 87.144V85.764C84.2118 86.148 83.8918 86.468 83.4678 86.724C83.0438 86.98 82.5478 87.108 81.9798 87.108C81.3958 87.108 80.8638 86.964 80.3838 86.676C79.9118 86.388 79.5398 85.984 79.2678 85.464C78.9958 84.944 78.8598 84.352 78.8598 83.688C78.8598 83.016 78.9958 82.428 79.2678 81.924C79.5398 81.412 79.9118 81.016 80.3838 80.736C80.8638 80.456 81.3958 80.316 81.9798 80.316ZM84.4278 83.7C84.4278 83.204 84.3278 82.772 84.1278 82.404C83.9278 82.036 83.6558 81.756 83.3118 81.564C82.9758 81.364 82.6038 81.264 82.1958 81.264C81.7878 81.264 81.4158 81.36 81.0798 81.552C80.7438 81.744 80.4758 82.024 80.2758 82.392C80.0758 82.76 79.9758 83.192 79.9758 83.688C79.9758 84.192 80.0758 84.632 80.2758 85.008C80.4758 85.376 80.7438 85.66 81.0798 85.86C81.4158 86.052 81.7878 86.148 82.1958 86.148C82.6038 86.148 82.9758 86.052 83.3118 85.86C83.6558 85.66 83.9278 85.376 84.1278 85.008C84.3278 84.632 84.4278 84.196 84.4278 83.7ZM92.9043 87.108C92.4003 87.108 91.9483 87.024 91.5483 86.856C91.1483 86.68 90.8323 86.44 90.6003 86.136C90.3683 85.824 90.2403 85.468 90.2163 85.068H91.3443C91.3763 85.396 91.5283 85.664 91.8003 85.872C92.0803 86.08 92.4443 86.184 92.8923 86.184C93.3083 86.184 93.6363 86.092 93.8763 85.908C94.1163 85.724 94.2363 85.492 94.2363 85.212C94.2363 84.924 94.1083 84.712 93.8523 84.576C93.5963 84.432 93.2003 84.292 92.6643 84.156C92.1763 84.028 91.7763 83.9 91.4643 83.772C91.1603 83.636 90.8963 83.44 90.6723 83.184C90.4563 82.92 90.3483 82.576 90.3483 82.152C90.3483 81.816 90.4483 81.508 90.6483 81.228C90.8483 80.948 91.1323 80.728 91.5003 80.568C91.8683 80.4 92.2883 80.316 92.7603 80.316C93.4883 80.316 94.0763 80.5 94.5243 80.868C94.9723 81.236 95.2123 81.74 95.2443 82.38H94.1523C94.1283 82.036 93.9883 81.76 93.7323 81.552C93.4843 81.344 93.1483 81.24 92.7243 81.24C92.3323 81.24 92.0203 81.324 91.7883 81.492C91.5563 81.66 91.4403 81.88 91.4403 82.152C91.4403 82.368 91.5083 82.548 91.6443 82.692C91.7883 82.828 91.9643 82.94 92.1723 83.028C92.3883 83.108 92.6843 83.2 93.0603 83.304C93.5323 83.432 93.9163 83.56 94.2123 83.688C94.5083 83.808 94.7603 83.992 94.9683 84.24C95.1843 84.488 95.2963 84.812 95.3043 85.212C95.3043 85.572 95.2043 85.896 95.0043 86.184C94.8043 86.472 94.5203 86.7 94.1523 86.868C93.7923 87.028 93.3763 87.108 92.9043 87.108ZM97.9379 81.636C98.1539 81.26 98.4739 80.948 98.8979 80.7C99.3299 80.444 99.8299 80.316 100.398 80.316C100.982 80.316 101.51 80.456 101.982 80.736C102.462 81.016 102.838 81.412 103.11 81.924C103.382 82.428 103.518 83.016 103.518 83.688C103.518 84.352 103.382 84.944 103.11 85.464C102.838 85.984 102.462 86.388 101.982 86.676C101.51 86.964 100.982 87.108 100.398 87.108C99.8379 87.108 99.3419 86.984 98.9099 86.736C98.4859 86.48 98.1619 86.164 97.9379 85.788V90.12H96.8459V80.424H97.9379V81.636ZM102.402 83.688C102.402 83.192 102.302 82.76 102.102 82.392C101.902 82.024 101.63 81.744 101.286 81.552C100.95 81.36 100.578 81.264 100.17 81.264C99.7699 81.264 99.3979 81.364 99.0539 81.564C98.7179 81.756 98.4459 82.04 98.2379 82.416C98.0379 82.784 97.9379 83.212 97.9379 83.7C97.9379 84.196 98.0379 84.632 98.2379 85.008C98.4459 85.376 98.7179 85.66 99.0539 85.86C99.3979 86.052 99.7699 86.148 100.17 86.148C100.578 86.148 100.95 86.052 101.286 85.86C101.63 85.66 101.902 85.376 102.102 85.008C102.302 84.632 102.402 84.192 102.402 83.688ZM110.955 83.46C110.955 83.668 110.943 83.888 110.919 84.12H105.663C105.703 84.768 105.923 85.276 106.323 85.644C106.731 86.004 107.223 86.184 107.799 86.184C108.271 86.184 108.663 86.076 108.975 85.86C109.295 85.636 109.519 85.34 109.647 84.972H110.823C110.647 85.604 110.295 86.12 109.767 86.52C109.239 86.912 108.583 87.108 107.799 87.108C107.175 87.108 106.615 86.968 106.119 86.688C105.631 86.408 105.247 86.012 104.967 85.5C104.687 84.98 104.547 84.38 104.547 83.7C104.547 83.02 104.683 82.424 104.955 81.912C105.227 81.4 105.607 81.008 106.095 80.736C106.591 80.456 107.159 80.316 107.799 80.316C108.423 80.316 108.975 80.452 109.455 80.724C109.935 80.996 110.303 81.372 110.559 81.852C110.823 82.324 110.955 82.86 110.955 83.46ZM109.827 83.232C109.827 82.816 109.735 82.46 109.551 82.164C109.367 81.86 109.115 81.632 108.795 81.48C108.483 81.32 108.135 81.24 107.751 81.24C107.199 81.24 106.727 81.416 106.335 81.768C105.951 82.12 105.731 82.608 105.675 83.232H109.827ZM111.989 83.7C111.989 83.02 112.125 82.428 112.397 81.924C112.669 81.412 113.045 81.016 113.525 80.736C114.013 80.456 114.569 80.316 115.193 80.316C116.001 80.316 116.665 80.512 117.185 80.904C117.713 81.296 118.061 81.84 118.229 82.536H117.053C116.941 82.136 116.721 81.82 116.393 81.588C116.073 81.356 115.673 81.24 115.193 81.24C114.569 81.24 114.065 81.456 113.681 81.888C113.297 82.312 113.105 82.916 113.105 83.7C113.105 84.492 113.297 85.104 113.681 85.536C114.065 85.968 114.569 86.184 115.193 86.184C115.673 86.184 116.073 86.072 116.393 85.848C116.713 85.624 116.933 85.304 117.053 84.888H118.229C118.053 85.56 117.701 86.1 117.173 86.508C116.645 86.908 115.985 87.108 115.193 87.108C114.569 87.108 114.013 86.968 113.525 86.688C113.045 86.408 112.669 86.012 112.397 85.5C112.125 84.988 111.989 84.388 111.989 83.7ZM120.25 79.356C120.042 79.356 119.866 79.284 119.722 79.14C119.578 78.996 119.506 78.82 119.506 78.612C119.506 78.404 119.578 78.228 119.722 78.084C119.866 77.94 120.042 77.868 120.25 77.868C120.45 77.868 120.618 77.94 120.754 78.084C120.898 78.228 120.97 78.404 120.97 78.612C120.97 78.82 120.898 78.996 120.754 79.14C120.618 79.284 120.45 79.356 120.25 79.356ZM120.778 80.424V87H119.686V80.424H120.778ZM125.315 81.324H123.935V87H122.843V81.324H121.991V80.424H122.843V79.956C122.843 79.22 123.031 78.684 123.407 78.348C123.791 78.004 124.403 77.832 125.243 77.832V78.744C124.763 78.744 124.423 78.84 124.223 79.032C124.031 79.216 123.935 79.524 123.935 79.956V80.424H125.315V81.324ZM127.152 79.356C126.944 79.356 126.768 79.284 126.624 79.14C126.48 78.996 126.408 78.82 126.408 78.612C126.408 78.404 126.48 78.228 126.624 78.084C126.768 77.94 126.944 77.868 127.152 77.868C127.352 77.868 127.52 77.94 127.656 78.084C127.8 78.228 127.872 78.404 127.872 78.612C127.872 78.82 127.8 78.996 127.656 79.14C127.52 79.284 127.352 79.356 127.152 79.356ZM127.68 80.424V87H126.588V80.424H127.68ZM129.133 83.7C129.133 83.02 129.269 82.428 129.541 81.924C129.813 81.412 130.189 81.016 130.669 80.736C131.157 80.456 131.713 80.316 132.337 80.316C133.145 80.316 133.809 80.512 134.329 80.904C134.857 81.296 135.205 81.84 135.373 82.536H134.197C134.085 82.136 133.865 81.82 133.537 81.588C133.217 81.356 132.817 81.24 132.337 81.24C131.713 81.24 131.209 81.456 130.825 81.888C130.441 82.312 130.249 82.916 130.249 83.7C130.249 84.492 130.441 85.104 130.825 85.536C131.209 85.968 131.713 86.184 132.337 86.184C132.817 86.184 133.217 86.072 133.537 85.848C133.857 85.624 134.077 85.304 134.197 84.888H135.373C135.197 85.56 134.845 86.1 134.317 86.508C133.789 86.908 133.129 87.108 132.337 87.108C131.713 87.108 131.157 86.968 130.669 86.688C130.189 86.408 129.813 86.012 129.541 85.5C129.269 84.988 129.133 84.388 129.133 83.7ZM141.361 81.324V85.2C141.361 85.52 141.429 85.748 141.565 85.884C141.701 86.012 141.937 86.076 142.273 86.076H143.077V87H142.093C141.485 87 141.029 86.86 140.725 86.58C140.421 86.3 140.269 85.84 140.269 85.2V81.324H139.417V80.424H140.269V78.768H141.361V80.424H143.077V81.324H141.361ZM145.493 81.492C145.685 81.116 145.957 80.824 146.309 80.616C146.669 80.408 147.105 80.304 147.617 80.304V81.432H147.329C146.105 81.432 145.493 82.096 145.493 83.424V87H144.401V80.424H145.493V81.492ZM149.441 79.356C149.233 79.356 149.057 79.284 148.913 79.14C148.769 78.996 148.697 78.82 148.697 78.612C148.697 78.404 148.769 78.228 148.913 78.084C149.057 77.94 149.233 77.868 149.441 77.868C149.641 77.868 149.809 77.94 149.945 78.084C150.089 78.228 150.161 78.404 150.161 78.612C150.161 78.82 150.089 78.996 149.945 79.14C149.809 79.284 149.641 79.356 149.441 79.356ZM149.969 80.424V87H148.877V80.424H149.969ZM154.542 80.316C155.11 80.316 155.606 80.44 156.03 80.688C156.462 80.936 156.782 81.248 156.99 81.624V80.424H158.094V87.144C158.094 87.744 157.966 88.276 157.71 88.74C157.454 89.212 157.086 89.58 156.606 89.844C156.134 90.108 155.582 90.24 154.95 90.24C154.086 90.24 153.366 90.036 152.79 89.628C152.214 89.22 151.874 88.664 151.77 87.96H152.85C152.97 88.36 153.218 88.68 153.594 88.92C153.97 89.168 154.422 89.292 154.95 89.292C155.55 89.292 156.038 89.104 156.414 88.728C156.798 88.352 156.99 87.824 156.99 87.144V85.764C156.774 86.148 156.454 86.468 156.03 86.724C155.606 86.98 155.11 87.108 154.542 87.108C153.958 87.108 153.426 86.964 152.946 86.676C152.474 86.388 152.102 85.984 151.83 85.464C151.558 84.944 151.422 84.352 151.422 83.688C151.422 83.016 151.558 82.428 151.83 81.924C152.102 81.412 152.474 81.016 152.946 80.736C153.426 80.456 153.958 80.316 154.542 80.316ZM156.99 83.7C156.99 83.204 156.89 82.772 156.69 82.404C156.49 82.036 156.218 81.756 155.874 81.564C155.538 81.364 155.166 81.264 154.758 81.264C154.35 81.264 153.978 81.36 153.642 81.552C153.306 81.744 153.038 82.024 152.838 82.392C152.638 82.76 152.538 83.192 152.538 83.688C152.538 84.192 152.638 84.632 152.838 85.008C153.038 85.376 153.306 85.66 153.642 85.86C153.978 86.052 154.35 86.148 154.758 86.148C155.166 86.148 155.538 86.052 155.874 85.86C156.218 85.66 156.49 85.376 156.69 85.008C156.89 84.632 156.99 84.196 156.99 83.7ZM162.652 80.316C163.22 80.316 163.716 80.44 164.14 80.688C164.572 80.936 164.892 81.248 165.1 81.624V80.424H166.204V87.144C166.204 87.744 166.076 88.276 165.82 88.74C165.564 89.212 165.196 89.58 164.716 89.844C164.244 90.108 163.692 90.24 163.06 90.24C162.196 90.24 161.476 90.036 160.9 89.628C160.324 89.22 159.984 88.664 159.88 87.96H160.96C161.08 88.36 161.328 88.68 161.704 88.92C162.08 89.168 162.532 89.292 163.06 89.292C163.66 89.292 164.148 89.104 164.524 88.728C164.908 88.352 165.1 87.824 165.1 87.144V85.764C164.884 86.148 164.564 86.468 164.14 86.724C163.716 86.98 163.22 87.108 162.652 87.108C162.068 87.108 161.536 86.964 161.056 86.676C160.584 86.388 160.212 85.984 159.94 85.464C159.668 84.944 159.532 84.352 159.532 83.688C159.532 83.016 159.668 82.428 159.94 81.924C160.212 81.412 160.584 81.016 161.056 80.736C161.536 80.456 162.068 80.316 162.652 80.316ZM165.1 83.7C165.1 83.204 165 82.772 164.8 82.404C164.6 82.036 164.328 81.756 163.984 81.564C163.648 81.364 163.276 81.264 162.868 81.264C162.46 81.264 162.088 81.36 161.752 81.552C161.416 81.744 161.148 82.024 160.948 82.392C160.748 82.76 160.648 83.192 160.648 83.688C160.648 84.192 160.748 84.632 160.948 85.008C161.148 85.376 161.416 85.66 161.752 85.86C162.088 86.052 162.46 86.148 162.868 86.148C163.276 86.148 163.648 86.052 163.984 85.86C164.328 85.66 164.6 85.376 164.8 85.008C165 84.632 165.1 84.196 165.1 83.7ZM174.049 83.46C174.049 83.668 174.037 83.888 174.013 84.12H168.757C168.797 84.768 169.017 85.276 169.417 85.644C169.825 86.004 170.317 86.184 170.893 86.184C171.365 86.184 171.757 86.076 172.069 85.86C172.389 85.636 172.613 85.34 172.741 84.972H173.917C173.741 85.604 173.389 86.12 172.861 86.52C172.333 86.912 171.677 87.108 170.893 87.108C170.269 87.108 169.709 86.968 169.213 86.688C168.725 86.408 168.341 86.012 168.061 85.5C167.781 84.98 167.641 84.38 167.641 83.7C167.641 83.02 167.777 82.424 168.049 81.912C168.321 81.4 168.701 81.008 169.189 80.736C169.685 80.456 170.253 80.316 170.893 80.316C171.517 80.316 172.069 80.452 172.549 80.724C173.029 80.996 173.397 81.372 173.653 81.852C173.917 82.324 174.049 82.86 174.049 83.46ZM172.921 83.232C172.921 82.816 172.829 82.46 172.645 82.164C172.461 81.86 172.209 81.632 171.889 81.48C171.577 81.32 171.229 81.24 170.845 81.24C170.293 81.24 169.821 81.416 169.429 81.768C169.045 82.12 168.825 82.608 168.769 83.232H172.921ZM176.582 81.492C176.774 81.116 177.046 80.824 177.398 80.616C177.758 80.408 178.194 80.304 178.706 80.304V81.432H178.418C177.194 81.432 176.582 82.096 176.582 83.424V87H175.49V80.424H176.582V81.492ZM182.295 87.108C181.791 87.108 181.339 87.024 180.939 86.856C180.539 86.68 180.223 86.44 179.991 86.136C179.759 85.824 179.631 85.468 179.607 85.068H180.735C180.767 85.396 180.919 85.664 181.191 85.872C181.471 86.08 181.835 86.184 182.283 86.184C182.699 86.184 183.027 86.092 183.267 85.908C183.507 85.724 183.627 85.492 183.627 85.212C183.627 84.924 183.499 84.712 183.243 84.576C182.987 84.432 182.591 84.292 182.055 84.156C181.567 84.028 181.167 83.9 180.855 83.772C180.551 83.636 180.287 83.44 180.063 83.184C179.847 82.92 179.739 82.576 179.739 82.152C179.739 81.816 179.839 81.508 180.039 81.228C180.239 80.948 180.523 80.728 180.891 80.568C181.259 80.4 181.679 80.316 182.151 80.316C182.879 80.316 183.467 80.5 183.915 80.868C184.363 81.236 184.603 81.74 184.635 82.38H183.543C183.519 82.036 183.379 81.76 183.123 81.552C182.875 81.344 182.539 81.24 182.115 81.24C181.723 81.24 181.411 81.324 181.179 81.492C180.947 81.66 180.831 81.88 180.831 82.152C180.831 82.368 180.899 82.548 181.035 82.692C181.179 82.828 181.355 82.94 181.563 83.028C181.779 83.108 182.075 83.2 182.451 83.304C182.923 83.432 183.307 83.56 183.603 83.688C183.899 83.808 184.151 83.992 184.359 84.24C184.575 84.488 184.687 84.812 184.695 85.212C184.695 85.572 184.595 85.896 184.395 86.184C184.195 86.472 183.911 86.7 183.543 86.868C183.183 87.028 182.767 87.108 182.295 87.108ZM189.028 83.7C189.028 83.02 189.164 82.428 189.436 81.924C189.708 81.412 190.084 81.016 190.564 80.736C191.052 80.456 191.608 80.316 192.232 80.316C193.04 80.316 193.704 80.512 194.224 80.904C194.752 81.296 195.1 81.84 195.268 82.536H194.092C193.98 82.136 193.76 81.82 193.432 81.588C193.112 81.356 192.712 81.24 192.232 81.24C191.608 81.24 191.104 81.456 190.72 81.888C190.336 82.312 190.144 82.916 190.144 83.7C190.144 84.492 190.336 85.104 190.72 85.536C191.104 85.968 191.608 86.184 192.232 86.184C192.712 86.184 193.112 86.072 193.432 85.848C193.752 85.624 193.972 85.304 194.092 84.888H195.268C195.092 85.56 194.74 86.1 194.212 86.508C193.684 86.908 193.024 87.108 192.232 87.108C191.608 87.108 191.052 86.968 190.564 86.688C190.084 86.408 189.708 86.012 189.436 85.5C189.164 84.988 189.028 84.388 189.028 83.7ZM196.317 83.688C196.317 83.016 196.453 82.428 196.725 81.924C196.997 81.412 197.369 81.016 197.841 80.736C198.321 80.456 198.853 80.316 199.437 80.316C200.013 80.316 200.513 80.44 200.937 80.688C201.361 80.936 201.677 81.248 201.885 81.624V80.424H202.989V87H201.885V85.776C201.669 86.16 201.345 86.48 200.913 86.736C200.489 86.984 199.993 87.108 199.425 87.108C198.841 87.108 198.313 86.964 197.841 86.676C197.369 86.388 196.997 85.984 196.725 85.464C196.453 84.944 196.317 84.352 196.317 83.688ZM201.885 83.7C201.885 83.204 201.785 82.772 201.585 82.404C201.385 82.036 201.113 81.756 200.769 81.564C200.433 81.364 200.061 81.264 199.653 81.264C199.245 81.264 198.873 81.36 198.537 81.552C198.201 81.744 197.933 82.024 197.733 82.392C197.533 82.76 197.433 83.192 197.433 83.688C197.433 84.192 197.533 84.632 197.733 85.008C197.933 85.376 198.201 85.66 198.537 85.86C198.873 86.052 199.245 86.148 199.653 86.148C200.061 86.148 200.433 86.052 200.769 85.86C201.113 85.66 201.385 85.376 201.585 85.008C201.785 84.632 201.885 84.196 201.885 83.7ZM208.038 80.304C208.838 80.304 209.486 80.548 209.982 81.036C210.478 81.516 210.726 82.212 210.726 83.124V87H209.646V83.28C209.646 82.624 209.482 82.124 209.154 81.78C208.826 81.428 208.378 81.252 207.81 81.252C207.234 81.252 206.774 81.432 206.43 81.792C206.094 82.152 205.926 82.676 205.926 83.364V87H204.834V80.424H205.926V81.36C206.142 81.024 206.434 80.764 206.802 80.58C207.178 80.396 207.59 80.304 208.038 80.304ZM218.973 80.304C219.469 80.304 219.917 80.412 220.317 80.628C220.717 80.836 221.029 81.152 221.253 81.576C221.485 82 221.601 82.516 221.601 83.124V87H220.521V83.28C220.521 82.624 220.357 82.124 220.029 81.78C219.701 81.428 219.253 81.252 218.685 81.252C218.109 81.252 217.649 81.432 217.305 81.792C216.969 82.152 216.801 82.676 216.801 83.364V87H215.709V78.12H216.801V81.36C217.017 81.024 217.313 80.764 217.689 80.58C218.073 80.396 218.501 80.304 218.973 80.304ZM229.385 83.46C229.385 83.668 229.373 83.888 229.349 84.12H224.093C224.133 84.768 224.353 85.276 224.753 85.644C225.161 86.004 225.653 86.184 226.229 86.184C226.701 86.184 227.093 86.076 227.405 85.86C227.725 85.636 227.949 85.34 228.077 84.972H229.253C229.077 85.604 228.725 86.12 228.197 86.52C227.669 86.912 227.013 87.108 226.229 87.108C225.605 87.108 225.045 86.968 224.549 86.688C224.061 86.408 223.677 86.012 223.397 85.5C223.117 84.98 222.977 84.38 222.977 83.7C222.977 83.02 223.113 82.424 223.385 81.912C223.657 81.4 224.037 81.008 224.525 80.736C225.021 80.456 225.589 80.316 226.229 80.316C226.853 80.316 227.405 80.452 227.885 80.724C228.365 80.996 228.733 81.372 228.989 81.852C229.253 82.324 229.385 82.86 229.385 83.46ZM228.257 83.232C228.257 82.816 228.165 82.46 227.981 82.164C227.797 81.86 227.545 81.632 227.225 81.48C226.913 81.32 226.565 81.24 226.181 81.24C225.629 81.24 225.157 81.416 224.765 81.768C224.381 82.12 224.161 82.608 224.105 83.232H228.257ZM231.918 78.12V87H230.826V78.12H231.918ZM234.871 81.636C235.087 81.26 235.407 80.948 235.831 80.7C236.263 80.444 236.763 80.316 237.331 80.316C237.915 80.316 238.443 80.456 238.915 80.736C239.395 81.016 239.771 81.412 240.043 81.924C240.315 82.428 240.451 83.016 240.451 83.688C240.451 84.352 240.315 84.944 240.043 85.464C239.771 85.984 239.395 86.388 238.915 86.676C238.443 86.964 237.915 87.108 237.331 87.108C236.771 87.108 236.275 86.984 235.843 86.736C235.419 86.48 235.095 86.164 234.871 85.788V90.12H233.779V80.424H234.871V81.636ZM239.335 83.688C239.335 83.192 239.235 82.76 239.035 82.392C238.835 82.024 238.563 81.744 238.219 81.552C237.883 81.36 237.511 81.264 237.103 81.264C236.703 81.264 236.331 81.364 235.987 81.564C235.651 81.756 235.379 82.04 235.171 82.416C234.971 82.784 234.871 83.212 234.871 83.7C234.871 84.196 234.971 84.632 235.171 85.008C235.379 85.376 235.651 85.66 235.987 85.86C236.331 86.052 236.703 86.148 237.103 86.148C237.511 86.148 237.883 86.052 238.219 85.86C238.563 85.66 238.835 85.376 239.035 85.008C239.235 84.632 239.335 84.192 239.335 83.688ZM246.18 81.492C246.372 81.116 246.644 80.824 246.996 80.616C247.356 80.408 247.792 80.304 248.304 80.304V81.432H248.016C246.792 81.432 246.18 82.096 246.18 83.424V87H245.088V80.424H246.18V81.492ZM255.565 83.46C255.565 83.668 255.553 83.888 255.529 84.12H250.273C250.313 84.768 250.533 85.276 250.933 85.644C251.341 86.004 251.833 86.184 252.409 86.184C252.881 86.184 253.273 86.076 253.585 85.86C253.905 85.636 254.129 85.34 254.257 84.972H255.433C255.257 85.604 254.905 86.12 254.377 86.52C253.849 86.912 253.193 87.108 252.409 87.108C251.785 87.108 251.225 86.968 250.729 86.688C250.241 86.408 249.857 86.012 249.577 85.5C249.297 84.98 249.157 84.38 249.157 83.7C249.157 83.02 249.293 82.424 249.565 81.912C249.837 81.4 250.217 81.008 250.705 80.736C251.201 80.456 251.769 80.316 252.409 80.316C253.033 80.316 253.585 80.452 254.065 80.724C254.545 80.996 254.913 81.372 255.169 81.852C255.433 82.324 255.565 82.86 255.565 83.46ZM254.437 83.232C254.437 82.816 254.345 82.46 254.161 82.164C253.977 81.86 253.725 81.632 253.405 81.48C253.093 81.32 252.745 81.24 252.361 81.24C251.809 81.24 251.337 81.416 250.945 81.768C250.561 82.12 250.341 82.608 250.285 83.232H254.437ZM256.598 83.688C256.598 83.016 256.734 82.428 257.006 81.924C257.278 81.412 257.65 81.016 258.122 80.736C258.602 80.456 259.138 80.316 259.73 80.316C260.242 80.316 260.718 80.436 261.158 80.676C261.598 80.908 261.934 81.216 262.166 81.6V78.12H263.27V87H262.166V85.764C261.95 86.156 261.63 86.48 261.206 86.736C260.782 86.984 260.286 87.108 259.718 87.108C259.134 87.108 258.602 86.964 258.122 86.676C257.65 86.388 257.278 85.984 257.006 85.464C256.734 84.944 256.598 84.352 256.598 83.688ZM262.166 83.7C262.166 83.204 262.066 82.772 261.866 82.404C261.666 82.036 261.394 81.756 261.05 81.564C260.714 81.364 260.342 81.264 259.934 81.264C259.526 81.264 259.154 81.36 258.818 81.552C258.482 81.744 258.214 82.024 258.014 82.392C257.814 82.76 257.714 83.192 257.714 83.688C257.714 84.192 257.814 84.632 258.014 85.008C258.214 85.376 258.482 85.66 258.818 85.86C259.154 86.052 259.526 86.148 259.934 86.148C260.342 86.148 260.714 86.052 261.05 85.86C261.394 85.66 261.666 85.376 261.866 85.008C262.066 84.632 262.166 84.196 262.166 83.7ZM270.947 80.424V87H269.855V86.028C269.647 86.364 269.355 86.628 268.979 86.82C268.611 87.004 268.203 87.096 267.755 87.096C267.243 87.096 266.783 86.992 266.375 86.784C265.967 86.568 265.643 86.248 265.403 85.824C265.171 85.4 265.055 84.884 265.055 84.276V80.424H266.135V84.132C266.135 84.78 266.299 85.28 266.627 85.632C266.955 85.976 267.403 86.148 267.971 86.148C268.555 86.148 269.015 85.968 269.351 85.608C269.687 85.248 269.855 84.724 269.855 84.036V80.424H270.947ZM272.383 83.7C272.383 83.02 272.519 82.428 272.791 81.924C273.063 81.412 273.439 81.016 273.919 80.736C274.407 80.456 274.963 80.316 275.587 80.316C276.395 80.316 277.059 80.512 277.579 80.904C278.107 81.296 278.455 81.84 278.623 82.536H277.447C277.335 82.136 277.115 81.82 276.787 81.588C276.467 81.356 276.067 81.24 275.587 81.24C274.963 81.24 274.459 81.456 274.075 81.888C273.691 82.312 273.499 82.916 273.499 83.7C273.499 84.492 273.691 85.104 274.075 85.536C274.459 85.968 274.963 86.184 275.587 86.184C276.067 86.184 276.467 86.072 276.787 85.848C277.107 85.624 277.327 85.304 277.447 84.888H278.623C278.447 85.56 278.095 86.1 277.567 86.508C277.039 86.908 276.379 87.108 275.587 87.108C274.963 87.108 274.407 86.968 273.919 86.688C273.439 86.408 273.063 86.012 272.791 85.5C272.519 84.988 272.383 84.388 272.383 83.7ZM286.08 83.46C286.08 83.668 286.068 83.888 286.044 84.12H280.788C280.828 84.768 281.048 85.276 281.448 85.644C281.856 86.004 282.348 86.184 282.924 86.184C283.396 86.184 283.788 86.076 284.1 85.86C284.42 85.636 284.644 85.34 284.772 84.972H285.948C285.772 85.604 285.42 86.12 284.892 86.52C284.364 86.912 283.708 87.108 282.924 87.108C282.3 87.108 281.74 86.968 281.244 86.688C280.756 86.408 280.372 86.012 280.092 85.5C279.812 84.98 279.672 84.38 279.672 83.7C279.672 83.02 279.808 82.424 280.08 81.912C280.352 81.4 280.732 81.008 281.22 80.736C281.716 80.456 282.284 80.316 282.924 80.316C283.548 80.316 284.1 80.452 284.58 80.724C285.06 80.996 285.428 81.372 285.684 81.852C285.948 82.324 286.08 82.86 286.08 83.46ZM284.952 83.232C284.952 82.816 284.86 82.46 284.676 82.164C284.492 81.86 284.24 81.632 283.92 81.48C283.608 81.32 283.26 81.24 282.876 81.24C282.324 81.24 281.852 81.416 281.46 81.768C281.076 82.12 280.856 82.608 280.8 83.232H284.952ZM290.313 83.688C290.313 83.016 290.449 82.428 290.721 81.924C290.993 81.412 291.365 81.016 291.837 80.736C292.317 80.456 292.849 80.316 293.433 80.316C294.009 80.316 294.509 80.44 294.933 80.688C295.357 80.936 295.673 81.248 295.881 81.624V80.424H296.985V87H295.881V85.776C295.665 86.16 295.341 86.48 294.909 86.736C294.485 86.984 293.989 87.108 293.421 87.108C292.837 87.108 292.309 86.964 291.837 86.676C291.365 86.388 290.993 85.984 290.721 85.464C290.449 84.944 290.313 84.352 290.313 83.688ZM295.881 83.7C295.881 83.204 295.781 82.772 295.581 82.404C295.381 82.036 295.109 81.756 294.765 81.564C294.429 81.364 294.057 81.264 293.649 81.264C293.241 81.264 292.869 81.36 292.533 81.552C292.197 81.744 291.929 82.024 291.729 82.392C291.529 82.76 291.429 83.192 291.429 83.688C291.429 84.192 291.529 84.632 291.729 85.008C291.929 85.376 292.197 85.66 292.533 85.86C292.869 86.052 293.241 86.148 293.649 86.148C294.057 86.148 294.429 86.052 294.765 85.86C295.109 85.66 295.381 85.376 295.581 85.008C295.781 84.632 295.881 84.196 295.881 83.7ZM302.034 80.304C302.834 80.304 303.482 80.548 303.978 81.036C304.474 81.516 304.722 82.212 304.722 83.124V87H303.642V83.28C303.642 82.624 303.478 82.124 303.15 81.78C302.822 81.428 302.374 81.252 301.806 81.252C301.23 81.252 300.77 81.432 300.426 81.792C300.09 82.152 299.922 82.676 299.922 83.364V87H298.83V80.424H299.922V81.36C300.138 81.024 300.43 80.764 300.798 80.58C301.174 80.396 301.586 80.304 302.034 80.304ZM309.938 87L308.378 84.552L306.878 87H305.738L307.862 83.736L305.738 80.424H306.974L308.534 82.86L310.022 80.424H311.162L309.05 83.676L311.174 87H309.938ZM312.812 79.356C312.604 79.356 312.428 79.284 312.284 79.14C312.14 78.996 312.068 78.82 312.068 78.612C312.068 78.404 312.14 78.228 312.284 78.084C312.428 77.94 312.604 77.868 312.812 77.868C313.012 77.868 313.18 77.94 313.316 78.084C313.46 78.228 313.532 78.404 313.532 78.612C313.532 78.82 313.46 78.996 313.316 79.14C313.18 79.284 313.012 79.356 312.812 79.356ZM313.34 80.424V87H312.248V80.424H313.34ZM321.201 83.46C321.201 83.668 321.189 83.888 321.165 84.12H315.909C315.949 84.768 316.169 85.276 316.569 85.644C316.977 86.004 317.469 86.184 318.045 86.184C318.517 86.184 318.909 86.076 319.221 85.86C319.541 85.636 319.765 85.34 319.893 84.972H321.069C320.893 85.604 320.541 86.12 320.013 86.52C319.485 86.912 318.829 87.108 318.045 87.108C317.421 87.108 316.861 86.968 316.365 86.688C315.877 86.408 315.493 86.012 315.213 85.5C314.933 84.98 314.793 84.38 314.793 83.7C314.793 83.02 314.929 82.424 315.201 81.912C315.473 81.4 315.853 81.008 316.341 80.736C316.837 80.456 317.405 80.316 318.045 80.316C318.669 80.316 319.221 80.452 319.701 80.724C320.181 80.996 320.549 81.372 320.805 81.852C321.069 82.324 321.201 82.86 321.201 83.46ZM320.073 83.232C320.073 82.816 319.981 82.46 319.797 82.164C319.613 81.86 319.361 81.632 319.041 81.48C318.729 81.32 318.381 81.24 317.997 81.24C317.445 81.24 316.973 81.416 316.581 81.768C316.197 82.12 315.977 82.608 315.921 83.232H320.073ZM323.975 81.324V85.2C323.975 85.52 324.043 85.748 324.179 85.884C324.315 86.012 324.551 86.076 324.887 86.076H325.691V87H324.707C324.099 87 323.643 86.86 323.339 86.58C323.035 86.3 322.883 85.84 322.883 85.2V81.324H322.031V80.424H322.883V78.768H323.975V80.424H325.691V81.324H323.975ZM332.678 80.424L328.718 90.096H327.59L328.886 86.928L326.234 80.424H327.446L329.51 85.752L331.55 80.424H332.678ZM24.016 101.688C24.016 101.016 24.152 100.428 24.424 99.924C24.696 99.412 25.068 99.016 25.54 98.736C26.02 98.456 26.552 98.316 27.136 98.316C27.712 98.316 28.212 98.44 28.636 98.688C29.06 98.936 29.376 99.248 29.584 99.624V98.424H30.688V105H29.584V103.776C29.368 104.16 29.044 104.48 28.612 104.736C28.188 104.984 27.692 105.108 27.124 105.108C26.54 105.108 26.012 104.964 25.54 104.676C25.068 104.388 24.696 103.984 24.424 103.464C24.152 102.944 24.016 102.352 24.016 101.688ZM29.584 101.7C29.584 101.204 29.484 100.772 29.284 100.404C29.084 100.036 28.812 99.756 28.468 99.564C28.132 99.364 27.76 99.264 27.352 99.264C26.944 99.264 26.572 99.36 26.236 99.552C25.9 99.744 25.632 100.024 25.432 100.392C25.232 100.76 25.132 101.192 25.132 101.688C25.132 102.192 25.232 102.632 25.432 103.008C25.632 103.376 25.9 103.66 26.236 103.86C26.572 104.052 26.944 104.148 27.352 104.148C27.76 104.148 28.132 104.052 28.468 103.86C28.812 103.66 29.084 103.376 29.284 103.008C29.484 102.632 29.584 102.196 29.584 101.7ZM35.7374 98.304C36.5374 98.304 37.1854 98.548 37.6814 99.036C38.1774 99.516 38.4254 100.212 38.4254 101.124V105H37.3454V101.28C37.3454 100.624 37.1814 100.124 36.8534 99.78C36.5254 99.428 36.0774 99.252 35.5094 99.252C34.9334 99.252 34.4734 99.432 34.1294 99.792C33.7934 100.152 33.6254 100.676 33.6254 101.364V105H32.5334V98.424H33.6254V99.36C33.8414 99.024 34.1334 98.764 34.5014 98.58C34.8774 98.396 35.2894 98.304 35.7374 98.304ZM39.8012 101.688C39.8012 101.016 39.9372 100.428 40.2092 99.924C40.4812 99.412 40.8532 99.016 41.3252 98.736C41.8052 98.456 42.3412 98.316 42.9332 98.316C43.4452 98.316 43.9212 98.436 44.3612 98.676C44.8012 98.908 45.1372 99.216 45.3692 99.6V96.12H46.4732V105H45.3692V103.764C45.1532 104.156 44.8332 104.48 44.4092 104.736C43.9852 104.984 43.4892 105.108 42.9212 105.108C42.3372 105.108 41.8052 104.964 41.3252 104.676C40.8532 104.388 40.4812 103.984 40.2092 103.464C39.9372 102.944 39.8012 102.352 39.8012 101.688ZM45.3692 101.7C45.3692 101.204 45.2692 100.772 45.0692 100.404C44.8692 100.036 44.5972 99.756 44.2532 99.564C43.9172 99.364 43.5452 99.264 43.1372 99.264C42.7292 99.264 42.3572 99.36 42.0212 99.552C41.6852 99.744 41.4172 100.024 41.2172 100.392C41.0172 100.76 40.9172 101.192 40.9172 101.688C40.9172 102.192 41.0172 102.632 41.2172 103.008C41.4172 103.376 41.6852 103.66 42.0212 103.86C42.3572 104.052 42.7292 104.148 43.1372 104.148C43.5452 104.148 43.9172 104.052 44.2532 103.86C44.5972 103.66 44.8692 103.376 45.0692 103.008C45.2692 102.632 45.3692 102.196 45.3692 101.7ZM51.1098 101.688C51.1098 101.016 51.2458 100.428 51.5178 99.924C51.7898 99.412 52.1618 99.016 52.6338 98.736C53.1138 98.456 53.6458 98.316 54.2298 98.316C54.8058 98.316 55.3058 98.44 55.7298 98.688C56.1538 98.936 56.4698 99.248 56.6778 99.624V98.424H57.7818V105H56.6778V103.776C56.4618 104.16 56.1378 104.48 55.7058 104.736C55.2818 104.984 54.7858 105.108 54.2178 105.108C53.6338 105.108 53.1058 104.964 52.6338 104.676C52.1618 104.388 51.7898 103.984 51.5178 103.464C51.2458 102.944 51.1098 102.352 51.1098 101.688ZM56.6778 101.7C56.6778 101.204 56.5778 100.772 56.3778 100.404C56.1778 100.036 55.9058 99.756 55.5618 99.564C55.2258 99.364 54.8538 99.264 54.4458 99.264C54.0378 99.264 53.6658 99.36 53.3298 99.552C52.9938 99.744 52.7258 100.024 52.5258 100.392C52.3258 100.76 52.2258 101.192 52.2258 101.688C52.2258 102.192 52.3258 102.632 52.5258 103.008C52.7258 103.376 52.9938 103.66 53.3298 103.86C53.6658 104.052 54.0378 104.148 54.4458 104.148C54.8538 104.148 55.2258 104.052 55.5618 103.86C55.9058 103.66 56.1778 103.376 56.3778 103.008C56.5778 102.632 56.6778 102.196 56.6778 101.7ZM60.7191 96.12V105H59.6271V96.12H60.7191ZM63.6723 96.12V105H62.5803V96.12H63.6723ZM68.4014 105.108C67.7854 105.108 67.2254 104.968 66.7214 104.688C66.2254 104.408 65.8334 104.012 65.5454 103.5C65.2654 102.98 65.1254 102.38 65.1254 101.7C65.1254 101.028 65.2694 100.436 65.5574 99.924C65.8534 99.404 66.2534 99.008 66.7574 98.736C67.2614 98.456 67.8254 98.316 68.4494 98.316C69.0734 98.316 69.6374 98.456 70.1414 98.736C70.6454 99.008 71.0414 99.4 71.3294 99.912C71.6254 100.424 71.7734 101.02 71.7734 101.7C71.7734 102.38 71.6214 102.98 71.3174 103.5C71.0214 104.012 70.6174 104.408 70.1054 104.688C69.5934 104.968 69.0254 105.108 68.4014 105.108ZM68.4014 104.148C68.7934 104.148 69.1614 104.056 69.5054 103.872C69.8494 103.688 70.1254 103.412 70.3334 103.044C70.5494 102.676 70.6574 102.228 70.6574 101.7C70.6574 101.172 70.5534 100.724 70.3454 100.356C70.1374 99.988 69.8654 99.716 69.5294 99.54C69.1934 99.356 68.8294 99.264 68.4374 99.264C68.0374 99.264 67.6694 99.356 67.3334 99.54C67.0054 99.716 66.7414 99.988 66.5414 100.356C66.3414 100.724 66.2414 101.172 66.2414 101.7C66.2414 102.236 66.3374 102.688 66.5294 103.056C66.7294 103.424 66.9934 103.7 67.3214 103.884C67.6494 104.06 68.0094 104.148 68.4014 104.148ZM81.9692 98.424L79.9172 105H78.7892L77.2052 99.78L75.6212 105H74.4932L72.4292 98.424H73.5452L75.0572 103.944L76.6892 98.424H77.8052L79.4012 103.956L80.8892 98.424H81.9692ZM91.9161 98.424L87.9561 108.096H86.8281L88.1241 104.928L85.4721 98.424H86.6841L88.7481 103.752L90.7881 98.424H91.9161ZM95.8818 105.108C95.2658 105.108 94.7058 104.968 94.2018 104.688C93.7058 104.408 93.3138 104.012 93.0258 103.5C92.7458 102.98 92.6058 102.38 92.6058 101.7C92.6058 101.028 92.7498 100.436 93.0378 99.924C93.3338 99.404 93.7338 99.008 94.2378 98.736C94.7418 98.456 95.3058 98.316 95.9298 98.316C96.5538 98.316 97.1178 98.456 97.6218 98.736C98.1258 99.008 98.5218 99.4 98.8098 99.912C99.1058 100.424 99.2538 101.02 99.2538 101.7C99.2538 102.38 99.1018 102.98 98.7978 103.5C98.5018 104.012 98.0978 104.408 97.5858 104.688C97.0738 104.968 96.5058 105.108 95.8818 105.108ZM95.8818 104.148C96.2738 104.148 96.6418 104.056 96.9858 103.872C97.3298 103.688 97.6058 103.412 97.8138 103.044C98.0298 102.676 98.1378 102.228 98.1378 101.7C98.1378 101.172 98.0338 100.724 97.8258 100.356C97.6178 99.988 97.3458 99.716 97.0098 99.54C96.6738 99.356 96.3098 99.264 95.9178 99.264C95.5178 99.264 95.1498 99.356 94.8138 99.54C94.4858 99.716 94.2218 99.988 94.0218 100.356C93.8218 100.724 93.7218 101.172 93.7218 101.7C93.7218 102.236 93.8178 102.688 94.0098 103.056C94.2098 103.424 94.4738 103.7 94.8018 103.884C95.1298 104.06 95.4898 104.148 95.8818 104.148ZM106.522 98.424V105H105.43V104.028C105.222 104.364 104.93 104.628 104.554 104.82C104.186 105.004 103.778 105.096 103.33 105.096C102.818 105.096 102.358 104.992 101.95 104.784C101.542 104.568 101.218 104.248 100.978 103.824C100.746 103.4 100.63 102.884 100.63 102.276V98.424H101.71V102.132C101.71 102.78 101.874 103.28 102.202 103.632C102.53 103.976 102.978 104.148 103.546 104.148C104.13 104.148 104.59 103.968 104.926 103.608C105.262 103.248 105.43 102.724 105.43 102.036V98.424H106.522ZM112.897 99.324V103.2C112.897 103.52 112.965 103.748 113.101 103.884C113.237 104.012 113.473 104.076 113.809 104.076H114.613V105H113.629C113.021 105 112.565 104.86 112.261 104.58C111.957 104.3 111.805 103.84 111.805 103.2V99.324H110.953V98.424H111.805V96.768H112.897V98.424H114.613V99.324H112.897ZM118.804 105.108C118.188 105.108 117.628 104.968 117.124 104.688C116.628 104.408 116.236 104.012 115.948 103.5C115.668 102.98 115.528 102.38 115.528 101.7C115.528 101.028 115.672 100.436 115.96 99.924C116.256 99.404 116.656 99.008 117.16 98.736C117.664 98.456 118.228 98.316 118.852 98.316C119.476 98.316 120.04 98.456 120.544 98.736C121.048 99.008 121.444 99.4 121.732 99.912C122.028 100.424 122.176 101.02 122.176 101.7C122.176 102.38 122.024 102.98 121.72 103.5C121.424 104.012 121.02 104.408 120.508 104.688C119.996 104.968 119.428 105.108 118.804 105.108ZM118.804 104.148C119.196 104.148 119.564 104.056 119.908 103.872C120.252 103.688 120.528 103.412 120.736 103.044C120.952 102.676 121.06 102.228 121.06 101.7C121.06 101.172 120.956 100.724 120.748 100.356C120.54 99.988 120.268 99.716 119.932 99.54C119.596 99.356 119.232 99.264 118.84 99.264C118.44 99.264 118.072 99.356 117.736 99.54C117.408 99.716 117.144 99.988 116.944 100.356C116.744 100.724 116.644 101.172 116.644 101.7C116.644 102.236 116.74 102.688 116.932 103.056C117.132 103.424 117.396 103.7 117.724 103.884C118.052 104.06 118.412 104.148 118.804 104.148ZM126.403 101.688C126.403 101.016 126.539 100.428 126.811 99.924C127.083 99.412 127.455 99.016 127.927 98.736C128.407 98.456 128.939 98.316 129.523 98.316C130.099 98.316 130.599 98.44 131.023 98.688C131.447 98.936 131.763 99.248 131.971 99.624V98.424H133.075V105H131.971V103.776C131.755 104.16 131.431 104.48 130.999 104.736C130.575 104.984 130.079 105.108 129.511 105.108C128.927 105.108 128.399 104.964 127.927 104.676C127.455 104.388 127.083 103.984 126.811 103.464C126.539 102.944 126.403 102.352 126.403 101.688ZM131.971 101.7C131.971 101.204 131.871 100.772 131.671 100.404C131.471 100.036 131.199 99.756 130.855 99.564C130.519 99.364 130.147 99.264 129.739 99.264C129.331 99.264 128.959 99.36 128.623 99.552C128.287 99.744 128.019 100.024 127.819 100.392C127.619 100.76 127.519 101.192 127.519 101.688C127.519 102.192 127.619 102.632 127.819 103.008C128.019 103.376 128.287 103.66 128.623 103.86C128.959 104.052 129.331 104.148 129.739 104.148C130.147 104.148 130.519 104.052 130.855 103.86C131.199 103.66 131.471 103.376 131.671 103.008C131.871 102.632 131.971 102.196 131.971 101.7ZM136.012 99.636C136.228 99.26 136.548 98.948 136.972 98.7C137.404 98.444 137.904 98.316 138.472 98.316C139.056 98.316 139.584 98.456 140.056 98.736C140.536 99.016 140.912 99.412 141.184 99.924C141.456 100.428 141.592 101.016 141.592 101.688C141.592 102.352 141.456 102.944 141.184 103.464C140.912 103.984 140.536 104.388 140.056 104.676C139.584 104.964 139.056 105.108 138.472 105.108C137.912 105.108 137.416 104.984 136.984 104.736C136.56 104.48 136.236 104.164 136.012 103.788V108.12H134.92V98.424H136.012V99.636ZM140.476 101.688C140.476 101.192 140.376 100.76 140.176 100.392C139.976 100.024 139.704 99.744 139.36 99.552C139.024 99.36 138.652 99.264 138.244 99.264C137.844 99.264 137.472 99.364 137.128 99.564C136.792 99.756 136.52 100.04 136.312 100.416C136.112 100.784 136.012 101.212 136.012 101.7C136.012 102.196 136.112 102.632 136.312 103.008C136.52 103.376 136.792 103.66 137.128 103.86C137.472 104.052 137.844 104.148 138.244 104.148C138.652 104.148 139.024 104.052 139.36 103.86C139.704 103.66 139.976 103.376 140.176 103.008C140.376 102.632 140.476 102.192 140.476 101.688ZM144.121 99.636C144.337 99.26 144.657 98.948 145.081 98.7C145.513 98.444 146.013 98.316 146.581 98.316C147.165 98.316 147.693 98.456 148.165 98.736C148.645 99.016 149.021 99.412 149.293 99.924C149.565 100.428 149.701 101.016 149.701 101.688C149.701 102.352 149.565 102.944 149.293 103.464C149.021 103.984 148.645 104.388 148.165 104.676C147.693 104.964 147.165 105.108 146.581 105.108C146.021 105.108 145.525 104.984 145.093 104.736C144.669 104.48 144.345 104.164 144.121 103.788V108.12H143.029V98.424H144.121V99.636ZM148.585 101.688C148.585 101.192 148.485 100.76 148.285 100.392C148.085 100.024 147.813 99.744 147.469 99.552C147.133 99.36 146.761 99.264 146.353 99.264C145.953 99.264 145.581 99.364 145.237 99.564C144.901 99.756 144.629 100.04 144.421 100.416C144.221 100.784 144.121 101.212 144.121 101.7C144.121 102.196 144.221 102.632 144.421 103.008C144.629 103.376 144.901 103.66 145.237 103.86C145.581 104.052 145.953 104.148 146.353 104.148C146.761 104.148 147.133 104.052 147.469 103.86C147.813 103.66 148.085 103.376 148.285 103.008C148.485 102.632 148.585 102.192 148.585 101.688ZM152.231 99.492C152.423 99.116 152.695 98.824 153.047 98.616C153.407 98.408 153.843 98.304 154.355 98.304V99.432H154.067C152.843 99.432 152.231 100.096 152.231 101.424V105H151.139V98.424H152.231V99.492ZM158.483 105.108C157.867 105.108 157.307 104.968 156.803 104.688C156.307 104.408 155.915 104.012 155.627 103.5C155.347 102.98 155.207 102.38 155.207 101.7C155.207 101.028 155.351 100.436 155.639 99.924C155.935 99.404 156.335 99.008 156.839 98.736C157.343 98.456 157.907 98.316 158.531 98.316C159.155 98.316 159.719 98.456 160.223 98.736C160.727 99.008 161.123 99.4 161.411 99.912C161.707 100.424 161.855 101.02 161.855 101.7C161.855 102.38 161.703 102.98 161.399 103.5C161.103 104.012 160.699 104.408 160.187 104.688C159.675 104.968 159.107 105.108 158.483 105.108ZM158.483 104.148C158.875 104.148 159.243 104.056 159.587 103.872C159.931 103.688 160.207 103.412 160.415 103.044C160.631 102.676 160.739 102.228 160.739 101.7C160.739 101.172 160.635 100.724 160.427 100.356C160.219 99.988 159.947 99.716 159.611 99.54C159.275 99.356 158.911 99.264 158.519 99.264C158.119 99.264 157.751 99.356 157.415 99.54C157.087 99.716 156.823 99.988 156.623 100.356C156.423 100.724 156.323 101.172 156.323 101.7C156.323 102.236 156.419 102.688 156.611 103.056C156.811 103.424 157.075 103.7 157.403 103.884C157.731 104.06 158.091 104.148 158.483 104.148ZM162.883 101.688C162.883 101.016 163.019 100.428 163.291 99.924C163.563 99.412 163.935 99.016 164.407 98.736C164.887 98.456 165.419 98.316 166.003 98.316C166.579 98.316 167.079 98.44 167.503 98.688C167.927 98.936 168.243 99.248 168.451 99.624V98.424H169.555V105H168.451V103.776C168.235 104.16 167.911 104.48 167.479 104.736C167.055 104.984 166.559 105.108 165.991 105.108C165.407 105.108 164.879 104.964 164.407 104.676C163.935 104.388 163.563 103.984 163.291 103.464C163.019 102.944 162.883 102.352 162.883 101.688ZM168.451 101.7C168.451 101.204 168.351 100.772 168.151 100.404C167.951 100.036 167.679 99.756 167.335 99.564C166.999 99.364 166.627 99.264 166.219 99.264C165.811 99.264 165.439 99.36 165.103 99.552C164.767 99.744 164.499 100.024 164.299 100.392C164.099 100.76 163.999 101.192 163.999 101.688C163.999 102.192 164.099 102.632 164.299 103.008C164.499 103.376 164.767 103.66 165.103 103.86C165.439 104.052 165.811 104.148 166.219 104.148C166.627 104.148 166.999 104.052 167.335 103.86C167.679 103.66 167.951 103.376 168.151 103.008C168.351 102.632 168.451 102.196 168.451 101.7ZM170.993 101.7C170.993 101.02 171.129 100.428 171.401 99.924C171.673 99.412 172.049 99.016 172.529 98.736C173.017 98.456 173.573 98.316 174.197 98.316C175.005 98.316 175.669 98.512 176.189 98.904C176.717 99.296 177.065 99.84 177.233 100.536H176.057C175.945 100.136 175.725 99.82 175.397 99.588C175.077 99.356 174.677 99.24 174.197 99.24C173.573 99.24 173.069 99.456 172.685 99.888C172.301 100.312 172.109 100.916 172.109 101.7C172.109 102.492 172.301 103.104 172.685 103.536C173.069 103.968 173.573 104.184 174.197 104.184C174.677 104.184 175.077 104.072 175.397 103.848C175.717 103.624 175.937 103.304 176.057 102.888H177.233C177.057 103.56 176.705 104.1 176.177 104.508C175.649 104.908 174.989 105.108 174.197 105.108C173.573 105.108 173.017 104.968 172.529 104.688C172.049 104.408 171.673 104.012 171.401 103.5C171.129 102.988 170.993 102.388 170.993 101.7ZM181.954 98.304C182.45 98.304 182.898 98.412 183.298 98.628C183.698 98.836 184.01 99.152 184.234 99.576C184.466 100 184.582 100.516 184.582 101.124V105H183.502V101.28C183.502 100.624 183.338 100.124 183.01 99.78C182.682 99.428 182.234 99.252 181.666 99.252C181.09 99.252 180.63 99.432 180.286 99.792C179.95 100.152 179.782 100.676 179.782 101.364V105H178.69V96.12H179.782V99.36C179.998 99.024 180.294 98.764 180.67 98.58C181.054 98.396 181.482 98.304 181.954 98.304ZM190.897 99.324V103.2C190.897 103.52 190.965 103.748 191.101 103.884C191.237 104.012 191.473 104.076 191.809 104.076H192.613V105H191.629C191.021 105 190.565 104.86 190.261 104.58C189.957 104.3 189.805 103.84 189.805 103.2V99.324H188.953V98.424H189.805V96.768H190.897V98.424H192.613V99.324H190.897ZM197.2 98.304C197.696 98.304 198.144 98.412 198.544 98.628C198.944 98.836 199.256 99.152 199.48 99.576C199.712 100 199.828 100.516 199.828 101.124V105H198.748V101.28C198.748 100.624 198.584 100.124 198.256 99.78C197.928 99.428 197.48 99.252 196.912 99.252C196.336 99.252 195.876 99.432 195.532 99.792C195.196 100.152 195.028 100.676 195.028 101.364V105H193.936V96.12H195.028V99.36C195.244 99.024 195.54 98.764 195.916 98.58C196.3 98.396 196.728 98.304 197.2 98.304ZM207.612 101.46C207.612 101.668 207.6 101.888 207.576 102.12H202.32C202.36 102.768 202.58 103.276 202.98 103.644C203.388 104.004 203.88 104.184 204.456 104.184C204.928 104.184 205.32 104.076 205.632 103.86C205.952 103.636 206.176 103.34 206.304 102.972H207.48C207.304 103.604 206.952 104.12 206.424 104.52C205.896 104.912 205.24 105.108 204.456 105.108C203.832 105.108 203.272 104.968 202.776 104.688C202.288 104.408 201.904 104.012 201.624 103.5C201.344 102.98 201.204 102.38 201.204 101.7C201.204 101.02 201.34 100.424 201.612 99.912C201.884 99.4 202.264 99.008 202.752 98.736C203.248 98.456 203.816 98.316 204.456 98.316C205.08 98.316 205.632 98.452 206.112 98.724C206.592 98.996 206.96 99.372 207.216 99.852C207.48 100.324 207.612 100.86 207.612 101.46ZM206.484 101.232C206.484 100.816 206.392 100.46 206.208 100.164C206.024 99.86 205.772 99.632 205.452 99.48C205.14 99.32 204.792 99.24 204.408 99.24C203.856 99.24 203.384 99.416 202.992 99.768C202.608 100.12 202.388 100.608 202.332 101.232H206.484ZM213.344 99.636C213.56 99.26 213.88 98.948 214.304 98.7C214.736 98.444 215.236 98.316 215.804 98.316C216.388 98.316 216.916 98.456 217.388 98.736C217.868 99.016 218.244 99.412 218.516 99.924C218.788 100.428 218.924 101.016 218.924 101.688C218.924 102.352 218.788 102.944 218.516 103.464C218.244 103.984 217.868 104.388 217.388 104.676C216.916 104.964 216.388 105.108 215.804 105.108C215.244 105.108 214.748 104.984 214.316 104.736C213.892 104.48 213.568 104.164 213.344 103.788V108.12H212.252V98.424H213.344V99.636ZM217.808 101.688C217.808 101.192 217.708 100.76 217.508 100.392C217.308 100.024 217.036 99.744 216.692 99.552C216.356 99.36 215.984 99.264 215.576 99.264C215.176 99.264 214.804 99.364 214.46 99.564C214.124 99.756 213.852 100.04 213.644 100.416C213.444 100.784 213.344 101.212 213.344 101.7C213.344 102.196 213.444 102.632 213.644 103.008C213.852 103.376 214.124 103.66 214.46 103.86C214.804 104.052 215.176 104.148 215.576 104.148C215.984 104.148 216.356 104.052 216.692 103.86C217.036 103.66 217.308 103.376 217.508 103.008C217.708 102.632 217.808 102.192 217.808 101.688ZM221.454 99.492C221.646 99.116 221.918 98.824 222.27 98.616C222.63 98.408 223.066 98.304 223.578 98.304V99.432H223.29C222.066 99.432 221.454 100.096 221.454 101.424V105H220.362V98.424H221.454V99.492ZM227.706 105.108C227.09 105.108 226.53 104.968 226.026 104.688C225.53 104.408 225.138 104.012 224.85 103.5C224.57 102.98 224.43 102.38 224.43 101.7C224.43 101.028 224.574 100.436 224.862 99.924C225.158 99.404 225.558 99.008 226.062 98.736C226.566 98.456 227.13 98.316 227.754 98.316C228.378 98.316 228.942 98.456 229.446 98.736C229.95 99.008 230.346 99.4 230.634 99.912C230.93 100.424 231.078 101.02 231.078 101.7C231.078 102.38 230.926 102.98 230.622 103.5C230.326 104.012 229.922 104.408 229.41 104.688C228.898 104.968 228.33 105.108 227.706 105.108ZM227.706 104.148C228.098 104.148 228.466 104.056 228.81 103.872C229.154 103.688 229.43 103.412 229.638 103.044C229.854 102.676 229.962 102.228 229.962 101.7C229.962 101.172 229.858 100.724 229.65 100.356C229.442 99.988 229.17 99.716 228.834 99.54C228.498 99.356 228.134 99.264 227.742 99.264C227.342 99.264 226.974 99.356 226.638 99.54C226.31 99.716 226.046 99.988 225.846 100.356C225.646 100.724 225.546 101.172 225.546 101.7C225.546 102.236 225.642 102.688 225.834 103.056C226.034 103.424 226.298 103.7 226.626 103.884C226.954 104.06 227.314 104.148 227.706 104.148ZM233.606 99.648C233.83 99.256 234.158 98.936 234.59 98.688C235.022 98.44 235.514 98.316 236.066 98.316C236.658 98.316 237.19 98.456 237.662 98.736C238.134 99.016 238.506 99.412 238.778 99.924C239.05 100.428 239.186 101.016 239.186 101.688C239.186 102.352 239.05 102.944 238.778 103.464C238.506 103.984 238.13 104.388 237.65 104.676C237.178 104.964 236.65 105.108 236.066 105.108C235.498 105.108 234.998 104.984 234.566 104.736C234.142 104.488 233.822 104.172 233.606 103.788V105H232.514V96.12H233.606V99.648ZM238.07 101.688C238.07 101.192 237.97 100.76 237.77 100.392C237.57 100.024 237.298 99.744 236.954 99.552C236.618 99.36 236.246 99.264 235.838 99.264C235.438 99.264 235.066 99.364 234.722 99.564C234.386 99.756 234.114 100.04 233.906 100.416C233.706 100.784 233.606 101.212 233.606 101.7C233.606 102.196 233.706 102.632 233.906 103.008C234.114 103.376 234.386 103.66 234.722 103.86C235.066 104.052 235.438 104.148 235.838 104.148C236.246 104.148 236.618 104.052 236.954 103.86C237.298 103.66 237.57 103.376 237.77 103.008C237.97 102.632 238.07 102.192 238.07 101.688ZM241.715 96.12V105H240.623V96.12H241.715ZM249.576 101.46C249.576 101.668 249.564 101.888 249.54 102.12H244.284C244.324 102.768 244.544 103.276 244.944 103.644C245.352 104.004 245.844 104.184 246.42 104.184C246.892 104.184 247.284 104.076 247.596 103.86C247.916 103.636 248.14 103.34 248.268 102.972H249.444C249.268 103.604 248.916 104.12 248.388 104.52C247.86 104.912 247.204 105.108 246.42 105.108C245.796 105.108 245.236 104.968 244.74 104.688C244.252 104.408 243.868 104.012 243.588 103.5C243.308 102.98 243.168 102.38 243.168 101.7C243.168 101.02 243.304 100.424 243.576 99.912C243.848 99.4 244.228 99.008 244.716 98.736C245.212 98.456 245.78 98.316 246.42 98.316C247.044 98.316 247.596 98.452 248.076 98.724C248.556 98.996 248.924 99.372 249.18 99.852C249.444 100.324 249.576 100.86 249.576 101.46ZM248.448 101.232C248.448 100.816 248.356 100.46 248.172 100.164C247.988 99.86 247.736 99.632 247.416 99.48C247.104 99.32 246.756 99.24 246.372 99.24C245.82 99.24 245.348 99.416 244.956 99.768C244.572 100.12 244.352 100.608 244.296 101.232H248.448ZM258.926 98.304C259.438 98.304 259.894 98.412 260.294 98.628C260.694 98.836 261.01 99.152 261.242 99.576C261.474 100 261.59 100.516 261.59 101.124V105H260.51V101.28C260.51 100.624 260.346 100.124 260.018 99.78C259.698 99.428 259.262 99.252 258.71 99.252C258.142 99.252 257.69 99.436 257.354 99.804C257.018 100.164 256.85 100.688 256.85 101.376V105H255.77V101.28C255.77 100.624 255.606 100.124 255.278 99.78C254.958 99.428 254.522 99.252 253.97 99.252C253.402 99.252 252.95 99.436 252.614 99.804C252.278 100.164 252.11 100.688 252.11 101.376V105H251.018V98.424H252.11V99.372C252.326 99.028 252.614 98.764 252.974 98.58C253.342 98.396 253.746 98.304 254.186 98.304C254.738 98.304 255.226 98.428 255.65 98.676C256.074 98.924 256.39 99.288 256.598 99.768C256.782 99.304 257.086 98.944 257.51 98.688C257.934 98.432 258.406 98.304 258.926 98.304ZM267.144 97.356C266.936 97.356 266.76 97.284 266.616 97.14C266.472 96.996 266.4 96.82 266.4 96.612C266.4 96.404 266.472 96.228 266.616 96.084C266.76 95.94 266.936 95.868 267.144 95.868C267.344 95.868 267.512 95.94 267.648 96.084C267.792 96.228 267.864 96.404 267.864 96.612C267.864 96.82 267.792 96.996 267.648 97.14C267.512 97.284 267.344 97.356 267.144 97.356ZM267.672 98.424V105H266.58V98.424H267.672ZM272.737 98.304C273.537 98.304 274.185 98.548 274.681 99.036C275.177 99.516 275.425 100.212 275.425 101.124V105H274.345V101.28C274.345 100.624 274.181 100.124 273.853 99.78C273.525 99.428 273.077 99.252 272.509 99.252C271.933 99.252 271.473 99.432 271.129 99.792C270.793 100.152 270.625 100.676 270.625 101.364V105H269.533V98.424H270.625V99.36C270.841 99.024 271.133 98.764 271.501 98.58C271.877 98.396 272.289 98.304 272.737 98.304ZM280 101.688C280 101.016 280.136 100.428 280.408 99.924C280.68 99.412 281.052 99.016 281.524 98.736C282.004 98.456 282.536 98.316 283.12 98.316C283.696 98.316 284.196 98.44 284.62 98.688C285.044 98.936 285.36 99.248 285.568 99.624V98.424H286.672V105H285.568V103.776C285.352 104.16 285.028 104.48 284.596 104.736C284.172 104.984 283.676 105.108 283.108 105.108C282.524 105.108 281.996 104.964 281.524 104.676C281.052 104.388 280.68 103.984 280.408 103.464C280.136 102.944 280 102.352 280 101.688ZM285.568 101.7C285.568 101.204 285.468 100.772 285.268 100.404C285.068 100.036 284.796 99.756 284.452 99.564C284.116 99.364 283.744 99.264 283.336 99.264C282.928 99.264 282.556 99.36 282.22 99.552C281.884 99.744 281.616 100.024 281.416 100.392C281.216 100.76 281.116 101.192 281.116 101.688C281.116 102.192 281.216 102.632 281.416 103.008C281.616 103.376 281.884 103.66 282.22 103.86C282.556 104.052 282.928 104.148 283.336 104.148C283.744 104.148 284.116 104.052 284.452 103.86C284.796 103.66 285.068 103.376 285.268 103.008C285.468 102.632 285.568 102.196 285.568 101.7ZM296.426 98.304C296.938 98.304 297.394 98.412 297.794 98.628C298.194 98.836 298.51 99.152 298.742 99.576C298.974 100 299.09 100.516 299.09 101.124V105H298.01V101.28C298.01 100.624 297.846 100.124 297.518 99.78C297.198 99.428 296.762 99.252 296.21 99.252C295.642 99.252 295.19 99.436 294.854 99.804C294.518 100.164 294.35 100.688 294.35 101.376V105H293.27V101.28C293.27 100.624 293.106 100.124 292.778 99.78C292.458 99.428 292.022 99.252 291.47 99.252C290.902 99.252 290.45 99.436 290.114 99.804C289.778 100.164 289.61 100.688 289.61 101.376V105H288.518V98.424H289.61V99.372C289.826 99.028 290.114 98.764 290.474 98.58C290.842 98.396 291.246 98.304 291.686 98.304C292.238 98.304 292.726 98.428 293.15 98.676C293.574 98.924 293.89 99.288 294.098 99.768C294.282 99.304 294.586 98.944 295.01 98.688C295.434 98.432 295.906 98.304 296.426 98.304ZM303.749 105.108C303.133 105.108 302.573 104.968 302.069 104.688C301.573 104.408 301.181 104.012 300.893 103.5C300.613 102.98 300.473 102.38 300.473 101.7C300.473 101.028 300.617 100.436 300.905 99.924C301.201 99.404 301.601 99.008 302.105 98.736C302.609 98.456 303.173 98.316 303.797 98.316C304.421 98.316 304.985 98.456 305.489 98.736C305.993 99.008 306.389 99.4 306.677 99.912C306.973 100.424 307.121 101.02 307.121 101.7C307.121 102.38 306.969 102.98 306.665 103.5C306.369 104.012 305.965 104.408 305.453 104.688C304.941 104.968 304.373 105.108 303.749 105.108ZM303.749 104.148C304.141 104.148 304.509 104.056 304.853 103.872C305.197 103.688 305.473 103.412 305.681 103.044C305.897 102.676 306.005 102.228 306.005 101.7C306.005 101.172 305.901 100.724 305.693 100.356C305.485 99.988 305.213 99.716 304.877 99.54C304.541 99.356 304.177 99.264 303.785 99.264C303.385 99.264 303.017 99.356 302.681 99.54C302.353 99.716 302.089 99.988 301.889 100.356C301.689 100.724 301.589 101.172 301.589 101.7C301.589 102.236 301.685 102.688 301.877 103.056C302.077 103.424 302.341 103.7 302.669 103.884C302.997 104.06 303.357 104.148 303.749 104.148ZM309.649 99.492C309.841 99.116 310.113 98.824 310.465 98.616C310.825 98.408 311.261 98.304 311.773 98.304V99.432H311.485C310.261 99.432 309.649 100.096 309.649 101.424V105H308.557V98.424H309.649V99.492ZM319.033 101.46C319.033 101.668 319.021 101.888 318.997 102.12H313.741C313.781 102.768 314.001 103.276 314.401 103.644C314.809 104.004 315.301 104.184 315.877 104.184C316.349 104.184 316.741 104.076 317.053 103.86C317.373 103.636 317.597 103.34 317.725 102.972H318.901C318.725 103.604 318.373 104.12 317.845 104.52C317.317 104.912 316.661 105.108 315.877 105.108C315.253 105.108 314.693 104.968 314.197 104.688C313.709 104.408 313.325 104.012 313.045 103.5C312.765 102.98 312.625 102.38 312.625 101.7C312.625 101.02 312.761 100.424 313.033 99.912C313.305 99.4 313.685 99.008 314.173 98.736C314.669 98.456 315.237 98.316 315.877 98.316C316.501 98.316 317.053 98.452 317.533 98.724C318.013 98.996 318.381 99.372 318.637 99.852C318.901 100.324 319.033 100.86 319.033 101.46ZM317.905 101.232C317.905 100.816 317.813 100.46 317.629 100.164C317.445 99.86 317.193 99.632 316.873 99.48C316.561 99.32 316.213 99.24 315.829 99.24C315.277 99.24 314.805 99.416 314.413 99.768C314.029 100.12 313.809 100.608 313.753 101.232H317.905ZM25.516 117.636C25.732 117.26 26.052 116.948 26.476 116.7C26.908 116.444 27.408 116.316 27.976 116.316C28.56 116.316 29.088 116.456 29.56 116.736C30.04 117.016 30.416 117.412 30.688 117.924C30.96 118.428 31.096 119.016 31.096 119.688C31.096 120.352 30.96 120.944 30.688 121.464C30.416 121.984 30.04 122.388 29.56 122.676C29.088 122.964 28.56 123.108 27.976 123.108C27.416 123.108 26.92 122.984 26.488 122.736C26.064 122.48 25.74 122.164 25.516 121.788V126.12H24.424V116.424H25.516V117.636ZM29.98 119.688C29.98 119.192 29.88 118.76 29.68 118.392C29.48 118.024 29.208 117.744 28.864 117.552C28.528 117.36 28.156 117.264 27.748 117.264C27.348 117.264 26.976 117.364 26.632 117.564C26.296 117.756 26.024 118.04 25.816 118.416C25.616 118.784 25.516 119.212 25.516 119.7C25.516 120.196 25.616 120.632 25.816 121.008C26.024 121.376 26.296 121.66 26.632 121.86C26.976 122.052 27.348 122.148 27.748 122.148C28.156 122.148 28.528 122.052 28.864 121.86C29.208 121.66 29.48 121.376 29.68 121.008C29.88 120.632 29.98 120.192 29.98 119.688ZM33.6254 117.492C33.8174 117.116 34.0894 116.824 34.4414 116.616C34.8014 116.408 35.2374 116.304 35.7494 116.304V117.432H35.4614C34.2374 117.432 33.6254 118.096 33.6254 119.424V123H32.5334V116.424H33.6254V117.492ZM39.8779 123.108C39.2619 123.108 38.7019 122.968 38.1979 122.688C37.7019 122.408 37.3099 122.012 37.0219 121.5C36.7419 120.98 36.6019 120.38 36.6019 119.7C36.6019 119.028 36.7459 118.436 37.0339 117.924C37.3299 117.404 37.7299 117.008 38.2339 116.736C38.7379 116.456 39.3019 116.316 39.9259 116.316C40.5499 116.316 41.1139 116.456 41.6179 116.736C42.1219 117.008 42.5179 117.4 42.8059 117.912C43.1019 118.424 43.2499 119.02 43.2499 119.7C43.2499 120.38 43.0979 120.98 42.7939 121.5C42.4979 122.012 42.0939 122.408 41.5819 122.688C41.0699 122.968 40.5019 123.108 39.8779 123.108ZM39.8779 122.148C40.2699 122.148 40.6379 122.056 40.9819 121.872C41.3259 121.688 41.6019 121.412 41.8099 121.044C42.0259 120.676 42.1339 120.228 42.1339 119.7C42.1339 119.172 42.0299 118.724 41.8219 118.356C41.6139 117.988 41.3419 117.716 41.0059 117.54C40.6699 117.356 40.3059 117.264 39.9139 117.264C39.5139 117.264 39.1459 117.356 38.8099 117.54C38.4819 117.716 38.2179 117.988 38.0179 118.356C37.8179 118.724 37.7179 119.172 37.7179 119.7C37.7179 120.236 37.8139 120.688 38.0059 121.056C38.2059 121.424 38.4699 121.7 38.7979 121.884C39.1259 122.06 39.4859 122.148 39.8779 122.148ZM44.2777 119.688C44.2777 119.016 44.4137 118.428 44.6857 117.924C44.9577 117.412 45.3297 117.016 45.8017 116.736C46.2817 116.456 46.8177 116.316 47.4097 116.316C47.9217 116.316 48.3977 116.436 48.8377 116.676C49.2777 116.908 49.6137 117.216 49.8457 117.6V114.12H50.9497V123H49.8457V121.764C49.6297 122.156 49.3097 122.48 48.8857 122.736C48.4617 122.984 47.9657 123.108 47.3977 123.108C46.8137 123.108 46.2817 122.964 45.8017 122.676C45.3297 122.388 44.9577 121.984 44.6857 121.464C44.4137 120.944 44.2777 120.352 44.2777 119.688ZM49.8457 119.7C49.8457 119.204 49.7457 118.772 49.5457 118.404C49.3457 118.036 49.0737 117.756 48.7297 117.564C48.3937 117.364 48.0217 117.264 47.6137 117.264C47.2057 117.264 46.8337 117.36 46.4977 117.552C46.1617 117.744 45.8937 118.024 45.6937 118.392C45.4937 118.76 45.3937 119.192 45.3937 119.688C45.3937 120.192 45.4937 120.632 45.6937 121.008C45.8937 121.376 46.1617 121.66 46.4977 121.86C46.8337 122.052 47.2057 122.148 47.6137 122.148C48.0217 122.148 48.3937 122.052 48.7297 121.86C49.0737 121.66 49.3457 121.376 49.5457 121.008C49.7457 120.632 49.8457 120.196 49.8457 119.7ZM58.6271 116.424V123H57.5351V122.028C57.3271 122.364 57.0351 122.628 56.6591 122.82C56.2911 123.004 55.8831 123.096 55.4351 123.096C54.9231 123.096 54.4631 122.992 54.0551 122.784C53.6471 122.568 53.3231 122.248 53.0831 121.824C52.8511 121.4 52.7351 120.884 52.7351 120.276V116.424H53.8151V120.132C53.8151 120.78 53.9791 121.28 54.3071 121.632C54.6351 121.976 55.0831 122.148 55.6511 122.148C56.2351 122.148 56.6951 121.968 57.0311 121.608C57.3671 121.248 57.5351 120.724 57.5351 120.036V116.424H58.6271ZM60.0629 119.7C60.0629 119.02 60.1989 118.428 60.4709 117.924C60.7429 117.412 61.1189 117.016 61.5989 116.736C62.0869 116.456 62.6429 116.316 63.2669 116.316C64.0749 116.316 64.7389 116.512 65.2589 116.904C65.7869 117.296 66.1349 117.84 66.3029 118.536H65.1269C65.0149 118.136 64.7949 117.82 64.4669 117.588C64.1469 117.356 63.7469 117.24 63.2669 117.24C62.6429 117.24 62.1389 117.456 61.7549 117.888C61.3709 118.312 61.1789 118.916 61.1789 119.7C61.1789 120.492 61.3709 121.104 61.7549 121.536C62.1389 121.968 62.6429 122.184 63.2669 122.184C63.7469 122.184 64.1469 122.072 64.4669 121.848C64.7869 121.624 65.0069 121.304 65.1269 120.888H66.3029C66.1269 121.56 65.7749 122.1 65.2469 122.508C64.7189 122.908 64.0589 123.108 63.2669 123.108C62.6429 123.108 62.0869 122.968 61.5989 122.688C61.1189 122.408 60.7429 122.012 60.4709 121.5C60.1989 120.988 60.0629 120.388 60.0629 119.7ZM69.0919 117.324V121.2C69.0919 121.52 69.1599 121.748 69.2959 121.884C69.4319 122.012 69.6679 122.076 70.0039 122.076H70.8079V123H69.8239C69.2159 123 68.7599 122.86 68.4559 122.58C68.1519 122.3 67.9999 121.84 67.9999 121.2V117.324H67.1479V116.424H67.9999V114.768H69.0919V116.424H70.8079V117.324H69.0919ZM72.695 115.356C72.487 115.356 72.311 115.284 72.167 115.14C72.023 114.996 71.951 114.82 71.951 114.612C71.951 114.404 72.023 114.228 72.167 114.084C72.311 113.94 72.487 113.868 72.695 113.868C72.895 113.868 73.063 113.94 73.199 114.084C73.343 114.228 73.415 114.404 73.415 114.612C73.415 114.82 73.343 114.996 73.199 115.14C73.063 115.284 72.895 115.356 72.695 115.356ZM73.223 116.424V123H72.131V116.424H73.223ZM77.5322 121.992L79.5722 116.424H80.7362L78.1562 123H76.8842L74.3042 116.424H75.4802L77.5322 121.992ZM87.8107 119.46C87.8107 119.668 87.7987 119.888 87.7747 120.12H82.5187C82.5587 120.768 82.7787 121.276 83.1787 121.644C83.5867 122.004 84.0787 122.184 84.6547 122.184C85.1267 122.184 85.5187 122.076 85.8307 121.86C86.1507 121.636 86.3747 121.34 86.5027 120.972H87.6787C87.5027 121.604 87.1507 122.12 86.6227 122.52C86.0947 122.912 85.4387 123.108 84.6547 123.108C84.0307 123.108 83.4707 122.968 82.9747 122.688C82.4867 122.408 82.1027 122.012 81.8227 121.5C81.5427 120.98 81.4027 120.38 81.4027 119.7C81.4027 119.02 81.5387 118.424 81.8107 117.912C82.0827 117.4 82.4627 117.008 82.9507 116.736C83.4467 116.456 84.0147 116.316 84.6547 116.316C85.2787 116.316 85.8307 116.452 86.3107 116.724C86.7907 116.996 87.1587 117.372 87.4147 117.852C87.6787 118.324 87.8107 118.86 87.8107 119.46ZM86.6827 119.232C86.6827 118.816 86.5907 118.46 86.4067 118.164C86.2227 117.86 85.9707 117.632 85.6507 117.48C85.3387 117.32 84.9907 117.24 84.6067 117.24C84.0547 117.24 83.5827 117.416 83.1907 117.768C82.8067 118.12 82.5867 118.608 82.5307 119.232H86.6827ZM101.211 116.424L99.1593 123H98.0313L96.4473 117.78L94.8633 123H93.7353L91.6713 116.424H92.7873L94.2993 121.944L95.9313 116.424H97.0473L98.6433 121.956L100.131 116.424H101.211ZM101.887 119.688C101.887 119.016 102.023 118.428 102.295 117.924C102.567 117.412 102.939 117.016 103.411 116.736C103.891 116.456 104.423 116.316 105.007 116.316C105.583 116.316 106.083 116.44 106.507 116.688C106.931 116.936 107.247 117.248 107.455 117.624V116.424H108.559V123H107.455V121.776C107.239 122.16 106.915 122.48 106.483 122.736C106.059 122.984 105.563 123.108 104.995 123.108C104.411 123.108 103.883 122.964 103.411 122.676C102.939 122.388 102.567 121.984 102.295 121.464C102.023 120.944 101.887 120.352 101.887 119.688ZM107.455 119.7C107.455 119.204 107.355 118.772 107.155 118.404C106.955 118.036 106.683 117.756 106.339 117.564C106.003 117.364 105.631 117.264 105.223 117.264C104.815 117.264 104.443 117.36 104.107 117.552C103.771 117.744 103.503 118.024 103.303 118.392C103.103 118.76 103.003 119.192 103.003 119.688C103.003 120.192 103.103 120.632 103.303 121.008C103.503 121.376 103.771 121.66 104.107 121.86C104.443 122.052 104.815 122.148 105.223 122.148C105.631 122.148 106.003 122.052 106.339 121.86C106.683 121.66 106.955 121.376 107.155 121.008C107.355 120.632 107.455 120.196 107.455 119.7ZM116.068 116.424L112.108 126.096H110.98L112.276 122.928L109.624 116.424H110.836L112.9 121.752L114.94 116.424H116.068ZM118.582 114.636L118.45 120.636H117.538L117.406 114.636H118.582ZM118.042 123.072C117.834 123.072 117.658 123 117.514 122.856C117.37 122.712 117.298 122.536 117.298 122.328C117.298 122.12 117.37 121.944 117.514 121.8C117.658 121.656 117.834 121.584 118.042 121.584C118.242 121.584 118.41 121.656 118.546 121.8C118.69 121.944 118.762 122.12 118.762 122.328C118.762 122.536 118.69 122.712 118.546 122.856C118.41 123 118.242 123.072 118.042 123.072Z" fill="#575757" fill-opacity="0.8"/>
<path d="M24.016 164.812C24.016 163.996 24.2 163.264 24.568 162.616C24.936 161.96 25.436 161.448 26.068 161.08C26.708 160.712 27.416 160.528 28.192 160.528C29.104 160.528 29.9 160.748 30.58 161.188C31.26 161.628 31.756 162.252 32.068 163.06H30.76C30.528 162.556 30.192 162.168 29.752 161.896C29.32 161.624 28.8 161.488 28.192 161.488C27.608 161.488 27.084 161.624 26.62 161.896C26.156 162.168 25.792 162.556 25.528 163.06C25.264 163.556 25.132 164.14 25.132 164.812C25.132 165.476 25.264 166.06 25.528 166.564C25.792 167.06 26.156 167.444 26.62 167.716C27.084 167.988 27.608 168.124 28.192 168.124C28.8 168.124 29.32 167.992 29.752 167.728C30.192 167.456 30.528 167.068 30.76 166.564H32.068C31.756 167.364 31.26 167.984 30.58 168.424C29.9 168.856 29.104 169.072 28.192 169.072C27.416 169.072 26.708 168.892 26.068 168.532C25.436 168.164 24.936 167.656 24.568 167.008C24.2 166.36 24.016 165.628 24.016 164.812ZM34.7855 160.12V169H33.6935V160.12H34.7855ZM37.2107 161.356C37.0027 161.356 36.8267 161.284 36.6827 161.14C36.5387 160.996 36.4667 160.82 36.4667 160.612C36.4667 160.404 36.5387 160.228 36.6827 160.084C36.8267 159.94 37.0027 159.868 37.2107 159.868C37.4107 159.868 37.5787 159.94 37.7147 160.084C37.8587 160.228 37.9307 160.404 37.9307 160.612C37.9307 160.82 37.8587 160.996 37.7147 161.14C37.5787 161.284 37.4107 161.356 37.2107 161.356ZM37.7387 162.424V169H36.6467V162.424H37.7387ZM39.1918 165.7C39.1918 165.02 39.3278 164.428 39.5998 163.924C39.8718 163.412 40.2478 163.016 40.7278 162.736C41.2158 162.456 41.7718 162.316 42.3958 162.316C43.2038 162.316 43.8678 162.512 44.3878 162.904C44.9158 163.296 45.2638 163.84 45.4318 164.536H44.2558C44.1438 164.136 43.9238 163.82 43.5958 163.588C43.2758 163.356 42.8758 163.24 42.3958 163.24C41.7718 163.24 41.2678 163.456 40.8838 163.888C40.4998 164.312 40.3078 164.916 40.3078 165.7C40.3078 166.492 40.4998 167.104 40.8838 167.536C41.2678 167.968 41.7718 168.184 42.3958 168.184C42.8758 168.184 43.2758 168.072 43.5958 167.848C43.9158 167.624 44.1358 167.304 44.2558 166.888H45.4318C45.2558 167.56 44.9038 168.1 44.3758 168.508C43.8478 168.908 43.1878 169.108 42.3958 169.108C41.7718 169.108 41.2158 168.968 40.7278 168.688C40.2478 168.408 39.8718 168.012 39.5998 167.5C39.3278 166.988 39.1918 166.388 39.1918 165.7ZM50.5608 169L47.9808 166.096V169H46.8888V160.12H47.9808V165.34L50.5128 162.424H52.0368L48.9408 165.7L52.0488 169H50.5608ZM57.5958 163.324V167.2C57.5958 167.52 57.6638 167.748 57.7998 167.884C57.9358 168.012 58.1718 168.076 58.5078 168.076H59.3118V169H58.3278C57.7198 169 57.2638 168.86 56.9598 168.58C56.6558 168.3 56.5038 167.84 56.5038 167.2V163.324H55.6518V162.424H56.5038V160.768H57.5958V162.424H59.3118V163.324H57.5958ZM63.5029 169.108C62.8869 169.108 62.3269 168.968 61.8229 168.688C61.3269 168.408 60.9349 168.012 60.6469 167.5C60.3669 166.98 60.2269 166.38 60.2269 165.7C60.2269 165.028 60.3709 164.436 60.6589 163.924C60.9549 163.404 61.3549 163.008 61.8589 162.736C62.3629 162.456 62.9269 162.316 63.5509 162.316C64.1749 162.316 64.7389 162.456 65.2429 162.736C65.7469 163.008 66.1429 163.4 66.4309 163.912C66.7269 164.424 66.8749 165.02 66.8749 165.7C66.8749 166.38 66.7229 166.98 66.4189 167.5C66.1229 168.012 65.7189 168.408 65.2069 168.688C64.6949 168.968 64.1269 169.108 63.5029 169.108ZM63.5029 168.148C63.8949 168.148 64.2629 168.056 64.6069 167.872C64.9509 167.688 65.2269 167.412 65.4349 167.044C65.6509 166.676 65.7589 166.228 65.7589 165.7C65.7589 165.172 65.6549 164.724 65.4469 164.356C65.2389 163.988 64.9669 163.716 64.6309 163.54C64.2949 163.356 63.9309 163.264 63.5389 163.264C63.1389 163.264 62.7709 163.356 62.4349 163.54C62.1069 163.716 61.8429 163.988 61.6429 164.356C61.4429 164.724 61.3429 165.172 61.3429 165.7C61.3429 166.236 61.4389 166.688 61.6309 167.056C61.8309 167.424 62.0949 167.7 62.4229 167.884C62.7509 168.06 63.1109 168.148 63.5029 168.148ZM72.8419 163.324V167.2C72.8419 167.52 72.9099 167.748 73.0459 167.884C73.1819 168.012 73.4179 168.076 73.7539 168.076H74.5579V169H73.5739C72.9659 169 72.5099 168.86 72.2059 168.58C71.9019 168.3 71.7499 167.84 71.7499 167.2V163.324H70.8979V162.424H71.7499V160.768H72.8419V162.424H74.5579V163.324H72.8419ZM81.545 162.424L77.585 172.096H76.457L77.753 168.928L75.101 162.424H76.313L78.377 167.752L80.417 162.424H81.545ZM83.7348 163.636C83.9508 163.26 84.2708 162.948 84.6948 162.7C85.1268 162.444 85.6268 162.316 86.1948 162.316C86.7788 162.316 87.3068 162.456 87.7787 162.736C88.2587 163.016 88.6348 163.412 88.9068 163.924C89.1788 164.428 89.3148 165.016 89.3148 165.688C89.3148 166.352 89.1788 166.944 88.9068 167.464C88.6348 167.984 88.2587 168.388 87.7787 168.676C87.3068 168.964 86.7788 169.108 86.1948 169.108C85.6348 169.108 85.1388 168.984 84.7068 168.736C84.2828 168.48 83.9588 168.164 83.7348 167.788V172.12H82.6428V162.424H83.7348V163.636ZM88.1988 165.688C88.1988 165.192 88.0988 164.76 87.8988 164.392C87.6988 164.024 87.4268 163.744 87.0828 163.552C86.7468 163.36 86.3748 163.264 85.9668 163.264C85.5668 163.264 85.1948 163.364 84.8508 163.564C84.5148 163.756 84.2428 164.04 84.0348 164.416C83.8348 164.784 83.7348 165.212 83.7348 165.7C83.7348 166.196 83.8348 166.632 84.0348 167.008C84.2428 167.376 84.5148 167.66 84.8508 167.86C85.1948 168.052 85.5668 168.148 85.9668 168.148C86.3748 168.148 86.7468 168.052 87.0828 167.86C87.4268 167.66 87.6988 167.376 87.8988 167.008C88.0988 166.632 88.1988 166.192 88.1988 165.688ZM96.7521 165.46C96.7521 165.668 96.7401 165.888 96.7161 166.12H91.4601C91.5001 166.768 91.7201 167.276 92.1201 167.644C92.5281 168.004 93.0201 168.184 93.5961 168.184C94.0681 168.184 94.4601 168.076 94.7721 167.86C95.0921 167.636 95.3161 167.34 95.4441 166.972H96.6201C96.4441 167.604 96.0921 168.12 95.5641 168.52C95.0361 168.912 94.3801 169.108 93.5961 169.108C92.9721 169.108 92.4121 168.968 91.9161 168.688C91.4281 168.408 91.0441 168.012 90.7641 167.5C90.4841 166.98 90.3441 166.38 90.3441 165.7C90.3441 165.02 90.4801 164.424 90.7521 163.912C91.0241 163.4 91.4041 163.008 91.8921 162.736C92.3881 162.456 92.9561 162.316 93.5961 162.316C94.2201 162.316 94.7721 162.452 95.2521 162.724C95.7321 162.996 96.1001 163.372 96.3561 163.852C96.6201 164.324 96.7521 164.86 96.7521 165.46ZM95.6241 165.232C95.6241 164.816 95.5321 164.46 95.3481 164.164C95.1641 163.86 94.9121 163.632 94.5921 163.48C94.2801 163.32 93.9321 163.24 93.5481 163.24C92.9961 163.24 92.5241 163.416 92.1321 163.768C91.7481 164.12 91.5281 164.608 91.4721 165.232H95.6241Z" fill="#575757" fill-opacity="0.8"/>
<rect x="5.5" y="306" width="379" height="37" rx="4" fill="#262626"/>
<path d="M173.864 331.126C173.036 331.126 172.292 330.982 171.632 330.694C170.984 330.394 170.474 329.986 170.102 329.47C169.73 328.942 169.538 328.336 169.526 327.652H171.272C171.332 328.24 171.572 328.738 171.992 329.146C172.424 329.542 173.048 329.74 173.864 329.74C174.644 329.74 175.256 329.548 175.7 329.164C176.156 328.768 176.384 328.264 176.384 327.652C176.384 327.172 176.252 326.782 175.988 326.482C175.724 326.182 175.394 325.954 174.998 325.798C174.602 325.642 174.068 325.474 173.396 325.294C172.568 325.078 171.902 324.862 171.398 324.646C170.906 324.43 170.48 324.094 170.12 323.638C169.772 323.17 169.598 322.546 169.598 321.766C169.598 321.082 169.772 320.476 170.12 319.948C170.468 319.42 170.954 319.012 171.578 318.724C172.214 318.436 172.94 318.292 173.756 318.292C174.932 318.292 175.892 318.586 176.636 319.174C177.392 319.762 177.818 320.542 177.914 321.514H176.114C176.054 321.034 175.802 320.614 175.358 320.254C174.914 319.882 174.326 319.696 173.594 319.696C172.91 319.696 172.352 319.876 171.92 320.236C171.488 320.584 171.272 321.076 171.272 321.712C171.272 322.168 171.398 322.54 171.65 322.828C171.914 323.116 172.232 323.338 172.604 323.494C172.988 323.638 173.522 323.806 174.206 323.998C175.034 324.226 175.7 324.454 176.204 324.682C176.708 324.898 177.14 325.24 177.5 325.708C177.86 326.164 178.04 326.788 178.04 327.58C178.04 328.192 177.878 328.768 177.554 329.308C177.23 329.848 176.75 330.286 176.114 330.622C175.478 330.958 174.728 331.126 173.864 331.126ZM179.838 326.032C179.838 325.024 180.042 324.142 180.45 323.386C180.858 322.618 181.416 322.024 182.124 321.604C182.844 321.184 183.642 320.974 184.518 320.974C185.382 320.974 186.132 321.16 186.768 321.532C187.404 321.904 187.878 322.372 188.19 322.936V321.136H189.846V331H188.19V329.164C187.866 329.74 187.38 330.22 186.732 330.604C186.096 330.976 185.352 331.162 184.5 331.162C183.624 331.162 182.832 330.946 182.124 330.514C181.416 330.082 180.858 329.476 180.45 328.696C180.042 327.916 179.838 327.028 179.838 326.032ZM188.19 326.05C188.19 325.306 188.04 324.658 187.74 324.106C187.44 323.554 187.032 323.134 186.516 322.846C186.012 322.546 185.454 322.396 184.842 322.396C184.23 322.396 183.672 322.54 183.168 322.828C182.664 323.116 182.262 323.536 181.962 324.088C181.662 324.64 181.512 325.288 181.512 326.032C181.512 326.788 181.662 327.448 181.962 328.012C182.262 328.564 182.664 328.99 183.168 329.29C183.672 329.578 184.23 329.722 184.842 329.722C185.454 329.722 186.012 329.578 186.516 329.29C187.032 328.99 187.44 328.564 187.74 328.012C188.04 327.448 188.19 326.794 188.19 326.05ZM196.287 329.488L199.347 321.136H201.093L197.223 331H195.315L191.445 321.136H193.209L196.287 329.488ZM211.704 325.69C211.704 326.002 211.686 326.332 211.65 326.68H203.766C203.826 327.652 204.156 328.414 204.756 328.966C205.368 329.506 206.106 329.776 206.97 329.776C207.678 329.776 208.266 329.614 208.734 329.29C209.214 328.954 209.55 328.51 209.742 327.958H211.506C211.242 328.906 210.714 329.68 209.922 330.28C209.13 330.868 208.146 331.162 206.97 331.162C206.034 331.162 205.194 330.952 204.45 330.532C203.718 330.112 203.142 329.518 202.722 328.75C202.302 327.97 202.092 327.07 202.092 326.05C202.092 325.03 202.296 324.136 202.704 323.368C203.112 322.6 203.682 322.012 204.414 321.604C205.158 321.184 206.01 320.974 206.97 320.974C207.906 320.974 208.734 321.178 209.454 321.586C210.174 321.994 210.726 322.558 211.11 323.278C211.506 323.986 211.704 324.79 211.704 325.69ZM210.012 325.348C210.012 324.724 209.874 324.19 209.598 323.746C209.322 323.29 208.944 322.948 208.464 322.72C207.996 322.48 207.474 322.36 206.898 322.36C206.07 322.36 205.362 322.624 204.774 323.152C204.198 323.68 203.868 324.412 203.784 325.348H210.012Z" fill="white"/>
<defs>
<filter id="filter0_d" x="0.5" y="0" width="387" height="351" filterUnits="userSpaceOnUse" color-interpolation-filters="sRGB">
<feFlood flood-opacity="0" result="BackgroundImageFix"/>
<feColorMatrix in="SourceAlpha" type="matrix" values="0 0 0 0 0 0 0 0 0 0 0 0 0 0 0 0 0 0 127 0"/>
<feOffset dy="4"/>
<feGaussianBlur stdDeviation="2"/>
<feColorMatrix type="matrix" values="0 0 0 0 0 0 0 0 0 0 0 0 0 0 0 0 0 0 0.25 0"/>
<feBlend mode="normal" in2="BackgroundImageFix" result="effect1_dropShadow"/>
<feBlend mode="normal" in="SourceGraphic" in2="effect1_dropShadow" result="shape"/>
</filter>
</defs>
</svg>
