<svg width="388" height="351" viewBox="0 0 388 351" fill="none" xmlns="http://www.w3.org/2000/svg">
<g filter="url(#filter0_d)">
<rect x="4.56458" width="379" height="343" rx="6" fill="white"/>
<rect x="5.06458" y="0.5" width="378" height="342" rx="5.5" stroke="black" stroke-opacity="0.34"/>
</g>
<rect x="4.56458" y="306" width="379" height="37" rx="4" fill="#262626"/>
<path d="M172.929 331.126C172.101 331.126 171.357 330.982 170.697 330.694C170.049 330.394 169.539 329.986 169.167 329.47C168.795 328.942 168.603 328.336 168.591 327.652H170.337C170.397 328.24 170.637 328.738 171.057 329.146C171.489 329.542 172.113 329.74 172.929 329.74C173.709 329.74 174.321 329.548 174.765 329.164C175.221 328.768 175.449 328.264 175.449 327.652C175.449 327.172 175.317 326.782 175.053 326.482C174.789 326.182 174.459 325.954 174.063 325.798C173.667 325.642 173.133 325.474 172.461 325.294C171.633 325.078 170.967 324.862 170.463 324.646C169.971 324.43 169.545 324.094 169.185 323.638C168.837 323.17 168.663 322.546 168.663 321.766C168.663 321.082 168.837 320.476 169.185 319.948C169.533 319.42 170.019 319.012 170.643 318.724C171.279 318.436 172.005 318.292 172.821 318.292C173.997 318.292 174.957 318.586 175.701 319.174C176.457 319.762 176.883 320.542 176.979 321.514H175.179C175.119 321.034 174.867 320.614 174.423 320.254C173.979 319.882 173.391 319.696 172.659 319.696C171.975 319.696 171.417 319.876 170.985 320.236C170.553 320.584 170.337 321.076 170.337 321.712C170.337 322.168 170.463 322.54 170.715 322.828C170.979 323.116 171.297 323.338 171.669 323.494C172.053 323.638 172.587 323.806 173.271 323.998C174.099 324.226 174.765 324.454 175.269 324.682C175.773 324.898 176.205 325.24 176.565 325.708C176.925 326.164 177.105 326.788 177.105 327.58C177.105 328.192 176.943 328.768 176.619 329.308C176.295 329.848 175.815 330.286 175.179 330.622C174.543 330.958 173.793 331.126 172.929 331.126ZM178.903 326.032C178.903 325.024 179.107 324.142 179.515 323.386C179.923 322.618 180.481 322.024 181.189 321.604C181.909 321.184 182.707 320.974 183.583 320.974C184.447 320.974 185.197 321.16 185.833 321.532C186.469 321.904 186.943 322.372 187.255 322.936V321.136H188.911V331H187.255V329.164C186.931 329.74 186.445 330.22 185.797 330.604C185.161 330.976 184.417 331.162 183.565 331.162C182.689 331.162 181.897 330.946 181.189 330.514C180.481 330.082 179.923 329.476 179.515 328.696C179.107 327.916 178.903 327.028 178.903 326.032ZM187.255 326.05C187.255 325.306 187.105 324.658 186.805 324.106C186.505 323.554 186.097 323.134 185.581 322.846C185.077 322.546 184.519 322.396 183.907 322.396C183.295 322.396 182.737 322.54 182.233 322.828C181.729 323.116 181.327 323.536 181.027 324.088C180.727 324.64 180.577 325.288 180.577 326.032C180.577 326.788 180.727 327.448 181.027 328.012C181.327 328.564 181.729 328.99 182.233 329.29C182.737 329.578 183.295 329.722 183.907 329.722C184.519 329.722 185.077 329.578 185.581 329.29C186.097 328.99 186.505 328.564 186.805 328.012C187.105 327.448 187.255 326.794 187.255 326.05ZM195.351 329.488L198.411 321.136H200.157L196.287 331H194.379L190.509 321.136H192.273L195.351 329.488ZM210.769 325.69C210.769 326.002 210.751 326.332 210.715 326.68H202.831C202.891 327.652 203.221 328.414 203.821 328.966C204.433 329.506 205.171 329.776 206.035 329.776C206.743 329.776 207.331 329.614 207.799 329.29C208.279 328.954 208.615 328.51 208.807 327.958H210.571C210.307 328.906 209.779 329.68 208.987 330.28C208.195 330.868 207.211 331.162 206.035 331.162C205.099 331.162 204.259 330.952 203.515 330.532C202.783 330.112 202.207 329.518 201.787 328.75C201.367 327.97 201.157 327.07 201.157 326.05C201.157 325.03 201.361 324.136 201.769 323.368C202.177 322.6 202.747 322.012 203.479 321.604C204.223 321.184 205.075 320.974 206.035 320.974C206.971 320.974 207.799 321.178 208.519 321.586C209.239 321.994 209.791 322.558 210.175 323.278C210.571 323.986 210.769 324.79 210.769 325.69ZM209.077 325.348C209.077 324.724 208.939 324.19 208.663 323.746C208.387 323.29 208.009 322.948 207.529 322.72C207.061 322.48 206.539 322.36 205.963 322.36C205.135 322.36 204.427 322.624 203.839 323.152C203.263 323.68 202.933 324.412 202.849 325.348H209.077Z" fill="white"/>
<path d="M25.722 36L22.95 31.104H21.762V36H19.242V23.436H23.958C24.93 23.436 25.758 23.61 26.442 23.958C27.126 24.294 27.636 24.756 27.972 25.344C28.32 25.92 28.494 26.568 28.494 27.288C28.494 28.116 28.254 28.866 27.774 29.538C27.294 30.198 26.58 30.654 25.632 30.906L28.638 36H25.722ZM21.762 29.214H23.868C24.552 29.214 25.062 29.052 25.398 28.728C25.734 28.392 25.902 27.93 25.902 27.342C25.902 26.766 25.734 26.322 25.398 26.01C25.062 25.686 24.552 25.524 23.868 25.524H21.762V29.214ZM40.0433 30.798C40.0433 31.158 40.0193 31.482 39.9713 31.77H32.6813C32.7413 32.49 32.9933 33.054 33.4373 33.462C33.8813 33.87 34.4273 34.074 35.0753 34.074C36.0113 34.074 36.6773 33.672 37.0733 32.868H39.7913C39.5033 33.828 38.9513 34.62 38.1353 35.244C37.3193 35.856 36.3173 36.162 35.1293 36.162C34.1693 36.162 33.3053 35.952 32.5373 35.532C31.7813 35.1 31.1873 34.494 30.7553 33.714C30.3353 32.934 30.1252 32.034 30.1252 31.014C30.1252 29.982 30.3353 29.076 30.7553 28.296C31.1753 27.516 31.7633 26.916 32.5193 26.496C33.2753 26.076 34.1453 25.866 35.1293 25.866C36.0773 25.866 36.9233 26.07 37.6673 26.478C38.4233 26.886 39.0053 27.468 39.4133 28.224C39.8333 28.968 40.0433 29.826 40.0433 30.798ZM37.4333 30.078C37.4213 29.43 37.1873 28.914 36.7313 28.53C36.2753 28.134 35.7173 27.936 35.0573 27.936C34.4333 27.936 33.9053 28.128 33.4733 28.512C33.0533 28.884 32.7953 29.406 32.6993 30.078H37.4333ZM46.0406 33.678L48.5606 26.028H51.2426L47.5526 36H44.4926L40.8206 26.028H43.5206L46.0406 33.678ZM53.936 24.84C53.492 24.84 53.12 24.702 52.82 24.426C52.532 24.138 52.388 23.784 52.388 23.364C52.388 22.944 52.532 22.596 52.82 22.32C53.12 22.032 53.492 21.888 53.936 21.888C54.38 21.888 54.746 22.032 55.034 22.32C55.334 22.596 55.484 22.944 55.484 23.364C55.484 23.784 55.334 24.138 55.034 24.426C54.746 24.702 54.38 24.84 53.936 24.84ZM55.178 26.028V36H52.658V26.028H55.178ZM66.9378 30.798C66.9378 31.158 66.9138 31.482 66.8658 31.77H59.5758C59.6358 32.49 59.8878 33.054 60.3318 33.462C60.7758 33.87 61.3218 34.074 61.9698 34.074C62.9058 34.074 63.5718 33.672 63.9678 32.868H66.6858C66.3978 33.828 65.8458 34.62 65.0298 35.244C64.2138 35.856 63.2118 36.162 62.0238 36.162C61.0638 36.162 60.1998 35.952 59.4318 35.532C58.6758 35.1 58.0818 34.494 57.6498 33.714C57.2298 32.934 57.0198 32.034 57.0198 31.014C57.0198 29.982 57.2298 29.076 57.6498 28.296C58.0698 27.516 58.6578 26.916 59.4138 26.496C60.1698 26.076 61.0398 25.866 62.0238 25.866C62.9718 25.866 63.8178 26.07 64.5618 26.478C65.3178 26.886 65.8998 27.468 66.3078 28.224C66.7278 28.968 66.9378 29.826 66.9378 30.798ZM64.3278 30.078C64.3158 29.43 64.0818 28.914 63.6258 28.53C63.1698 28.134 62.6118 27.936 61.9518 27.936C61.3278 27.936 60.7998 28.128 60.3678 28.512C59.9478 28.884 59.6898 29.406 59.5938 30.078H64.3278ZM82.6012 26.028L79.6852 36H76.9672L75.1492 29.034L73.3312 36H70.5952L67.6612 26.028H70.2172L71.9812 33.624L73.8892 26.028H76.5532L78.4252 33.606L80.1892 26.028H82.6012ZM97.7937 26.028L91.6197 40.716H88.9377L91.0977 35.748L87.1017 26.028H89.9277L92.5017 32.994L95.1117 26.028H97.7937ZM103.58 36.162C102.62 36.162 101.756 35.952 100.988 35.532C100.22 35.1 99.6142 34.494 99.1702 33.714C98.7382 32.934 98.5222 32.034 98.5222 31.014C98.5222 29.994 98.7442 29.094 99.1882 28.314C99.6442 27.534 100.262 26.934 101.042 26.514C101.822 26.082 102.692 25.866 103.652 25.866C104.612 25.866 105.482 26.082 106.262 26.514C107.042 26.934 107.654 27.534 108.098 28.314C108.554 29.094 108.782 29.994 108.782 31.014C108.782 32.034 108.548 32.934 108.08 33.714C107.624 34.494 107 35.1 106.208 35.532C105.428 35.952 104.552 36.162 103.58 36.162ZM103.58 33.966C104.036 33.966 104.462 33.858 104.858 33.642C105.266 33.414 105.59 33.078 105.83 32.634C106.07 32.19 106.19 31.65 106.19 31.014C106.19 30.066 105.938 29.34 105.434 28.836C104.942 28.32 104.336 28.062 103.616 28.062C102.896 28.062 102.29 28.32 101.798 28.836C101.318 29.34 101.078 30.066 101.078 31.014C101.078 31.962 101.312 32.694 101.78 33.21C102.26 33.714 102.86 33.966 103.58 33.966ZM120.045 26.028V36H117.507V34.74C117.183 35.172 116.757 35.514 116.229 35.766C115.713 36.006 115.149 36.126 114.537 36.126C113.757 36.126 113.067 35.964 112.467 35.64C111.867 35.304 111.393 34.818 111.045 34.182C110.709 33.534 110.541 32.766 110.541 31.878V26.028H113.061V31.518C113.061 32.31 113.259 32.922 113.655 33.354C114.051 33.774 114.591 33.984 115.275 33.984C115.971 33.984 116.517 33.774 116.913 33.354C117.309 32.922 117.507 32.31 117.507 31.518V26.028H120.045ZM125.051 27.576C125.375 27.048 125.795 26.634 126.311 26.334C126.839 26.034 127.439 25.884 128.111 25.884V28.53H127.445C126.653 28.53 126.053 28.716 125.645 29.088C125.249 29.46 125.051 30.108 125.051 31.032V36H122.531V26.028H125.051V27.576ZM138.003 25.866C138.747 25.866 139.401 26.016 139.965 26.316C140.529 26.604 140.973 26.982 141.297 27.45V26.028H143.835V36.072C143.835 36.996 143.649 37.818 143.277 38.538C142.905 39.27 142.347 39.846 141.603 40.266C140.859 40.698 139.959 40.914 138.903 40.914C137.487 40.914 136.323 40.584 135.411 39.924C134.511 39.264 134.001 38.364 133.881 37.224H136.383C136.515 37.68 136.797 38.04 137.229 38.304C137.673 38.58 138.207 38.718 138.831 38.718C139.563 38.718 140.157 38.496 140.613 38.052C141.069 37.62 141.297 36.96 141.297 36.072V34.524C140.973 34.992 140.523 35.382 139.947 35.694C139.383 36.006 138.735 36.162 138.003 36.162C137.163 36.162 136.395 35.946 135.699 35.514C135.003 35.082 134.451 34.476 134.043 33.696C133.647 32.904 133.449 31.998 133.449 30.978C133.449 29.97 133.647 29.076 134.043 28.296C134.451 27.516 134.997 26.916 135.681 26.496C136.377 26.076 137.151 25.866 138.003 25.866ZM141.297 31.014C141.297 30.402 141.177 29.88 140.937 29.448C140.697 29.004 140.373 28.668 139.965 28.44C139.557 28.2 139.119 28.08 138.651 28.08C138.183 28.08 137.751 28.194 137.355 28.422C136.959 28.65 136.635 28.986 136.383 29.43C136.143 29.862 136.023 30.378 136.023 30.978C136.023 31.578 136.143 32.106 136.383 32.562C136.635 33.006 136.959 33.348 137.355 33.588C137.763 33.828 138.195 33.948 138.651 33.948C139.119 33.948 139.557 33.834 139.965 33.606C140.373 33.366 140.697 33.03 140.937 32.598C141.177 32.154 141.297 31.626 141.297 31.014ZM150.725 36.162C149.765 36.162 148.901 35.952 148.133 35.532C147.365 35.1 146.759 34.494 146.315 33.714C145.883 32.934 145.667 32.034 145.667 31.014C145.667 29.994 145.889 29.094 146.333 28.314C146.789 27.534 147.407 26.934 148.187 26.514C148.967 26.082 149.837 25.866 150.797 25.866C151.757 25.866 152.627 26.082 153.407 26.514C154.187 26.934 154.799 27.534 155.243 28.314C155.699 29.094 155.927 29.994 155.927 31.014C155.927 32.034 155.693 32.934 155.225 33.714C154.769 34.494 154.145 35.1 153.353 35.532C152.573 35.952 151.697 36.162 150.725 36.162ZM150.725 33.966C151.181 33.966 151.607 33.858 152.003 33.642C152.411 33.414 152.735 33.078 152.975 32.634C153.215 32.19 153.335 31.65 153.335 31.014C153.335 30.066 153.083 29.34 152.579 28.836C152.087 28.32 151.481 28.062 150.761 28.062C150.041 28.062 149.435 28.32 148.943 28.836C148.463 29.34 148.223 30.066 148.223 31.014C148.223 31.962 148.457 32.694 148.925 33.21C149.405 33.714 150.005 33.966 150.725 33.966ZM157.127 30.978C157.127 29.97 157.325 29.076 157.721 28.296C158.129 27.516 158.675 26.916 159.359 26.496C160.055 26.076 160.829 25.866 161.681 25.866C162.425 25.866 163.073 26.016 163.625 26.316C164.189 26.616 164.639 26.994 164.975 27.45V26.028H167.513V36H164.975V34.542C164.651 35.01 164.201 35.4 163.625 35.712C163.061 36.012 162.407 36.162 161.663 36.162C160.823 36.162 160.055 35.946 159.359 35.514C158.675 35.082 158.129 34.476 157.721 33.696C157.325 32.904 157.127 31.998 157.127 30.978ZM164.975 31.014C164.975 30.402 164.855 29.88 164.615 29.448C164.375 29.004 164.051 28.668 163.643 28.44C163.235 28.2 162.797 28.08 162.329 28.08C161.861 28.08 161.429 28.194 161.033 28.422C160.637 28.65 160.313 28.986 160.061 29.43C159.821 29.862 159.701 30.378 159.701 30.978C159.701 31.578 159.821 32.106 160.061 32.562C160.313 33.006 160.637 33.348 161.033 33.588C161.441 33.828 161.873 33.948 162.329 33.948C162.797 33.948 163.235 33.834 163.643 33.606C164.051 33.366 164.375 33.03 164.615 32.598C164.855 32.154 164.975 31.626 164.975 31.014ZM172.494 22.68V36H169.974V22.68H172.494Z" fill="black"/>
<path d="M20.688 120.848V132H19.232V120.848H20.688ZM39.1151 123.232L36.3791 132H34.8751L32.7631 125.04L30.6511 132H29.1471L26.3951 123.232H27.8831L29.8991 130.592L32.0751 123.232H33.5631L35.6911 130.608L37.6751 123.232H39.1151ZM40.0161 127.584C40.0161 126.688 40.1975 125.904 40.5601 125.232C40.9228 124.549 41.4188 124.021 42.0481 123.648C42.6881 123.275 43.3975 123.088 44.1761 123.088C44.9441 123.088 45.6108 123.253 46.1761 123.584C46.7415 123.915 47.1628 124.331 47.4401 124.832V123.232H48.9121V132H47.4401V130.368C47.1521 130.88 46.7201 131.307 46.1441 131.648C45.5788 131.979 44.9175 132.144 44.1601 132.144C43.3815 132.144 42.6775 131.952 42.0481 131.568C41.4188 131.184 40.9228 130.645 40.5601 129.952C40.1975 129.259 40.0161 128.469 40.0161 127.584ZM47.4401 127.6C47.4401 126.939 47.3068 126.363 47.0401 125.872C46.7735 125.381 46.4108 125.008 45.9521 124.752C45.5041 124.485 45.0081 124.352 44.4641 124.352C43.9201 124.352 43.4241 124.48 42.9761 124.736C42.5281 124.992 42.1708 125.365 41.9041 125.856C41.6375 126.347 41.5041 126.923 41.5041 127.584C41.5041 128.256 41.6375 128.843 41.9041 129.344C42.1708 129.835 42.5281 130.213 42.9761 130.48C43.4241 130.736 43.9201 130.864 44.4641 130.864C45.0081 130.864 45.5041 130.736 45.9521 130.48C46.4108 130.213 46.7735 129.835 47.0401 129.344C47.3068 128.843 47.4401 128.261 47.4401 127.6ZM55.6446 123.072C56.7113 123.072 57.5753 123.397 58.2366 124.048C58.898 124.688 59.2286 125.616 59.2286 126.832V132H57.7886V127.04C57.7886 126.165 57.57 125.499 57.1326 125.04C56.6953 124.571 56.098 124.336 55.3406 124.336C54.5726 124.336 53.9593 124.576 53.5006 125.056C53.0526 125.536 52.8286 126.235 52.8286 127.152V132H51.3726V123.232H52.8286V124.48C53.1166 124.032 53.506 123.685 53.9966 123.44C54.498 123.195 55.0473 123.072 55.6446 123.072ZM63.383 124.432V129.6C63.383 130.027 63.4737 130.331 63.655 130.512C63.8363 130.683 64.151 130.768 64.599 130.768H65.671V132H64.359C63.5483 132 62.9403 131.813 62.535 131.44C62.1297 131.067 61.927 130.453 61.927 129.6V124.432H60.791V123.232H61.927V121.024H63.383V123.232H65.671V124.432H63.383ZM73.4768 124.432V129.6C73.4768 130.027 73.5674 130.331 73.7488 130.512C73.9301 130.683 74.2448 130.768 74.6927 130.768H75.7648V132H74.4528C73.6421 132 73.0341 131.813 72.6288 131.44C72.2234 131.067 72.0208 130.453 72.0208 129.6V124.432H70.8848V123.232H72.0208V121.024H73.4768V123.232H75.7648V124.432H73.4768ZM81.3529 132.144C80.5315 132.144 79.7849 131.957 79.1129 131.584C78.4515 131.211 77.9289 130.683 77.5449 130C77.1715 129.307 76.9849 128.507 76.9849 127.6C76.9849 126.704 77.1769 125.915 77.5609 125.232C77.9555 124.539 78.4889 124.011 79.1609 123.648C79.8329 123.275 80.5849 123.088 81.4169 123.088C82.2489 123.088 83.0009 123.275 83.6729 123.648C84.3449 124.011 84.8729 124.533 85.2569 125.216C85.6515 125.899 85.8489 126.693 85.8489 127.6C85.8489 128.507 85.6462 129.307 85.2409 130C84.8462 130.683 84.3075 131.211 83.6249 131.584C82.9422 131.957 82.1849 132.144 81.3529 132.144ZM81.3529 130.864C81.8755 130.864 82.3662 130.741 82.8249 130.496C83.2835 130.251 83.6515 129.883 83.9289 129.392C84.2169 128.901 84.3609 128.304 84.3609 127.6C84.3609 126.896 84.2222 126.299 83.9449 125.808C83.6675 125.317 83.3049 124.955 82.8569 124.72C82.4089 124.475 81.9235 124.352 81.4009 124.352C80.8675 124.352 80.3769 124.475 79.9289 124.72C79.4915 124.955 79.1395 125.317 78.8729 125.808C78.6062 126.299 78.4729 126.896 78.4729 127.6C78.4729 128.315 78.6009 128.917 78.8569 129.408C79.1235 129.899 79.4755 130.267 79.9129 130.512C80.3502 130.747 80.8302 130.864 81.3529 130.864ZM93.4849 124.864C93.7835 124.341 94.2209 123.915 94.7969 123.584C95.3729 123.253 96.0289 123.088 96.7649 123.088C97.5542 123.088 98.2635 123.275 98.8929 123.648C99.5222 124.021 100.018 124.549 100.381 125.232C100.744 125.904 100.925 126.688 100.925 127.584C100.925 128.469 100.744 129.259 100.381 129.952C100.018 130.645 99.5169 131.184 98.8769 131.568C98.2475 131.952 97.5435 132.144 96.7649 132.144C96.0075 132.144 95.3409 131.979 94.7649 131.648C94.1995 131.317 93.7729 130.896 93.4849 130.384V132H92.0289V120.16H93.4849V124.864ZM99.4369 127.584C99.4369 126.923 99.3035 126.347 99.0369 125.856C98.7702 125.365 98.4075 124.992 97.9489 124.736C97.5009 124.48 97.0049 124.352 96.4609 124.352C95.9275 124.352 95.4315 124.485 94.9729 124.752C94.5249 125.008 94.1622 125.387 93.8849 125.888C93.6182 126.379 93.4849 126.949 93.4849 127.6C93.4849 128.261 93.6182 128.843 93.8849 129.344C94.1622 129.835 94.5249 130.213 94.9729 130.48C95.4315 130.736 95.9275 130.864 96.4609 130.864C97.0049 130.864 97.5009 130.736 97.9489 130.48C98.4075 130.213 98.7702 129.835 99.0369 129.344C99.3035 128.843 99.4369 128.256 99.4369 127.584ZM110.617 123.232V132H109.161V130.704C108.884 131.152 108.495 131.504 107.993 131.76C107.503 132.005 106.959 132.128 106.361 132.128C105.679 132.128 105.065 131.989 104.521 131.712C103.977 131.424 103.545 130.997 103.225 130.432C102.916 129.867 102.761 129.179 102.761 128.368V123.232H104.201V128.176C104.201 129.04 104.42 129.707 104.857 130.176C105.295 130.635 105.892 130.864 106.649 130.864C107.428 130.864 108.041 130.624 108.489 130.144C108.937 129.664 109.161 128.965 109.161 128.048V123.232H110.617ZM113.828 121.808C113.55 121.808 113.316 121.712 113.124 121.52C112.932 121.328 112.836 121.093 112.836 120.816C112.836 120.539 112.932 120.304 113.124 120.112C113.316 119.92 113.55 119.824 113.828 119.824C114.094 119.824 114.318 119.92 114.5 120.112C114.692 120.304 114.788 120.539 114.788 120.816C114.788 121.093 114.692 121.328 114.5 121.52C114.318 121.712 114.094 121.808 113.828 121.808ZM114.532 123.232V132H113.076V123.232H114.532ZM118.469 120.16V132H117.013V120.16H118.469ZM120.407 127.584C120.407 126.688 120.588 125.904 120.951 125.232C121.313 124.549 121.809 124.021 122.439 123.648C123.079 123.275 123.793 123.088 124.583 123.088C125.265 123.088 125.9 123.248 126.487 123.568C127.073 123.877 127.521 124.288 127.831 124.8V120.16H129.303V132H127.831V130.352C127.543 130.875 127.116 131.307 126.551 131.648C125.985 131.979 125.324 132.144 124.567 132.144C123.788 132.144 123.079 131.952 122.439 131.568C121.809 131.184 121.313 130.645 120.951 129.952C120.588 129.259 120.407 128.469 120.407 127.584ZM127.831 127.6C127.831 126.939 127.697 126.363 127.431 125.872C127.164 125.381 126.801 125.008 126.343 124.752C125.895 124.485 125.399 124.352 124.855 124.352C124.311 124.352 123.815 124.48 123.367 124.736C122.919 124.992 122.561 125.365 122.295 125.856C122.028 126.347 121.895 126.923 121.895 127.584C121.895 128.256 122.028 128.843 122.295 129.344C122.561 129.835 122.919 130.213 123.367 130.48C123.815 130.736 124.311 130.864 124.855 130.864C125.399 130.864 125.895 130.736 126.343 130.48C126.801 130.213 127.164 129.835 127.431 129.344C127.697 128.843 127.831 128.261 127.831 127.6ZM135.485 127.584C135.485 126.688 135.666 125.904 136.029 125.232C136.392 124.549 136.888 124.021 137.517 123.648C138.157 123.275 138.866 123.088 139.645 123.088C140.413 123.088 141.08 123.253 141.645 123.584C142.21 123.915 142.632 124.331 142.909 124.832V123.232H144.381V132H142.909V130.368C142.621 130.88 142.189 131.307 141.613 131.648C141.048 131.979 140.386 132.144 139.629 132.144C138.85 132.144 138.146 131.952 137.517 131.568C136.888 131.184 136.392 130.645 136.029 129.952C135.666 129.259 135.485 128.469 135.485 127.584ZM142.909 127.6C142.909 126.939 142.776 126.363 142.509 125.872C142.242 125.381 141.88 125.008 141.421 124.752C140.973 124.485 140.477 124.352 139.933 124.352C139.389 124.352 138.893 124.48 138.445 124.736C137.997 124.992 137.64 125.365 137.373 125.856C137.106 126.347 136.973 126.923 136.973 127.584C136.973 128.256 137.106 128.843 137.373 129.344C137.64 129.835 137.997 130.213 138.445 130.48C138.893 130.736 139.389 130.864 139.933 130.864C140.477 130.864 140.973 130.736 141.421 130.48C141.88 130.213 142.242 129.835 142.509 129.344C142.776 128.843 142.909 128.261 142.909 127.6ZM151.113 123.072C152.18 123.072 153.044 123.397 153.705 124.048C154.367 124.688 154.697 125.616 154.697 126.832V132H153.257V127.04C153.257 126.165 153.039 125.499 152.601 125.04C152.164 124.571 151.567 124.336 150.809 124.336C150.041 124.336 149.428 124.576 148.969 125.056C148.521 125.536 148.297 126.235 148.297 127.152V132H146.841V123.232H148.297V124.48C148.585 124.032 148.975 123.685 149.465 123.44C149.967 123.195 150.516 123.072 151.113 123.072ZM169.341 127.28C169.341 127.557 169.325 127.851 169.293 128.16H162.285C162.339 129.024 162.632 129.701 163.165 130.192C163.709 130.672 164.365 130.912 165.133 130.912C165.763 130.912 166.285 130.768 166.701 130.48C167.128 130.181 167.427 129.787 167.597 129.296H169.165C168.931 130.139 168.461 130.827 167.757 131.36C167.053 131.883 166.179 132.144 165.133 132.144C164.301 132.144 163.555 131.957 162.893 131.584C162.243 131.211 161.731 130.683 161.357 130C160.984 129.307 160.797 128.507 160.797 127.6C160.797 126.693 160.979 125.899 161.341 125.216C161.704 124.533 162.211 124.011 162.861 123.648C163.523 123.275 164.28 123.088 165.133 123.088C165.965 123.088 166.701 123.269 167.341 123.632C167.981 123.995 168.472 124.496 168.813 125.136C169.165 125.765 169.341 126.48 169.341 127.28ZM167.837 126.976C167.837 126.421 167.715 125.947 167.469 125.552C167.224 125.147 166.888 124.843 166.461 124.64C166.045 124.427 165.581 124.32 165.069 124.32C164.333 124.32 163.704 124.555 163.181 125.024C162.669 125.493 162.376 126.144 162.301 126.976H167.837ZM181.807 123.072C182.49 123.072 183.098 123.216 183.631 123.504C184.165 123.781 184.586 124.203 184.895 124.768C185.205 125.333 185.359 126.021 185.359 126.832V132H183.919V127.04C183.919 126.165 183.701 125.499 183.263 125.04C182.837 124.571 182.255 124.336 181.519 124.336C180.762 124.336 180.159 124.581 179.711 125.072C179.263 125.552 179.039 126.251 179.039 127.168V132H177.599V127.04C177.599 126.165 177.381 125.499 176.943 125.04C176.517 124.571 175.935 124.336 175.199 124.336C174.442 124.336 173.839 124.581 173.391 125.072C172.943 125.552 172.719 126.251 172.719 127.168V132H171.263V123.232H172.719V124.496C173.007 124.037 173.391 123.685 173.871 123.44C174.362 123.195 174.901 123.072 175.487 123.072C176.223 123.072 176.874 123.237 177.439 123.568C178.005 123.899 178.426 124.384 178.703 125.024C178.949 124.405 179.354 123.925 179.919 123.584C180.485 123.243 181.114 123.072 181.807 123.072ZM195.748 127.28C195.748 127.557 195.732 127.851 195.7 128.16H188.692C188.745 129.024 189.038 129.701 189.572 130.192C190.116 130.672 190.772 130.912 191.54 130.912C192.169 130.912 192.692 130.768 193.108 130.48C193.534 130.181 193.833 129.787 194.004 129.296H195.572C195.337 130.139 194.868 130.827 194.164 131.36C193.46 131.883 192.585 132.144 191.54 132.144C190.708 132.144 189.961 131.957 189.3 131.584C188.649 131.211 188.137 130.683 187.764 130C187.39 129.307 187.204 128.507 187.204 127.6C187.204 126.693 187.385 125.899 187.748 125.216C188.11 124.533 188.617 124.011 189.268 123.648C189.929 123.275 190.686 123.088 191.54 123.088C192.372 123.088 193.108 123.269 193.748 123.632C194.388 123.995 194.878 124.496 195.22 125.136C195.572 125.765 195.748 126.48 195.748 127.28ZM194.244 126.976C194.244 126.421 194.121 125.947 193.876 125.552C193.63 125.147 193.294 124.843 192.868 124.64C192.452 124.427 191.988 124.32 191.476 124.32C190.74 124.32 190.11 124.555 189.588 125.024C189.076 125.493 188.782 126.144 188.708 126.976H194.244ZM199.126 124.656C199.382 124.155 199.744 123.765 200.214 123.488C200.694 123.211 201.275 123.072 201.958 123.072V124.576H201.574C199.942 124.576 199.126 125.461 199.126 127.232V132H197.67V123.232H199.126V124.656ZM207.254 123.088C208.012 123.088 208.673 123.253 209.238 123.584C209.814 123.915 210.241 124.331 210.518 124.832V123.232H211.99V132.192C211.99 132.992 211.82 133.701 211.478 134.32C211.137 134.949 210.646 135.44 210.006 135.792C209.377 136.144 208.641 136.32 207.798 136.32C206.646 136.32 205.686 136.048 204.918 135.504C204.15 134.96 203.697 134.219 203.558 133.28H204.998C205.158 133.813 205.489 134.24 205.99 134.56C206.492 134.891 207.094 135.056 207.798 135.056C208.598 135.056 209.249 134.805 209.75 134.304C210.262 133.803 210.518 133.099 210.518 132.192V130.352C210.23 130.864 209.804 131.291 209.238 131.632C208.673 131.973 208.012 132.144 207.254 132.144C206.476 132.144 205.766 131.952 205.126 131.568C204.497 131.184 204.001 130.645 203.638 129.952C203.276 129.259 203.094 128.469 203.094 127.584C203.094 126.688 203.276 125.904 203.638 125.232C204.001 124.549 204.497 124.021 205.126 123.648C205.766 123.275 206.476 123.088 207.254 123.088ZM210.518 127.6C210.518 126.939 210.385 126.363 210.118 125.872C209.852 125.381 209.489 125.008 209.03 124.752C208.582 124.485 208.086 124.352 207.542 124.352C206.998 124.352 206.502 124.48 206.054 124.736C205.606 124.992 205.249 125.365 204.982 125.856C204.716 126.347 204.582 126.923 204.582 127.584C204.582 128.256 204.716 128.843 204.982 129.344C205.249 129.835 205.606 130.213 206.054 130.48C206.502 130.736 206.998 130.864 207.542 130.864C208.086 130.864 208.582 130.736 209.03 130.48C209.489 130.213 209.852 129.835 210.118 129.344C210.385 128.843 210.518 128.261 210.518 127.6ZM222.451 127.28C222.451 127.557 222.435 127.851 222.403 128.16H215.395C215.448 129.024 215.741 129.701 216.275 130.192C216.819 130.672 217.475 130.912 218.243 130.912C218.872 130.912 219.395 130.768 219.811 130.48C220.237 130.181 220.536 129.787 220.707 129.296H222.275C222.04 130.139 221.571 130.827 220.867 131.36C220.163 131.883 219.288 132.144 218.243 132.144C217.411 132.144 216.664 131.957 216.003 131.584C215.352 131.211 214.84 130.683 214.467 130C214.093 129.307 213.907 128.507 213.907 127.6C213.907 126.693 214.088 125.899 214.451 125.216C214.813 124.533 215.32 124.011 215.971 123.648C216.632 123.275 217.389 123.088 218.243 123.088C219.075 123.088 219.811 123.269 220.451 123.632C221.091 123.995 221.581 124.496 221.923 125.136C222.275 125.765 222.451 126.48 222.451 127.28ZM220.947 126.976C220.947 126.421 220.824 125.947 220.579 125.552C220.333 125.147 219.997 124.843 219.571 124.64C219.155 124.427 218.691 124.32 218.179 124.32C217.443 124.32 216.813 124.555 216.291 125.024C215.779 125.493 215.485 126.144 215.411 126.976H220.947ZM228.645 123.072C229.711 123.072 230.575 123.397 231.237 124.048C231.898 124.688 232.229 125.616 232.229 126.832V132H230.789V127.04C230.789 126.165 230.57 125.499 230.133 125.04C229.695 124.571 229.098 124.336 228.341 124.336C227.573 124.336 226.959 124.576 226.501 125.056C226.053 125.536 225.829 126.235 225.829 127.152V132H224.373V123.232H225.829V124.48C226.117 124.032 226.506 123.685 226.997 123.44C227.498 123.195 228.047 123.072 228.645 123.072ZM234.063 127.6C234.063 126.693 234.244 125.904 234.607 125.232C234.97 124.549 235.471 124.021 236.111 123.648C236.762 123.275 237.503 123.088 238.335 123.088C239.412 123.088 240.298 123.349 240.991 123.872C241.695 124.395 242.159 125.12 242.383 126.048H240.815C240.666 125.515 240.372 125.093 239.935 124.784C239.508 124.475 238.975 124.32 238.335 124.32C237.503 124.32 236.831 124.608 236.319 125.184C235.807 125.749 235.551 126.555 235.551 127.6C235.551 128.656 235.807 129.472 236.319 130.048C236.831 130.624 237.503 130.912 238.335 130.912C238.975 130.912 239.508 130.763 239.935 130.464C240.362 130.165 240.655 129.739 240.815 129.184H242.383C242.148 130.08 241.679 130.8 240.975 131.344C240.271 131.877 239.391 132.144 238.335 132.144C237.503 132.144 236.762 131.957 236.111 131.584C235.471 131.211 234.97 130.683 234.607 130C234.244 129.317 234.063 128.517 234.063 127.6ZM251.878 123.232L246.598 136.128H245.094L246.822 131.904L243.286 123.232H244.902L247.654 130.336L250.374 123.232H251.878ZM261.175 124.432H259.335V132H257.879V124.432H256.743V123.232H257.879V122.608C257.879 121.627 258.13 120.912 258.631 120.464C259.143 120.005 259.959 119.776 261.079 119.776V120.992C260.439 120.992 259.986 121.12 259.719 121.376C259.463 121.621 259.335 122.032 259.335 122.608V123.232H261.175V124.432ZM270.649 123.232V132H269.193V130.704C268.915 131.152 268.526 131.504 268.025 131.76C267.534 132.005 266.99 132.128 266.393 132.128C265.71 132.128 265.097 131.989 264.553 131.712C264.009 131.424 263.577 130.997 263.257 130.432C262.947 129.867 262.793 129.179 262.793 128.368V123.232H264.233V128.176C264.233 129.04 264.451 129.707 264.889 130.176C265.326 130.635 265.923 130.864 266.681 130.864C267.459 130.864 268.073 130.624 268.521 130.144C268.969 129.664 269.193 128.965 269.193 128.048V123.232H270.649ZM277.379 123.072C278.446 123.072 279.31 123.397 279.971 124.048C280.632 124.688 280.963 125.616 280.963 126.832V132H279.523V127.04C279.523 126.165 279.304 125.499 278.867 125.04C278.43 124.571 277.832 124.336 277.075 124.336C276.307 124.336 275.694 124.576 275.235 125.056C274.787 125.536 274.563 126.235 274.563 127.152V132H273.107V123.232H274.563V124.48C274.851 124.032 275.24 123.685 275.731 123.44C276.232 123.195 276.782 123.072 277.379 123.072ZM282.797 127.584C282.797 126.688 282.979 125.904 283.341 125.232C283.704 124.549 284.2 124.021 284.829 123.648C285.469 123.275 286.184 123.088 286.973 123.088C287.656 123.088 288.291 123.248 288.877 123.568C289.464 123.877 289.912 124.288 290.221 124.8V120.16H291.693V132H290.221V130.352C289.933 130.875 289.507 131.307 288.941 131.648C288.376 131.979 287.715 132.144 286.957 132.144C286.179 132.144 285.469 131.952 284.829 131.568C284.2 131.184 283.704 130.645 283.341 129.952C282.979 129.259 282.797 128.469 282.797 127.584ZM290.221 127.6C290.221 126.939 290.088 126.363 289.821 125.872C289.555 125.381 289.192 125.008 288.733 124.752C288.285 124.485 287.789 124.352 287.245 124.352C286.701 124.352 286.205 124.48 285.757 124.736C285.309 124.992 284.952 125.365 284.685 125.856C284.419 126.347 284.285 126.923 284.285 127.584C284.285 128.256 284.419 128.843 284.685 129.344C284.952 129.835 285.309 130.213 285.757 130.48C286.205 130.736 286.701 130.864 287.245 130.864C287.789 130.864 288.285 130.736 288.733 130.48C289.192 130.213 289.555 129.835 289.821 129.344C290.088 128.843 290.221 128.261 290.221 127.6ZM302.244 132.144C301.422 132.144 300.676 131.957 300.004 131.584C299.342 131.211 298.82 130.683 298.436 130C298.062 129.307 297.876 128.507 297.876 127.6C297.876 126.704 298.068 125.915 298.452 125.232C298.846 124.539 299.38 124.011 300.052 123.648C300.724 123.275 301.476 123.088 302.308 123.088C303.14 123.088 303.892 123.275 304.564 123.648C305.236 124.011 305.764 124.533 306.148 125.216C306.542 125.899 306.74 126.693 306.74 127.6C306.74 128.507 306.537 129.307 306.132 130C305.737 130.683 305.198 131.211 304.516 131.584C303.833 131.957 303.076 132.144 302.244 132.144ZM302.244 130.864C302.766 130.864 303.257 130.741 303.716 130.496C304.174 130.251 304.542 129.883 304.82 129.392C305.108 128.901 305.252 128.304 305.252 127.6C305.252 126.896 305.113 126.299 304.836 125.808C304.558 125.317 304.196 124.955 303.748 124.72C303.3 124.475 302.814 124.352 302.292 124.352C301.758 124.352 301.268 124.475 300.82 124.72C300.382 124.955 300.03 125.317 299.764 125.808C299.497 126.299 299.364 126.896 299.364 127.6C299.364 128.315 299.492 128.917 299.748 129.408C300.014 129.899 300.366 130.267 300.804 130.512C301.241 130.747 301.721 130.864 302.244 130.864ZM312.222 124.432H310.382V132H308.926V124.432H307.79V123.232H308.926V122.608C308.926 121.627 309.177 120.912 309.678 120.464C310.19 120.005 311.006 119.776 312.126 119.776V120.992C311.486 120.992 311.033 121.12 310.766 121.376C310.51 121.621 310.382 122.032 310.382 122.608V123.232H312.222V124.432ZM26.368 145.696H20.752V149.344C20.9973 149.003 21.36 148.725 21.84 148.512C22.32 148.288 22.8373 148.176 23.392 148.176C24.2773 148.176 24.9973 148.363 25.552 148.736C26.1067 149.099 26.5013 149.573 26.736 150.16C26.9813 150.736 27.104 151.349 27.104 152C27.104 152.768 26.96 153.456 26.672 154.064C26.384 154.672 25.9413 155.152 25.344 155.504C24.7573 155.856 24.0267 156.032 23.152 156.032C22.032 156.032 21.1253 155.744 20.432 155.168C19.7387 154.592 19.3173 153.824 19.168 152.864H20.592C20.7307 153.472 21.024 153.947 21.472 154.288C21.92 154.629 22.4853 154.8 23.168 154.8C24.0107 154.8 24.6453 154.549 25.072 154.048C25.4987 153.536 25.712 152.864 25.712 152.032C25.712 151.2 25.4987 150.56 25.072 150.112C24.6453 149.653 24.016 149.424 23.184 149.424C22.6187 149.424 22.1227 149.563 21.696 149.84C21.28 150.107 20.976 150.475 20.784 150.944H19.408V144.416H26.368V145.696ZM29.0389 150.096C29.0389 148.261 29.3375 146.832 29.9349 145.808C30.5322 144.773 31.5775 144.256 33.0709 144.256C34.5535 144.256 35.5935 144.773 36.1909 145.808C36.7882 146.832 37.0869 148.261 37.0869 150.096C37.0869 151.963 36.7882 153.413 36.1909 154.448C35.5935 155.483 34.5535 156 33.0709 156C31.5775 156 30.5322 155.483 29.9349 154.448C29.3375 153.413 29.0389 151.963 29.0389 150.096ZM35.6469 150.096C35.6469 149.168 35.5829 148.384 35.4549 147.744C35.3375 147.093 35.0869 146.571 34.7029 146.176C34.3295 145.781 33.7855 145.584 33.0709 145.584C32.3455 145.584 31.7909 145.781 31.4069 146.176C31.0335 146.571 30.7829 147.093 30.6549 147.744C30.5375 148.384 30.4789 149.168 30.4789 150.096C30.4789 151.056 30.5375 151.861 30.6549 152.512C30.7829 153.163 31.0335 153.685 31.4069 154.08C31.7909 154.475 32.3455 154.672 33.0709 154.672C33.7855 154.672 34.3295 154.475 34.7029 154.08C35.0869 153.685 35.3375 153.163 35.4549 152.512C35.5829 151.861 35.6469 151.056 35.6469 150.096ZM39.0858 150.096C39.0858 148.261 39.3844 146.832 39.9818 145.808C40.5791 144.773 41.6244 144.256 43.1178 144.256C44.6004 144.256 45.6404 144.773 46.2378 145.808C46.8351 146.832 47.1337 148.261 47.1337 150.096C47.1337 151.963 46.8351 153.413 46.2378 154.448C45.6404 155.483 44.6004 156 43.1178 156C41.6244 156 40.5791 155.483 39.9818 154.448C39.3844 153.413 39.0858 151.963 39.0858 150.096ZM45.6938 150.096C45.6938 149.168 45.6298 148.384 45.5018 147.744C45.3844 147.093 45.1338 146.571 44.7498 146.176C44.3764 145.781 43.8324 145.584 43.1178 145.584C42.3924 145.584 41.8378 145.781 41.4538 146.176C41.0804 146.571 40.8298 147.093 40.7018 147.744C40.5844 148.384 40.5258 149.168 40.5258 150.096C40.5258 151.056 40.5844 151.861 40.7018 152.512C40.8298 153.163 41.0804 153.685 41.4538 154.08C41.8378 154.475 42.3924 154.672 43.1178 154.672C43.8324 154.672 44.3764 154.475 44.7498 154.08C45.1338 153.685 45.3844 153.163 45.5018 152.512C45.6298 151.861 45.6938 151.056 45.6938 150.096ZM49.1326 150.096C49.1326 148.261 49.4313 146.832 50.0286 145.808C50.626 144.773 51.6713 144.256 53.1646 144.256C54.6473 144.256 55.6873 144.773 56.2846 145.808C56.882 146.832 57.1806 148.261 57.1806 150.096C57.1806 151.963 56.882 153.413 56.2846 154.448C55.6873 155.483 54.6473 156 53.1646 156C51.6713 156 50.626 155.483 50.0286 154.448C49.4313 153.413 49.1326 151.963 49.1326 150.096ZM55.7406 150.096C55.7406 149.168 55.6766 148.384 55.5486 147.744C55.4313 147.093 55.1806 146.571 54.7966 146.176C54.4233 145.781 53.8793 145.584 53.1646 145.584C52.4393 145.584 51.8846 145.781 51.5006 146.176C51.1273 146.571 50.8766 147.093 50.7486 147.744C50.6313 148.384 50.5726 149.168 50.5726 150.096C50.5726 151.056 50.6313 151.861 50.7486 152.512C50.8766 153.163 51.1273 153.685 51.5006 154.08C51.8846 154.475 52.4393 154.672 53.1646 154.672C53.8793 154.672 54.4233 154.475 54.7966 154.08C55.1806 153.685 55.4313 153.163 55.5486 152.512C55.6766 151.861 55.7406 151.056 55.7406 150.096ZM63.1411 151.584C63.1411 150.688 63.3225 149.904 63.6851 149.232C64.0478 148.549 64.5438 148.021 65.1731 147.648C65.8131 147.275 66.5278 147.088 67.3171 147.088C67.9998 147.088 68.6345 147.248 69.2211 147.568C69.8078 147.877 70.2558 148.288 70.5651 148.8V144.16H72.0371V156H70.5651V154.352C70.2771 154.875 69.8505 155.307 69.2851 155.648C68.7198 155.979 68.0585 156.144 67.3011 156.144C66.5225 156.144 65.8131 155.952 65.1731 155.568C64.5438 155.184 64.0478 154.645 63.6851 153.952C63.3225 153.259 63.1411 152.469 63.1411 151.584ZM70.5651 151.6C70.5651 150.939 70.4318 150.363 70.1651 149.872C69.8985 149.381 69.5358 149.008 69.0771 148.752C68.6291 148.485 68.1331 148.352 67.5891 148.352C67.0451 148.352 66.5491 148.48 66.1011 148.736C65.6531 148.992 65.2958 149.365 65.0291 149.856C64.7625 150.347 64.6291 150.923 64.6291 151.584C64.6291 152.256 64.7625 152.843 65.0291 153.344C65.2958 153.835 65.6531 154.213 66.1011 154.48C66.5491 154.736 67.0451 154.864 67.5891 154.864C68.1331 154.864 68.6291 154.736 69.0771 154.48C69.5358 154.213 69.8985 153.835 70.1651 153.344C70.4318 152.843 70.5651 152.261 70.5651 151.6ZM78.3216 156.144C77.5003 156.144 76.7536 155.957 76.0816 155.584C75.4203 155.211 74.8976 154.683 74.5136 154C74.1403 153.307 73.9536 152.507 73.9536 151.6C73.9536 150.704 74.1456 149.915 74.5296 149.232C74.9243 148.539 75.4576 148.011 76.1296 147.648C76.8016 147.275 77.5536 147.088 78.3856 147.088C79.2176 147.088 79.9696 147.275 80.6416 147.648C81.3136 148.011 81.8416 148.533 82.2256 149.216C82.6203 149.899 82.8176 150.693 82.8176 151.6C82.8176 152.507 82.615 153.307 82.2096 154C81.815 154.683 81.2763 155.211 80.5936 155.584C79.911 155.957 79.1536 156.144 78.3216 156.144ZM78.3216 154.864C78.8443 154.864 79.335 154.741 79.7936 154.496C80.2523 154.251 80.6203 153.883 80.8976 153.392C81.1856 152.901 81.3296 152.304 81.3296 151.6C81.3296 150.896 81.191 150.299 80.9136 149.808C80.6363 149.317 80.2736 148.955 79.8256 148.72C79.3776 148.475 78.8923 148.352 78.3696 148.352C77.8363 148.352 77.3456 148.475 76.8976 148.72C76.4603 148.955 76.1083 149.317 75.8416 149.808C75.575 150.299 75.4416 150.896 75.4416 151.6C75.4416 152.315 75.5696 152.917 75.8256 153.408C76.0923 153.899 76.4443 154.267 76.8816 154.512C77.319 154.747 77.799 154.864 78.3216 154.864ZM86.188 144.16V156H84.732V144.16H86.188ZM90.1255 144.16V156H88.6695V144.16H90.1255ZM92.063 151.584C92.063 150.688 92.2443 149.904 92.607 149.232C92.9697 148.549 93.4657 148.021 94.095 147.648C94.735 147.275 95.4443 147.088 96.223 147.088C96.991 147.088 97.6577 147.253 98.223 147.584C98.7883 147.915 99.2097 148.331 99.487 148.832V147.232H100.959V156H99.487V154.368C99.199 154.88 98.767 155.307 98.191 155.648C97.6257 155.979 96.9643 156.144 96.207 156.144C95.4283 156.144 94.7243 155.952 94.095 155.568C93.4657 155.184 92.9697 154.645 92.607 153.952C92.2443 153.259 92.063 152.469 92.063 151.584ZM99.487 151.6C99.487 150.939 99.3537 150.363 99.087 149.872C98.8203 149.381 98.4577 149.008 97.999 148.752C97.551 148.485 97.055 148.352 96.511 148.352C95.967 148.352 95.471 148.48 95.023 148.736C94.575 148.992 94.2177 149.365 93.951 149.856C93.6843 150.347 93.551 150.923 93.551 151.584C93.551 152.256 93.6843 152.843 93.951 153.344C94.2177 153.835 94.575 154.213 95.023 154.48C95.471 154.736 95.967 154.864 96.511 154.864C97.055 154.864 97.551 154.736 97.999 154.48C98.4577 154.213 98.8203 153.835 99.087 153.344C99.3537 152.843 99.487 152.261 99.487 151.6ZM104.876 148.656C105.132 148.155 105.494 147.765 105.964 147.488C106.444 147.211 107.025 147.072 107.708 147.072V148.576H107.324C105.692 148.576 104.876 149.461 104.876 151.232V156H103.42V147.232H104.876V148.656ZM112.492 156.144C111.82 156.144 111.218 156.032 110.684 155.808C110.151 155.573 109.73 155.253 109.42 154.848C109.111 154.432 108.94 153.957 108.908 153.424H110.412C110.455 153.861 110.658 154.219 111.02 154.496C111.394 154.773 111.879 154.912 112.476 154.912C113.031 154.912 113.468 154.789 113.788 154.544C114.108 154.299 114.268 153.989 114.268 153.616C114.268 153.232 114.098 152.949 113.756 152.768C113.415 152.576 112.887 152.389 112.172 152.208C111.522 152.037 110.988 151.867 110.572 151.696C110.167 151.515 109.815 151.253 109.516 150.912C109.228 150.56 109.084 150.101 109.084 149.536C109.084 149.088 109.218 148.677 109.484 148.304C109.751 147.931 110.13 147.637 110.62 147.424C111.111 147.2 111.671 147.088 112.3 147.088C113.271 147.088 114.055 147.333 114.652 147.824C115.25 148.315 115.57 148.987 115.612 149.84H114.156C114.124 149.381 113.938 149.013 113.596 148.736C113.266 148.459 112.818 148.32 112.252 148.32C111.73 148.32 111.314 148.432 111.004 148.656C110.695 148.88 110.54 149.173 110.54 149.536C110.54 149.824 110.631 150.064 110.812 150.256C111.004 150.437 111.239 150.587 111.516 150.704C111.804 150.811 112.199 150.933 112.7 151.072C113.33 151.243 113.842 151.413 114.236 151.584C114.631 151.744 114.967 151.989 115.244 152.32C115.532 152.651 115.682 153.083 115.692 153.616C115.692 154.096 115.559 154.528 115.292 154.912C115.026 155.296 114.647 155.6 114.156 155.824C113.676 156.037 113.122 156.144 112.492 156.144ZM122.765 145.808C122.488 145.808 122.253 145.712 122.061 145.52C121.869 145.328 121.773 145.093 121.773 144.816C121.773 144.539 121.869 144.304 122.061 144.112C122.253 143.92 122.488 143.824 122.765 143.824C123.032 143.824 123.256 143.92 123.437 144.112C123.629 144.304 123.725 144.539 123.725 144.816C123.725 145.093 123.629 145.328 123.437 145.52C123.256 145.712 123.032 145.808 122.765 145.808ZM123.469 147.232V156H122.013V147.232H123.469ZM130.223 147.072C131.289 147.072 132.153 147.397 132.815 148.048C133.476 148.688 133.807 149.616 133.807 150.832V156H132.367V151.04C132.367 150.165 132.148 149.499 131.711 149.04C131.273 148.571 130.676 148.336 129.919 148.336C129.151 148.336 128.537 148.576 128.079 149.056C127.631 149.536 127.407 150.235 127.407 151.152V156H125.951V147.232H127.407V148.48C127.695 148.032 128.084 147.685 128.575 147.44C129.076 147.195 129.625 147.072 130.223 147.072ZM146.659 147.184C146.424 146 145.693 145.408 144.467 145.408C143.517 145.408 142.808 145.776 142.339 146.512C141.869 147.237 141.64 148.437 141.651 150.112C141.896 149.557 142.301 149.125 142.867 148.816C143.443 148.496 144.083 148.336 144.787 148.336C145.885 148.336 146.76 148.677 147.411 149.36C148.072 150.043 148.403 150.987 148.403 152.192C148.403 152.917 148.259 153.568 147.971 154.144C147.693 154.72 147.267 155.179 146.691 155.52C146.125 155.861 145.437 156.032 144.627 156.032C143.528 156.032 142.669 155.787 142.051 155.296C141.432 154.805 141 154.128 140.755 153.264C140.509 152.4 140.387 151.333 140.387 150.064C140.387 146.149 141.752 144.192 144.483 144.192C145.528 144.192 146.349 144.475 146.947 145.04C147.544 145.605 147.896 146.32 148.003 147.184H146.659ZM144.483 149.568C144.024 149.568 143.592 149.664 143.187 149.856C142.781 150.037 142.451 150.32 142.195 150.704C141.949 151.077 141.827 151.536 141.827 152.08C141.827 152.891 142.061 153.552 142.531 154.064C143 154.565 143.672 154.816 144.547 154.816C145.293 154.816 145.885 154.587 146.323 154.128C146.771 153.659 146.995 153.029 146.995 152.24C146.995 151.408 146.781 150.757 146.355 150.288C145.928 149.808 145.304 149.568 144.483 149.568ZM165.417 147.072C166.099 147.072 166.707 147.216 167.241 147.504C167.774 147.781 168.195 148.203 168.505 148.768C168.814 149.333 168.969 150.021 168.969 150.832V156H167.529V151.04C167.529 150.165 167.31 149.499 166.873 149.04C166.446 148.571 165.865 148.336 165.129 148.336C164.371 148.336 163.769 148.581 163.321 149.072C162.873 149.552 162.649 150.251 162.649 151.168V156H161.209V151.04C161.209 150.165 160.99 149.499 160.553 149.04C160.126 148.571 159.545 148.336 158.809 148.336C158.051 148.336 157.449 148.581 157.001 149.072C156.553 149.552 156.329 150.251 156.329 151.168V156H154.873V147.232H156.329V148.496C156.617 148.037 157.001 147.685 157.481 147.44C157.971 147.195 158.51 147.072 159.097 147.072C159.833 147.072 160.483 147.237 161.049 147.568C161.614 147.899 162.035 148.384 162.313 149.024C162.558 148.405 162.963 147.925 163.529 147.584C164.094 147.243 164.723 147.072 165.417 147.072ZM175.181 156.144C174.36 156.144 173.613 155.957 172.941 155.584C172.28 155.211 171.757 154.683 171.373 154C171 153.307 170.813 152.507 170.813 151.6C170.813 150.704 171.005 149.915 171.389 149.232C171.784 148.539 172.317 148.011 172.989 147.648C173.661 147.275 174.413 147.088 175.245 147.088C176.077 147.088 176.829 147.275 177.501 147.648C178.173 148.011 178.701 148.533 179.085 149.216C179.48 149.899 179.677 150.693 179.677 151.6C179.677 152.507 179.474 153.307 179.069 154C178.674 154.683 178.136 155.211 177.453 155.584C176.77 155.957 176.013 156.144 175.181 156.144ZM175.181 154.864C175.704 154.864 176.194 154.741 176.653 154.496C177.112 154.251 177.48 153.883 177.757 153.392C178.045 152.901 178.189 152.304 178.189 151.6C178.189 150.896 178.05 150.299 177.773 149.808C177.496 149.317 177.133 148.955 176.685 148.72C176.237 148.475 175.752 148.352 175.229 148.352C174.696 148.352 174.205 148.475 173.757 148.72C173.32 148.955 172.968 149.317 172.701 149.808C172.434 150.299 172.301 150.896 172.301 151.6C172.301 152.315 172.429 152.917 172.685 153.408C172.952 153.899 173.304 154.267 173.741 154.512C174.178 154.747 174.658 154.864 175.181 154.864ZM185.863 147.072C186.93 147.072 187.794 147.397 188.455 148.048C189.117 148.688 189.447 149.616 189.447 150.832V156H188.007V151.04C188.007 150.165 187.789 149.499 187.351 149.04C186.914 148.571 186.317 148.336 185.559 148.336C184.791 148.336 184.178 148.576 183.719 149.056C183.271 149.536 183.047 150.235 183.047 151.152V156H181.591V147.232H183.047V148.48C183.335 148.032 183.725 147.685 184.215 147.44C184.717 147.195 185.266 147.072 185.863 147.072ZM193.602 148.432V153.6C193.602 154.027 193.692 154.331 193.874 154.512C194.055 154.683 194.37 154.768 194.818 154.768H195.89V156H194.578C193.767 156 193.159 155.813 192.754 155.44C192.348 155.067 192.146 154.453 192.146 153.6V148.432H191.01V147.232H192.146V145.024H193.602V147.232H195.89V148.432H193.602ZM202.006 147.072C202.667 147.072 203.265 147.216 203.798 147.504C204.331 147.781 204.747 148.203 205.046 148.768C205.355 149.333 205.51 150.021 205.51 150.832V156H204.07V151.04C204.07 150.165 203.851 149.499 203.414 149.04C202.977 148.571 202.379 148.336 201.622 148.336C200.854 148.336 200.241 148.576 199.782 149.056C199.334 149.536 199.11 150.235 199.11 151.152V156H197.654V144.16H199.11V148.48C199.398 148.032 199.793 147.685 200.294 147.44C200.806 147.195 201.377 147.072 202.006 147.072ZM210.992 156.144C210.32 156.144 209.718 156.032 209.184 155.808C208.651 155.573 208.23 155.253 207.92 154.848C207.611 154.432 207.44 153.957 207.408 153.424H208.912C208.955 153.861 209.158 154.219 209.52 154.496C209.894 154.773 210.379 154.912 210.976 154.912C211.531 154.912 211.968 154.789 212.288 154.544C212.608 154.299 212.768 153.989 212.768 153.616C212.768 153.232 212.598 152.949 212.256 152.768C211.915 152.576 211.387 152.389 210.672 152.208C210.022 152.037 209.488 151.867 209.072 151.696C208.667 151.515 208.315 151.253 208.016 150.912C207.728 150.56 207.584 150.101 207.584 149.536C207.584 149.088 207.718 148.677 207.984 148.304C208.251 147.931 208.63 147.637 209.12 147.424C209.611 147.2 210.171 147.088 210.8 147.088C211.771 147.088 212.555 147.333 213.152 147.824C213.75 148.315 214.07 148.987 214.112 149.84H212.656C212.624 149.381 212.438 149.013 212.096 148.736C211.766 148.459 211.318 148.32 210.752 148.32C210.23 148.32 209.814 148.432 209.504 148.656C209.195 148.88 209.04 149.173 209.04 149.536C209.04 149.824 209.131 150.064 209.312 150.256C209.504 150.437 209.739 150.587 210.016 150.704C210.304 150.811 210.699 150.933 211.2 151.072C211.83 151.243 212.342 151.413 212.736 151.584C213.131 151.744 213.467 151.989 213.744 152.32C214.032 152.651 214.182 153.083 214.192 153.616C214.192 154.096 214.059 154.528 213.792 154.912C213.526 155.296 213.147 155.6 212.656 155.824C212.176 156.037 211.622 156.144 210.992 156.144Z" fill="black"/>
<path d="M18.516 87.812C18.516 86.996 18.7 86.264 19.068 85.616C19.436 84.96 19.936 84.448 20.568 84.08C21.208 83.712 21.916 83.528 22.692 83.528C23.604 83.528 24.4 83.748 25.08 84.188C25.76 84.628 26.256 85.252 26.568 86.06H25.26C25.028 85.556 24.692 85.168 24.252 84.896C23.82 84.624 23.3 84.488 22.692 84.488C22.108 84.488 21.584 84.624 21.12 84.896C20.656 85.168 20.292 85.556 20.028 86.06C19.764 86.556 19.632 87.14 19.632 87.812C19.632 88.476 19.764 89.06 20.028 89.564C20.292 90.06 20.656 90.444 21.12 90.716C21.584 90.988 22.108 91.124 22.692 91.124C23.3 91.124 23.82 90.992 24.252 90.728C24.692 90.456 25.028 90.068 25.26 89.564H26.568C26.256 90.364 25.76 90.984 25.08 91.424C24.4 91.856 23.604 92.072 22.692 92.072C21.916 92.072 21.208 91.892 20.568 91.532C19.936 91.164 19.436 90.656 19.068 90.008C18.7 89.36 18.516 88.628 18.516 87.812ZM34.0255 85.424V92H32.9335V91.028C32.7255 91.364 32.4335 91.628 32.0575 91.82C31.6895 92.004 31.2815 92.096 30.8335 92.096C30.3215 92.096 29.8615 91.992 29.4535 91.784C29.0455 91.568 28.7215 91.248 28.4815 90.824C28.2495 90.4 28.1335 89.884 28.1335 89.276V85.424H29.2135V89.132C29.2135 89.78 29.3775 90.28 29.7055 90.632C30.0335 90.976 30.4815 91.148 31.0495 91.148C31.6335 91.148 32.0935 90.968 32.4295 90.608C32.7655 90.248 32.9335 89.724 32.9335 89.036V85.424H34.0255ZM38.1973 92.108C37.6933 92.108 37.2413 92.024 36.8413 91.856C36.4413 91.68 36.1253 91.44 35.8933 91.136C35.6613 90.824 35.5333 90.468 35.5093 90.068H36.6373C36.6693 90.396 36.8213 90.664 37.0933 90.872C37.3733 91.08 37.7373 91.184 38.1853 91.184C38.6013 91.184 38.9293 91.092 39.1693 90.908C39.4093 90.724 39.5293 90.492 39.5293 90.212C39.5293 89.924 39.4013 89.712 39.1453 89.576C38.8893 89.432 38.4933 89.292 37.9573 89.156C37.4693 89.028 37.0693 88.9 36.7573 88.772C36.4533 88.636 36.1893 88.44 35.9653 88.184C35.7493 87.92 35.6413 87.576 35.6413 87.152C35.6413 86.816 35.7413 86.508 35.9413 86.228C36.1413 85.948 36.4253 85.728 36.7933 85.568C37.1613 85.4 37.5813 85.316 38.0533 85.316C38.7813 85.316 39.3693 85.5 39.8173 85.868C40.2653 86.236 40.5053 86.74 40.5373 87.38H39.4453C39.4213 87.036 39.2813 86.76 39.0253 86.552C38.7773 86.344 38.4413 86.24 38.0173 86.24C37.6253 86.24 37.3133 86.324 37.0813 86.492C36.8493 86.66 36.7333 86.88 36.7333 87.152C36.7333 87.368 36.8013 87.548 36.9373 87.692C37.0813 87.828 37.2573 87.94 37.4653 88.028C37.6813 88.108 37.9773 88.2 38.3533 88.304C38.8253 88.432 39.2093 88.56 39.5053 88.688C39.8013 88.808 40.0533 88.992 40.2613 89.24C40.4773 89.488 40.5893 89.812 40.5973 90.212C40.5973 90.572 40.4973 90.896 40.2973 91.184C40.0973 91.472 39.8133 91.7 39.4453 91.868C39.0853 92.028 38.6693 92.108 38.1973 92.108ZM43.4708 86.324V90.2C43.4708 90.52 43.5388 90.748 43.6748 90.884C43.8108 91.012 44.0468 91.076 44.3828 91.076H45.1868V92H44.2028C43.5948 92 43.1388 91.86 42.8348 91.58C42.5308 91.3 42.3788 90.84 42.3788 90.2V86.324H41.5268V85.424H42.3788V83.768H43.4708V85.424H45.1868V86.324H43.4708ZM49.3779 92.108C48.7619 92.108 48.2019 91.968 47.6979 91.688C47.2019 91.408 46.8099 91.012 46.5219 90.5C46.2419 89.98 46.1019 89.38 46.1019 88.7C46.1019 88.028 46.2459 87.436 46.5339 86.924C46.8299 86.404 47.2299 86.008 47.7339 85.736C48.2379 85.456 48.8019 85.316 49.4259 85.316C50.0499 85.316 50.6139 85.456 51.1179 85.736C51.6219 86.008 52.0179 86.4 52.3059 86.912C52.6019 87.424 52.7499 88.02 52.7499 88.7C52.7499 89.38 52.5979 89.98 52.2939 90.5C51.9979 91.012 51.5939 91.408 51.0819 91.688C50.5699 91.968 50.0019 92.108 49.3779 92.108ZM49.3779 91.148C49.7699 91.148 50.1379 91.056 50.4819 90.872C50.8259 90.688 51.1019 90.412 51.3099 90.044C51.5259 89.676 51.6339 89.228 51.6339 88.7C51.6339 88.172 51.5299 87.724 51.3219 87.356C51.1139 86.988 50.8419 86.716 50.5059 86.54C50.1699 86.356 49.8059 86.264 49.4139 86.264C49.0139 86.264 48.6459 86.356 48.3099 86.54C47.9819 86.716 47.7179 86.988 47.5179 87.356C47.3179 87.724 47.2179 88.172 47.2179 88.7C47.2179 89.236 47.3139 89.688 47.5059 90.056C47.7059 90.424 47.9699 90.7 48.2979 90.884C48.6259 91.06 48.9859 91.148 49.3779 91.148ZM62.0937 85.304C62.6057 85.304 63.0617 85.412 63.4617 85.628C63.8617 85.836 64.1777 86.152 64.4097 86.576C64.6417 87 64.7577 87.516 64.7577 88.124V92H63.6777V88.28C63.6777 87.624 63.5137 87.124 63.1857 86.78C62.8657 86.428 62.4297 86.252 61.8777 86.252C61.3097 86.252 60.8577 86.436 60.5217 86.804C60.1857 87.164 60.0177 87.688 60.0177 88.376V92H58.9377V88.28C58.9377 87.624 58.7737 87.124 58.4457 86.78C58.1257 86.428 57.6897 86.252 57.1377 86.252C56.5697 86.252 56.1177 86.436 55.7817 86.804C55.4457 87.164 55.2777 87.688 55.2777 88.376V92H54.1857V85.424H55.2777V86.372C55.4937 86.028 55.7817 85.764 56.1417 85.58C56.5097 85.396 56.9137 85.304 57.3537 85.304C57.9057 85.304 58.3937 85.428 58.8177 85.676C59.2417 85.924 59.5577 86.288 59.7657 86.768C59.9497 86.304 60.2537 85.944 60.6777 85.688C61.1017 85.432 61.5737 85.304 62.0937 85.304ZM72.4602 85.316C73.0282 85.316 73.5242 85.44 73.9482 85.688C74.3802 85.936 74.7002 86.248 74.9082 86.624V85.424H76.0122V92.144C76.0122 92.744 75.8842 93.276 75.6282 93.74C75.3722 94.212 75.0042 94.58 74.5242 94.844C74.0522 95.108 73.5002 95.24 72.8682 95.24C72.0042 95.24 71.2842 95.036 70.7082 94.628C70.1322 94.22 69.7922 93.664 69.6882 92.96H70.7682C70.8882 93.36 71.1362 93.68 71.5122 93.92C71.8882 94.168 72.3402 94.292 72.8682 94.292C73.4682 94.292 73.9562 94.104 74.3322 93.728C74.7162 93.352 74.9082 92.824 74.9082 92.144V90.764C74.6922 91.148 74.3722 91.468 73.9482 91.724C73.5242 91.98 73.0282 92.108 72.4602 92.108C71.8762 92.108 71.3442 91.964 70.8642 91.676C70.3922 91.388 70.0202 90.984 69.7482 90.464C69.4762 89.944 69.3402 89.352 69.3402 88.688C69.3402 88.016 69.4762 87.428 69.7482 86.924C70.0202 86.412 70.3922 86.016 70.8642 85.736C71.3442 85.456 71.8762 85.316 72.4602 85.316ZM74.9082 88.7C74.9082 88.204 74.8082 87.772 74.6082 87.404C74.4082 87.036 74.1362 86.756 73.7922 86.564C73.4562 86.364 73.0842 86.264 72.6762 86.264C72.2682 86.264 71.8962 86.36 71.5602 86.552C71.2242 86.744 70.9562 87.024 70.7562 87.392C70.5562 87.76 70.4562 88.192 70.4562 88.688C70.4562 89.192 70.5562 89.632 70.7562 90.008C70.9562 90.376 71.2242 90.66 71.5602 90.86C71.8962 91.052 72.2682 91.148 72.6762 91.148C73.0842 91.148 73.4562 91.052 73.7922 90.86C74.1362 90.66 74.4082 90.376 74.6082 90.008C74.8082 89.632 74.9082 89.196 74.9082 88.7ZM80.7256 92.108C80.1096 92.108 79.5496 91.968 79.0456 91.688C78.5496 91.408 78.1576 91.012 77.8696 90.5C77.5896 89.98 77.4496 89.38 77.4496 88.7C77.4496 88.028 77.5936 87.436 77.8816 86.924C78.1776 86.404 78.5776 86.008 79.0816 85.736C79.5856 85.456 80.1496 85.316 80.7736 85.316C81.3976 85.316 81.9616 85.456 82.4656 85.736C82.9696 86.008 83.3656 86.4 83.6536 86.912C83.9496 87.424 84.0976 88.02 84.0976 88.7C84.0976 89.38 83.9456 89.98 83.6416 90.5C83.3456 91.012 82.9416 91.408 82.4296 91.688C81.9176 91.968 81.3496 92.108 80.7256 92.108ZM80.7256 91.148C81.1176 91.148 81.4856 91.056 81.8296 90.872C82.1736 90.688 82.4496 90.412 82.6576 90.044C82.8736 89.676 82.9816 89.228 82.9816 88.7C82.9816 88.172 82.8776 87.724 82.6696 87.356C82.4616 86.988 82.1896 86.716 81.8536 86.54C81.5176 86.356 81.1536 86.264 80.7616 86.264C80.3616 86.264 79.9936 86.356 79.6576 86.54C79.3296 86.716 79.0656 86.988 78.8656 87.356C78.6656 87.724 78.5656 88.172 78.5656 88.7C78.5656 89.236 78.6616 89.688 78.8536 90.056C79.0536 90.424 79.3176 90.7 79.6456 90.884C79.9736 91.06 80.3336 91.148 80.7256 91.148ZM85.1254 88.688C85.1254 88.016 85.2614 87.428 85.5334 86.924C85.8054 86.412 86.1774 86.016 86.6494 85.736C87.1294 85.456 87.6614 85.316 88.2454 85.316C88.8214 85.316 89.3214 85.44 89.7454 85.688C90.1694 85.936 90.4854 86.248 90.6934 86.624V85.424H91.7974V92H90.6934V90.776C90.4774 91.16 90.1534 91.48 89.7214 91.736C89.2974 91.984 88.8014 92.108 88.2334 92.108C87.6494 92.108 87.1214 91.964 86.6494 91.676C86.1774 91.388 85.8054 90.984 85.5334 90.464C85.2614 89.944 85.1254 89.352 85.1254 88.688ZM90.6934 88.7C90.6934 88.204 90.5934 87.772 90.3934 87.404C90.1934 87.036 89.9214 86.756 89.5774 86.564C89.2414 86.364 88.8694 86.264 88.4614 86.264C88.0534 86.264 87.6814 86.36 87.3454 86.552C87.0094 86.744 86.7414 87.024 86.5414 87.392C86.3414 87.76 86.2414 88.192 86.2414 88.688C86.2414 89.192 86.3414 89.632 86.5414 90.008C86.7414 90.376 87.0094 90.66 87.3454 90.86C87.6814 91.052 88.0534 91.148 88.4614 91.148C88.8694 91.148 89.2414 91.052 89.5774 90.86C89.9214 90.66 90.1934 90.376 90.3934 90.008C90.5934 89.632 90.6934 89.196 90.6934 88.7ZM94.7348 83.12V92H93.6428V83.12H94.7348Z" fill="#343333"/>
<line x1="7" y1="50.75" x2="386" y2="50.75" stroke="#A5A5A5" stroke-width="0.5"/>
<path d="M59.6806 208.242C60.7446 208.242 61.6639 208.443 62.4386 208.844C63.2226 209.236 63.8199 209.801 64.2306 210.538C64.6506 211.275 64.8606 212.143 64.8606 213.142C64.8606 214.141 64.6506 215.009 64.2306 215.746C63.8199 216.474 63.2226 217.034 62.4386 217.426C61.6639 217.809 60.7446 218 59.6806 218H56.6426V208.242H59.6806ZM59.6806 216.95C60.9406 216.95 61.9019 216.619 62.5646 215.956C63.2272 215.284 63.5586 214.346 63.5586 213.142C63.5586 211.929 63.2226 210.981 62.5506 210.3C61.8879 209.619 60.9312 209.278 59.6806 209.278H57.9166V216.95H59.6806ZM69.887 218.126C69.1683 218.126 68.515 217.963 67.927 217.636C67.3483 217.309 66.891 216.847 66.555 216.25C66.2283 215.643 66.065 214.943 66.065 214.15C66.065 213.366 66.233 212.675 66.569 212.078C66.9143 211.471 67.381 211.009 67.969 210.692C68.557 210.365 69.215 210.202 69.943 210.202C70.671 210.202 71.329 210.365 71.917 210.692C72.505 211.009 72.967 211.467 73.303 212.064C73.6483 212.661 73.821 213.357 73.821 214.15C73.821 214.943 73.6437 215.643 73.289 216.25C72.9437 216.847 72.4723 217.309 71.875 217.636C71.2777 217.963 70.615 218.126 69.887 218.126ZM69.887 217.006C70.3443 217.006 70.7737 216.899 71.175 216.684C71.5763 216.469 71.8983 216.147 72.141 215.718C72.393 215.289 72.519 214.766 72.519 214.15C72.519 213.534 72.3977 213.011 72.155 212.582C71.9123 212.153 71.595 211.835 71.203 211.63C70.811 211.415 70.3863 211.308 69.929 211.308C69.4623 211.308 69.033 211.415 68.641 211.63C68.2583 211.835 67.9503 212.153 67.717 212.582C67.4837 213.011 67.367 213.534 67.367 214.15C67.367 214.775 67.479 215.303 67.703 215.732C67.9363 216.161 68.2443 216.483 68.627 216.698C69.0097 216.903 69.4297 217.006 69.887 217.006ZM82.4961 213.87C82.4961 214.113 82.4821 214.369 82.4541 214.64H76.3221C76.3688 215.396 76.6254 215.989 77.0921 216.418C77.5681 216.838 78.1421 217.048 78.8141 217.048C79.3648 217.048 79.8221 216.922 80.1861 216.67C80.5594 216.409 80.8208 216.063 80.9701 215.634H82.3421C82.1368 216.371 81.7261 216.973 81.1101 217.44C80.4941 217.897 79.7288 218.126 78.8141 218.126C78.0861 218.126 77.4328 217.963 76.8541 217.636C76.2848 217.309 75.8368 216.847 75.5101 216.25C75.1834 215.643 75.0201 214.943 75.0201 214.15C75.0201 213.357 75.1788 212.661 75.4961 212.064C75.8134 211.467 76.2568 211.009 76.8261 210.692C77.4048 210.365 78.0674 210.202 78.8141 210.202C79.5421 210.202 80.1861 210.361 80.7461 210.678C81.3061 210.995 81.7354 211.434 82.0341 211.994C82.3421 212.545 82.4961 213.17 82.4961 213.87ZM81.1801 213.604C81.1801 213.119 81.0728 212.703 80.8581 212.358C80.6434 212.003 80.3494 211.737 79.9761 211.56C79.6121 211.373 79.2061 211.28 78.7581 211.28C78.1141 211.28 77.5634 211.485 77.1061 211.896C76.6581 212.307 76.4014 212.876 76.3361 213.604H81.1801ZM86.8937 218.126C86.3057 218.126 85.7784 218.028 85.3117 217.832C84.8451 217.627 84.4764 217.347 84.2057 216.992C83.9351 216.628 83.7857 216.213 83.7577 215.746H85.0737C85.1111 216.129 85.2884 216.441 85.6057 216.684C85.9324 216.927 86.3571 217.048 86.8797 217.048C87.3651 217.048 87.7477 216.941 88.0277 216.726C88.3077 216.511 88.4477 216.241 88.4477 215.914C88.4477 215.578 88.2984 215.331 87.9997 215.172C87.7011 215.004 87.2391 214.841 86.6137 214.682C86.0444 214.533 85.5777 214.383 85.2137 214.234C84.8591 214.075 84.5511 213.847 84.2897 213.548C84.0377 213.24 83.9117 212.839 83.9117 212.344C83.9117 211.952 84.0284 211.593 84.2617 211.266C84.4951 210.939 84.8264 210.683 85.2557 210.496C85.6851 210.3 86.1751 210.202 86.7257 210.202C87.5751 210.202 88.2611 210.417 88.7837 210.846C89.3064 211.275 89.5864 211.863 89.6237 212.61H88.3497C88.3217 212.209 88.1584 211.887 87.8597 211.644C87.5704 211.401 87.1784 211.28 86.6837 211.28C86.2264 211.28 85.8624 211.378 85.5917 211.574C85.3211 211.77 85.1857 212.027 85.1857 212.344C85.1857 212.596 85.2651 212.806 85.4237 212.974C85.5917 213.133 85.7971 213.263 86.0397 213.366C86.2917 213.459 86.6371 213.567 87.0757 213.688C87.6264 213.837 88.0744 213.987 88.4197 214.136C88.7651 214.276 89.0591 214.491 89.3017 214.78C89.5537 215.069 89.6844 215.447 89.6937 215.914C89.6937 216.334 89.5771 216.712 89.3437 217.048C89.1104 217.384 88.7791 217.65 88.3497 217.846C87.9297 218.033 87.4444 218.126 86.8937 218.126ZM101.833 210.328L97.2126 221.612H95.8966L97.4086 217.916L94.3146 210.328H95.7286L98.1366 216.544L100.517 210.328H101.833ZM106.459 218.126C105.741 218.126 105.087 217.963 104.499 217.636C103.921 217.309 103.463 216.847 103.127 216.25C102.801 215.643 102.637 214.943 102.637 214.15C102.637 213.366 102.805 212.675 103.141 212.078C103.487 211.471 103.953 211.009 104.541 210.692C105.129 210.365 105.787 210.202 106.515 210.202C107.243 210.202 107.901 210.365 108.489 210.692C109.077 211.009 109.539 211.467 109.875 212.064C110.221 212.661 110.393 213.357 110.393 214.15C110.393 214.943 110.216 215.643 109.861 216.25C109.516 216.847 109.045 217.309 108.447 217.636C107.85 217.963 107.187 218.126 106.459 218.126ZM106.459 217.006C106.917 217.006 107.346 216.899 107.747 216.684C108.149 216.469 108.471 216.147 108.713 215.718C108.965 215.289 109.091 214.766 109.091 214.15C109.091 213.534 108.97 213.011 108.727 212.582C108.485 212.153 108.167 211.835 107.775 211.63C107.383 211.415 106.959 211.308 106.501 211.308C106.035 211.308 105.605 211.415 105.213 211.63C104.831 211.835 104.523 212.153 104.289 212.582C104.056 213.011 103.939 213.534 103.939 214.15C103.939 214.775 104.051 215.303 104.275 215.732C104.509 216.161 104.817 216.483 105.199 216.698C105.582 216.903 106.002 217.006 106.459 217.006ZM118.872 210.328V218H117.598V216.866C117.356 217.258 117.015 217.566 116.576 217.79C116.147 218.005 115.671 218.112 115.148 218.112C114.551 218.112 114.014 217.991 113.538 217.748C113.062 217.496 112.684 217.123 112.404 216.628C112.134 216.133 111.998 215.531 111.998 214.822V210.328H113.258V214.654C113.258 215.41 113.45 215.993 113.832 216.404C114.215 216.805 114.738 217.006 115.4 217.006C116.082 217.006 116.618 216.796 117.01 216.376C117.402 215.956 117.598 215.345 117.598 214.542V210.328H118.872ZM122.297 211.574C122.521 211.135 122.839 210.795 123.249 210.552C123.669 210.309 124.178 210.188 124.775 210.188V211.504H124.439C123.011 211.504 122.297 212.279 122.297 213.828V218H121.023V210.328H122.297V211.574ZM133.143 210.202C133.805 210.202 134.384 210.347 134.879 210.636C135.383 210.925 135.756 211.289 135.999 211.728V210.328H137.287V218.168C137.287 218.868 137.137 219.489 136.839 220.03C136.54 220.581 136.111 221.01 135.551 221.318C135 221.626 134.356 221.78 133.619 221.78C132.611 221.78 131.771 221.542 131.099 221.066C130.427 220.59 130.03 219.941 129.909 219.12H131.169C131.309 219.587 131.598 219.96 132.037 220.24C132.475 220.529 133.003 220.674 133.619 220.674C134.319 220.674 134.888 220.455 135.327 220.016C135.775 219.577 135.999 218.961 135.999 218.168V216.558C135.747 217.006 135.373 217.379 134.879 217.678C134.384 217.977 133.805 218.126 133.143 218.126C132.461 218.126 131.841 217.958 131.281 217.622C130.73 217.286 130.296 216.815 129.979 216.208C129.661 215.601 129.503 214.911 129.503 214.136C129.503 213.352 129.661 212.666 129.979 212.078C130.296 211.481 130.73 211.019 131.281 210.692C131.841 210.365 132.461 210.202 133.143 210.202ZM135.999 214.15C135.999 213.571 135.882 213.067 135.649 212.638C135.415 212.209 135.098 211.882 134.697 211.658C134.305 211.425 133.871 211.308 133.395 211.308C132.919 211.308 132.485 211.42 132.093 211.644C131.701 211.868 131.388 212.195 131.155 212.624C130.921 213.053 130.805 213.557 130.805 214.136C130.805 214.724 130.921 215.237 131.155 215.676C131.388 216.105 131.701 216.437 132.093 216.67C132.485 216.894 132.919 217.006 133.395 217.006C133.871 217.006 134.305 216.894 134.697 216.67C135.098 216.437 135.415 216.105 135.649 215.676C135.882 215.237 135.999 214.729 135.999 214.15ZM142.785 218.126C142.067 218.126 141.413 217.963 140.825 217.636C140.247 217.309 139.789 216.847 139.453 216.25C139.127 215.643 138.963 214.943 138.963 214.15C138.963 213.366 139.131 212.675 139.467 212.078C139.813 211.471 140.279 211.009 140.867 210.692C141.455 210.365 142.113 210.202 142.841 210.202C143.569 210.202 144.227 210.365 144.815 210.692C145.403 211.009 145.865 211.467 146.201 212.064C146.547 212.661 146.719 213.357 146.719 214.15C146.719 214.943 146.542 215.643 146.187 216.25C145.842 216.847 145.371 217.309 144.773 217.636C144.176 217.963 143.513 218.126 142.785 218.126ZM142.785 217.006C143.243 217.006 143.672 216.899 144.073 216.684C144.475 216.469 144.797 216.147 145.039 215.718C145.291 215.289 145.417 214.766 145.417 214.15C145.417 213.534 145.296 213.011 145.053 212.582C144.811 212.153 144.493 211.835 144.101 211.63C143.709 211.415 143.285 211.308 142.827 211.308C142.361 211.308 141.931 211.415 141.539 211.63C141.157 211.835 140.849 212.153 140.615 212.582C140.382 213.011 140.265 213.534 140.265 214.15C140.265 214.775 140.377 215.303 140.601 215.732C140.835 216.161 141.143 216.483 141.525 216.698C141.908 216.903 142.328 217.006 142.785 217.006ZM147.919 214.136C147.919 213.352 148.077 212.666 148.395 212.078C148.712 211.481 149.146 211.019 149.697 210.692C150.257 210.365 150.877 210.202 151.559 210.202C152.231 210.202 152.814 210.347 153.309 210.636C153.803 210.925 154.172 211.289 154.415 211.728V210.328H155.703V218H154.415V216.572C154.163 217.02 153.785 217.393 153.281 217.692C152.786 217.981 152.207 218.126 151.545 218.126C150.863 218.126 150.247 217.958 149.697 217.622C149.146 217.286 148.712 216.815 148.395 216.208C148.077 215.601 147.919 214.911 147.919 214.136ZM154.415 214.15C154.415 213.571 154.298 213.067 154.065 212.638C153.831 212.209 153.514 211.882 153.113 211.658C152.721 211.425 152.287 211.308 151.811 211.308C151.335 211.308 150.901 211.42 150.509 211.644C150.117 211.868 149.804 212.195 149.571 212.624C149.337 213.053 149.221 213.557 149.221 214.136C149.221 214.724 149.337 215.237 149.571 215.676C149.804 216.105 150.117 216.437 150.509 216.67C150.901 216.894 151.335 217.006 151.811 217.006C152.287 217.006 152.721 216.894 153.113 216.67C153.514 216.437 153.831 216.105 154.065 215.676C154.298 215.237 154.415 214.729 154.415 214.15ZM159.129 207.64V218H157.855V207.64H159.129ZM168.841 210.188C169.42 210.188 169.943 210.314 170.409 210.566C170.876 210.809 171.24 211.177 171.501 211.672C171.772 212.167 171.907 212.769 171.907 213.478V218H170.647V213.66C170.647 212.895 170.456 212.311 170.073 211.91C169.691 211.499 169.168 211.294 168.505 211.294C167.833 211.294 167.297 211.504 166.895 211.924C166.503 212.344 166.307 212.955 166.307 213.758V218H165.033V207.64H166.307V211.42C166.559 211.028 166.905 210.725 167.343 210.51C167.791 210.295 168.291 210.188 168.841 210.188ZM173.512 214.136C173.512 213.352 173.671 212.666 173.988 212.078C174.306 211.481 174.74 211.019 175.29 210.692C175.85 210.365 176.471 210.202 177.152 210.202C177.824 210.202 178.408 210.347 178.902 210.636C179.397 210.925 179.766 211.289 180.008 211.728V210.328H181.296V218H180.008V216.572C179.756 217.02 179.378 217.393 178.874 217.692C178.38 217.981 177.801 218.126 177.138 218.126C176.457 218.126 175.841 217.958 175.29 217.622C174.74 217.286 174.306 216.815 173.988 216.208C173.671 215.601 173.512 214.911 173.512 214.136ZM180.008 214.15C180.008 213.571 179.892 213.067 179.658 212.638C179.425 212.209 179.108 211.882 178.706 211.658C178.314 211.425 177.88 211.308 177.404 211.308C176.928 211.308 176.494 211.42 176.102 211.644C175.71 211.868 175.398 212.195 175.164 212.624C174.931 213.053 174.814 213.557 174.814 214.136C174.814 214.724 174.931 215.237 175.164 215.676C175.398 216.105 175.71 216.437 176.102 216.67C176.494 216.894 176.928 217.006 177.404 217.006C177.88 217.006 178.314 216.894 178.706 216.67C179.108 216.437 179.425 216.105 179.658 215.676C179.892 215.237 180.008 214.729 180.008 214.15ZM186.305 216.824L188.685 210.328H190.043L187.033 218H185.549L182.539 210.328H183.911L186.305 216.824ZM198.297 213.87C198.297 214.113 198.283 214.369 198.255 214.64H192.123C192.17 215.396 192.426 215.989 192.893 216.418C193.369 216.838 193.943 217.048 194.615 217.048C195.166 217.048 195.623 216.922 195.987 216.67C196.36 216.409 196.622 216.063 196.771 215.634H198.143C197.938 216.371 197.527 216.973 196.911 217.44C196.295 217.897 195.53 218.126 194.615 218.126C193.887 218.126 193.234 217.963 192.655 217.636C192.086 217.309 191.638 216.847 191.311 216.25C190.984 215.643 190.821 214.943 190.821 214.15C190.821 213.357 190.98 212.661 191.297 212.064C191.614 211.467 192.058 211.009 192.627 210.692C193.206 210.365 193.868 210.202 194.615 210.202C195.343 210.202 195.987 210.361 196.547 210.678C197.107 210.995 197.536 211.434 197.835 211.994C198.143 212.545 198.297 213.17 198.297 213.87ZM196.981 213.604C196.981 213.119 196.874 212.703 196.659 212.358C196.444 212.003 196.15 211.737 195.777 211.56C195.413 211.373 195.007 211.28 194.559 211.28C193.915 211.28 193.364 211.485 192.907 211.896C192.459 212.307 192.202 212.876 192.137 213.604H196.981ZM203.235 214.136C203.235 213.352 203.394 212.666 203.711 212.078C204.028 211.481 204.462 211.019 205.013 210.692C205.573 210.365 206.194 210.202 206.875 210.202C207.547 210.202 208.13 210.347 208.625 210.636C209.12 210.925 209.488 211.289 209.731 211.728V210.328H211.019V218H209.731V216.572C209.479 217.02 209.101 217.393 208.597 217.692C208.102 217.981 207.524 218.126 206.861 218.126C206.18 218.126 205.564 217.958 205.013 217.622C204.462 217.286 204.028 216.815 203.711 216.208C203.394 215.601 203.235 214.911 203.235 214.136ZM209.731 214.15C209.731 213.571 209.614 213.067 209.381 212.638C209.148 212.209 208.83 211.882 208.429 211.658C208.037 211.425 207.603 211.308 207.127 211.308C206.651 211.308 206.217 211.42 205.825 211.644C205.433 211.868 205.12 212.195 204.887 212.624C204.654 213.053 204.537 213.557 204.537 214.136C204.537 214.724 204.654 215.237 204.887 215.676C205.12 216.105 205.433 216.437 205.825 216.67C206.217 216.894 206.651 217.006 207.127 217.006C207.603 217.006 208.037 216.894 208.429 216.67C208.83 216.437 209.148 216.105 209.381 215.676C209.614 215.237 209.731 214.729 209.731 214.15ZM218.458 211.378V215.9C218.458 216.273 218.538 216.539 218.696 216.698C218.855 216.847 219.13 216.922 219.522 216.922H220.46V218H219.312C218.603 218 218.071 217.837 217.716 217.51C217.362 217.183 217.184 216.647 217.184 215.9V211.378H216.19V210.328H217.184V208.396H218.458V210.328H220.46V211.378H218.458ZM222.662 209.082C222.419 209.082 222.214 208.998 222.046 208.83C221.878 208.662 221.794 208.457 221.794 208.214C221.794 207.971 221.878 207.766 222.046 207.598C222.214 207.43 222.419 207.346 222.662 207.346C222.895 207.346 223.091 207.43 223.25 207.598C223.418 207.766 223.502 207.971 223.502 208.214C223.502 208.457 223.418 208.662 223.25 208.83C223.091 208.998 222.895 209.082 222.662 209.082ZM223.278 210.328V218H222.004V210.328H223.278ZM234.675 210.188C235.273 210.188 235.805 210.314 236.271 210.566C236.738 210.809 237.107 211.177 237.377 211.672C237.648 212.167 237.783 212.769 237.783 213.478V218H236.523V213.66C236.523 212.895 236.332 212.311 235.949 211.91C235.576 211.499 235.067 211.294 234.423 211.294C233.761 211.294 233.233 211.509 232.841 211.938C232.449 212.358 232.253 212.969 232.253 213.772V218H230.993V213.66C230.993 212.895 230.802 212.311 230.419 211.91C230.046 211.499 229.537 211.294 228.893 211.294C228.231 211.294 227.703 211.509 227.311 211.938C226.919 212.358 226.723 212.969 226.723 213.772V218H225.449V210.328H226.723V211.434C226.975 211.033 227.311 210.725 227.731 210.51C228.161 210.295 228.632 210.188 229.145 210.188C229.789 210.188 230.359 210.333 230.853 210.622C231.348 210.911 231.717 211.336 231.959 211.896C232.174 211.355 232.529 210.935 233.023 210.636C233.518 210.337 234.069 210.188 234.675 210.188ZM246.873 213.87C246.873 214.113 246.859 214.369 246.831 214.64H240.699C240.746 215.396 241.002 215.989 241.469 216.418C241.945 216.838 242.519 217.048 243.191 217.048C243.742 217.048 244.199 216.922 244.563 216.67C244.936 216.409 245.198 216.063 245.347 215.634H246.719C246.514 216.371 246.103 216.973 245.487 217.44C244.871 217.897 244.106 218.126 243.191 218.126C242.463 218.126 241.81 217.963 241.231 217.636C240.662 217.309 240.214 216.847 239.887 216.25C239.56 215.643 239.397 214.943 239.397 214.15C239.397 213.357 239.556 212.661 239.873 212.064C240.19 211.467 240.634 211.009 241.203 210.692C241.782 210.365 242.444 210.202 243.191 210.202C243.919 210.202 244.563 210.361 245.123 210.678C245.683 210.995 246.112 211.434 246.411 211.994C246.719 212.545 246.873 213.17 246.873 213.87ZM245.557 213.604C245.557 213.119 245.45 212.703 245.235 212.358C245.02 212.003 244.726 211.737 244.353 211.56C243.989 211.373 243.583 211.28 243.135 211.28C242.491 211.28 241.94 211.485 241.483 211.896C241.035 212.307 240.778 212.876 240.713 213.604H245.557ZM249.829 207.64V218H248.555V207.64H249.829ZM252.658 209.082C252.415 209.082 252.21 208.998 252.042 208.83C251.874 208.662 251.79 208.457 251.79 208.214C251.79 207.971 251.874 207.766 252.042 207.598C252.21 207.43 252.415 207.346 252.658 207.346C252.891 207.346 253.087 207.43 253.246 207.598C253.414 207.766 253.498 207.971 253.498 208.214C253.498 208.457 253.414 208.662 253.246 208.83C253.087 208.998 252.891 209.082 252.658 209.082ZM253.274 210.328V218H252V210.328H253.274ZM259.183 210.188C260.117 210.188 260.873 210.473 261.451 211.042C262.03 211.602 262.319 212.414 262.319 213.478V218H261.059V213.66C261.059 212.895 260.868 212.311 260.485 211.91C260.103 211.499 259.58 211.294 258.917 211.294C258.245 211.294 257.709 211.504 257.307 211.924C256.915 212.344 256.719 212.955 256.719 213.758V218H255.445V210.328H256.719V211.42C256.971 211.028 257.312 210.725 257.741 210.51C258.18 210.295 258.661 210.188 259.183 210.188ZM271.4 213.87C271.4 214.113 271.386 214.369 271.358 214.64H265.226C265.273 215.396 265.53 215.989 265.996 216.418C266.472 216.838 267.046 217.048 267.718 217.048C268.269 217.048 268.726 216.922 269.09 216.67C269.464 216.409 269.725 216.063 269.874 215.634H271.246C271.041 216.371 270.63 216.973 270.014 217.44C269.398 217.897 268.633 218.126 267.718 218.126C266.99 218.126 266.337 217.963 265.758 217.636C265.189 217.309 264.741 216.847 264.414 216.25C264.088 215.643 263.924 214.943 263.924 214.15C263.924 213.357 264.083 212.661 264.4 212.064C264.718 211.467 265.161 211.009 265.73 210.692C266.309 210.365 266.972 210.202 267.718 210.202C268.446 210.202 269.09 210.361 269.65 210.678C270.21 210.995 270.64 211.434 270.938 211.994C271.246 212.545 271.4 213.17 271.4 213.87ZM270.084 213.604C270.084 213.119 269.977 212.703 269.762 212.358C269.548 212.003 269.254 211.737 268.88 211.56C268.516 211.373 268.11 211.28 267.662 211.28C267.018 211.28 266.468 211.485 266.01 211.896C265.562 212.307 265.306 212.876 265.24 213.604H270.084ZM275.574 208.116C276.498 208.116 277.245 208.377 277.814 208.9C278.383 209.423 278.668 210.123 278.668 211C278.668 211.98 278.365 212.708 277.758 213.184C277.151 213.651 276.33 213.884 275.294 213.884L275.252 215.214H274.146L274.09 213.002H274.496C275.42 213.002 276.143 212.862 276.666 212.582C277.189 212.302 277.45 211.775 277.45 211C277.45 210.44 277.282 209.997 276.946 209.67C276.61 209.343 276.157 209.18 275.588 209.18C275.009 209.18 274.552 209.339 274.216 209.656C273.889 209.964 273.726 210.389 273.726 210.93H272.522C272.522 210.37 272.648 209.88 272.9 209.46C273.152 209.031 273.507 208.699 273.964 208.466C274.431 208.233 274.967 208.116 275.574 208.116ZM274.692 218.084C274.449 218.084 274.244 218 274.076 217.832C273.908 217.664 273.824 217.459 273.824 217.216C273.824 216.973 273.908 216.768 274.076 216.6C274.244 216.432 274.449 216.348 274.692 216.348C274.925 216.348 275.121 216.432 275.28 216.6C275.448 216.768 275.532 216.973 275.532 217.216C275.532 217.459 275.448 217.664 275.28 217.832C275.121 218 274.925 218.084 274.692 218.084Z" fill="#575757"/>
<path d="M56.1666 249.938C56.1666 248.986 56.3812 248.132 56.8106 247.376C57.2399 246.61 57.8232 246.013 58.5606 245.584C59.3072 245.154 60.1332 244.94 61.0386 244.94C62.1026 244.94 63.0312 245.196 63.8246 245.71C64.6179 246.223 65.1966 246.951 65.5606 247.894H64.0346C63.7639 247.306 63.3719 246.853 62.8586 246.536C62.3546 246.218 61.7479 246.06 61.0386 246.06C60.3572 246.06 59.7459 246.218 59.2046 246.536C58.6632 246.853 58.2386 247.306 57.9306 247.894C57.6226 248.472 57.4686 249.154 57.4686 249.938C57.4686 250.712 57.6226 251.394 57.9306 251.982C58.2386 252.56 58.6632 253.008 59.2046 253.326C59.7459 253.643 60.3572 253.802 61.0386 253.802C61.7479 253.802 62.3546 253.648 62.8586 253.34C63.3719 253.022 63.7639 252.57 64.0346 251.982H65.5606C65.1966 252.915 64.6179 253.638 63.8246 254.152C63.0312 254.656 62.1026 254.908 61.0386 254.908C60.1332 254.908 59.3072 254.698 58.5606 254.278C57.8232 253.848 57.2399 253.256 56.8106 252.5C56.3812 251.744 56.1666 250.89 56.1666 249.938ZM66.981 250.96C66.981 250.176 67.1397 249.49 67.457 248.902C67.7744 248.304 68.2084 247.842 68.759 247.516C69.319 247.189 69.9397 247.026 70.621 247.026C71.293 247.026 71.8764 247.17 72.371 247.46C72.8657 247.749 73.2344 248.113 73.477 248.552V247.152H74.765V254.824H73.477V253.396C73.225 253.844 72.847 254.217 72.343 254.516C71.8484 254.805 71.2697 254.95 70.607 254.95C69.9257 254.95 69.3097 254.782 68.759 254.446C68.2084 254.11 67.7744 253.638 67.457 253.032C67.1397 252.425 66.981 251.734 66.981 250.96ZM73.477 250.974C73.477 250.395 73.3604 249.891 73.127 249.462C72.8937 249.032 72.5764 248.706 72.175 248.482C71.783 248.248 71.349 248.132 70.873 248.132C70.397 248.132 69.963 248.244 69.571 248.468C69.179 248.692 68.8664 249.018 68.633 249.448C68.3997 249.877 68.283 250.381 68.283 250.96C68.283 251.548 68.3997 252.061 68.633 252.5C68.8664 252.929 69.179 253.26 69.571 253.494C69.963 253.718 70.397 253.83 70.873 253.83C71.349 253.83 71.783 253.718 72.175 253.494C72.5764 253.26 72.8937 252.929 73.127 252.5C73.3604 252.061 73.477 251.552 73.477 250.974ZM80.656 247.012C81.5893 247.012 82.3453 247.296 82.924 247.866C83.5026 248.426 83.792 249.238 83.792 250.302V254.824H82.532V250.484C82.532 249.718 82.3406 249.135 81.958 248.734C81.5753 248.323 81.0526 248.118 80.39 248.118C79.718 248.118 79.1813 248.328 78.78 248.748C78.388 249.168 78.192 249.779 78.192 250.582V254.824H76.918V247.152H78.192V248.244C78.444 247.852 78.7846 247.548 79.214 247.334C79.6526 247.119 80.1333 247.012 80.656 247.012ZM96.2135 247.152L91.5935 258.436H90.2775L91.7895 254.74L88.6955 247.152H90.1095L92.5175 253.368L94.8975 247.152H96.2135ZM100.84 254.95C100.121 254.95 99.4681 254.786 98.8801 254.46C98.3015 254.133 97.8441 253.671 97.5081 253.074C97.1815 252.467 97.0181 251.767 97.0181 250.974C97.0181 250.19 97.1861 249.499 97.5221 248.902C97.8675 248.295 98.3341 247.833 98.9221 247.516C99.5101 247.189 100.168 247.026 100.896 247.026C101.624 247.026 102.282 247.189 102.87 247.516C103.458 247.833 103.92 248.29 104.256 248.888C104.601 249.485 104.774 250.18 104.774 250.974C104.774 251.767 104.597 252.467 104.242 253.074C103.897 253.671 103.425 254.133 102.828 254.46C102.231 254.786 101.568 254.95 100.84 254.95ZM100.84 253.83C101.297 253.83 101.727 253.722 102.128 253.508C102.529 253.293 102.851 252.971 103.094 252.542C103.346 252.112 103.472 251.59 103.472 250.974C103.472 250.358 103.351 249.835 103.108 249.406C102.865 248.976 102.548 248.659 102.156 248.454C101.764 248.239 101.339 248.132 100.882 248.132C100.415 248.132 99.9861 248.239 99.5941 248.454C99.2115 248.659 98.9035 248.976 98.6701 249.406C98.4368 249.835 98.3201 250.358 98.3201 250.974C98.3201 251.599 98.4321 252.126 98.6561 252.556C98.8895 252.985 99.1975 253.307 99.5801 253.522C99.9628 253.727 100.383 253.83 100.84 253.83ZM113.253 247.152V254.824H111.979V253.69C111.737 254.082 111.396 254.39 110.957 254.614C110.528 254.828 110.052 254.936 109.529 254.936C108.932 254.936 108.395 254.814 107.919 254.572C107.443 254.32 107.065 253.946 106.785 253.452C106.515 252.957 106.379 252.355 106.379 251.646V247.152H107.639V251.478C107.639 252.234 107.831 252.817 108.213 253.228C108.596 253.629 109.119 253.83 109.781 253.83C110.463 253.83 110.999 253.62 111.391 253.2C111.783 252.78 111.979 252.168 111.979 251.366V247.152H113.253ZM128.363 247.012C128.96 247.012 129.492 247.138 129.959 247.39C130.425 247.632 130.794 248.001 131.065 248.496C131.335 248.99 131.471 249.592 131.471 250.302V254.824H130.211V250.484C130.211 249.718 130.019 249.135 129.637 248.734C129.263 248.323 128.755 248.118 128.111 248.118C127.448 248.118 126.921 248.332 126.529 248.762C126.137 249.182 125.941 249.793 125.941 250.596V254.824H124.681V250.484C124.681 249.718 124.489 249.135 124.107 248.734C123.733 248.323 123.225 248.118 122.581 248.118C121.918 248.118 121.391 248.332 120.999 248.762C120.607 249.182 120.411 249.793 120.411 250.596V254.824H119.137V247.152H120.411V248.258C120.663 247.856 120.999 247.548 121.419 247.334C121.848 247.119 122.319 247.012 122.833 247.012C123.477 247.012 124.046 247.156 124.541 247.446C125.035 247.735 125.404 248.16 125.647 248.72C125.861 248.178 126.216 247.758 126.711 247.46C127.205 247.161 127.756 247.012 128.363 247.012ZM140.561 250.694C140.561 250.936 140.547 251.193 140.519 251.464H134.387C134.433 252.22 134.69 252.812 135.157 253.242C135.633 253.662 136.207 253.872 136.879 253.872C137.429 253.872 137.887 253.746 138.251 253.494C138.624 253.232 138.885 252.887 139.035 252.458H140.407C140.201 253.195 139.791 253.797 139.175 254.264C138.559 254.721 137.793 254.95 136.879 254.95C136.151 254.95 135.497 254.786 134.919 254.46C134.349 254.133 133.901 253.671 133.575 253.074C133.248 252.467 133.085 251.767 133.085 250.974C133.085 250.18 133.243 249.485 133.561 248.888C133.878 248.29 134.321 247.833 134.891 247.516C135.469 247.189 136.132 247.026 136.879 247.026C137.607 247.026 138.251 247.184 138.811 247.502C139.371 247.819 139.8 248.258 140.099 248.818C140.407 249.368 140.561 249.994 140.561 250.694ZM139.245 250.428C139.245 249.942 139.137 249.527 138.923 249.182C138.708 248.827 138.414 248.561 138.041 248.384C137.677 248.197 137.271 248.104 136.823 248.104C136.179 248.104 135.628 248.309 135.171 248.72C134.723 249.13 134.466 249.7 134.401 250.428H139.245ZM141.766 250.96C141.766 250.176 141.925 249.49 142.242 248.902C142.56 248.304 142.994 247.842 143.544 247.516C144.104 247.189 144.725 247.026 145.406 247.026C146.078 247.026 146.662 247.17 147.156 247.46C147.651 247.749 148.02 248.113 148.262 248.552V247.152H149.55V254.824H148.262V253.396C148.01 253.844 147.632 254.217 147.128 254.516C146.634 254.805 146.055 254.95 145.392 254.95C144.711 254.95 144.095 254.782 143.544 254.446C142.994 254.11 142.56 253.638 142.242 253.032C141.925 252.425 141.766 251.734 141.766 250.96ZM148.262 250.974C148.262 250.395 148.146 249.891 147.912 249.462C147.679 249.032 147.362 248.706 146.96 248.482C146.568 248.248 146.134 248.132 145.658 248.132C145.182 248.132 144.748 248.244 144.356 248.468C143.964 248.692 143.652 249.018 143.418 249.448C143.185 249.877 143.068 250.381 143.068 250.96C143.068 251.548 143.185 252.061 143.418 252.5C143.652 252.929 143.964 253.26 144.356 253.494C144.748 253.718 145.182 253.83 145.658 253.83C146.134 253.83 146.568 253.718 146.96 253.494C147.362 253.26 147.679 252.929 147.912 252.5C148.146 252.061 148.262 251.552 148.262 250.974ZM154.419 254.95C153.831 254.95 153.304 254.852 152.837 254.656C152.37 254.45 152.002 254.17 151.731 253.816C151.46 253.452 151.311 253.036 151.283 252.57H152.599C152.636 252.952 152.814 253.265 153.131 253.508C153.458 253.75 153.882 253.872 154.405 253.872C154.89 253.872 155.273 253.764 155.553 253.55C155.833 253.335 155.973 253.064 155.973 252.738C155.973 252.402 155.824 252.154 155.525 251.996C155.226 251.828 154.764 251.664 154.139 251.506C153.57 251.356 153.103 251.207 152.739 251.058C152.384 250.899 152.076 250.67 151.815 250.372C151.563 250.064 151.437 249.662 151.437 249.168C151.437 248.776 151.554 248.416 151.787 248.09C152.02 247.763 152.352 247.506 152.781 247.32C153.21 247.124 153.7 247.026 154.251 247.026C155.1 247.026 155.786 247.24 156.309 247.67C156.832 248.099 157.112 248.687 157.149 249.434H155.875C155.847 249.032 155.684 248.71 155.385 248.468C155.096 248.225 154.704 248.104 154.209 248.104C153.752 248.104 153.388 248.202 153.117 248.398C152.846 248.594 152.711 248.85 152.711 249.168C152.711 249.42 152.79 249.63 152.949 249.798C153.117 249.956 153.322 250.087 153.565 250.19C153.817 250.283 154.162 250.39 154.601 250.512C155.152 250.661 155.6 250.81 155.945 250.96C156.29 251.1 156.584 251.314 156.827 251.604C157.079 251.893 157.21 252.271 157.219 252.738C157.219 253.158 157.102 253.536 156.869 253.872C156.636 254.208 156.304 254.474 155.875 254.67C155.455 254.856 154.97 254.95 154.419 254.95ZM165.822 247.152V254.824H164.548V253.69C164.305 254.082 163.964 254.39 163.526 254.614C163.096 254.828 162.62 254.936 162.098 254.936C161.5 254.936 160.964 254.814 160.488 254.572C160.012 254.32 159.634 253.946 159.354 253.452C159.083 252.957 158.948 252.355 158.948 251.646V247.152H160.208V251.478C160.208 252.234 160.399 252.817 160.782 253.228C161.164 253.629 161.687 253.83 162.35 253.83C163.031 253.83 163.568 253.62 163.96 253.2C164.352 252.78 164.548 252.168 164.548 251.366V247.152H165.822ZM169.247 248.398C169.471 247.959 169.788 247.618 170.199 247.376C170.619 247.133 171.127 247.012 171.725 247.012V248.328H171.389C169.961 248.328 169.247 249.102 169.247 250.652V254.824H167.973V247.152H169.247V248.398ZM180.195 250.694C180.195 250.936 180.181 251.193 180.153 251.464H174.021C174.068 252.22 174.325 252.812 174.791 253.242C175.267 253.662 175.841 253.872 176.513 253.872C177.064 253.872 177.521 253.746 177.885 253.494C178.259 253.232 178.52 252.887 178.669 252.458H180.041C179.836 253.195 179.425 253.797 178.809 254.264C178.193 254.721 177.428 254.95 176.513 254.95C175.785 254.95 175.132 254.786 174.553 254.46C173.984 254.133 173.536 253.671 173.209 253.074C172.883 252.467 172.719 251.767 172.719 250.974C172.719 250.18 172.878 249.485 173.195 248.888C173.513 248.29 173.956 247.833 174.525 247.516C175.104 247.189 175.767 247.026 176.513 247.026C177.241 247.026 177.885 247.184 178.445 247.502C179.005 247.819 179.435 248.258 179.733 248.818C180.041 249.368 180.195 249.994 180.195 250.694ZM178.879 250.428C178.879 249.942 178.772 249.527 178.557 249.182C178.343 248.827 178.049 248.561 177.675 248.384C177.311 248.197 176.905 248.104 176.457 248.104C175.813 248.104 175.263 248.309 174.805 248.72C174.357 249.13 174.101 249.7 174.035 250.428H178.879ZM192.217 247.152L187.597 258.436H186.281L187.793 254.74L184.699 247.152H186.113L188.521 253.368L190.901 247.152H192.217ZM196.844 254.95C196.125 254.95 195.472 254.786 194.884 254.46C194.305 254.133 193.848 253.671 193.512 253.074C193.185 252.467 193.022 251.767 193.022 250.974C193.022 250.19 193.19 249.499 193.526 248.902C193.871 248.295 194.338 247.833 194.926 247.516C195.514 247.189 196.172 247.026 196.9 247.026C197.628 247.026 198.286 247.189 198.874 247.516C199.462 247.833 199.924 248.29 200.26 248.888C200.605 249.485 200.778 250.18 200.778 250.974C200.778 251.767 200.601 252.467 200.246 253.074C199.901 253.671 199.429 254.133 198.832 254.46C198.235 254.786 197.572 254.95 196.844 254.95ZM196.844 253.83C197.301 253.83 197.731 253.722 198.132 253.508C198.533 253.293 198.855 252.971 199.098 252.542C199.35 252.112 199.476 251.59 199.476 250.974C199.476 250.358 199.355 249.835 199.112 249.406C198.869 248.976 198.552 248.659 198.16 248.454C197.768 248.239 197.343 248.132 196.886 248.132C196.419 248.132 195.99 248.239 195.598 248.454C195.215 248.659 194.907 248.976 194.674 249.406C194.441 249.835 194.324 250.358 194.324 250.974C194.324 251.599 194.436 252.126 194.66 252.556C194.893 252.985 195.201 253.307 195.584 253.522C195.967 253.727 196.387 253.83 196.844 253.83ZM209.257 247.152V254.824H207.983V253.69C207.74 254.082 207.4 254.39 206.961 254.614C206.532 254.828 206.056 254.936 205.533 254.936C204.936 254.936 204.399 254.814 203.923 254.572C203.447 254.32 203.069 253.946 202.789 253.452C202.518 252.957 202.383 252.355 202.383 251.646V247.152H203.643V251.478C203.643 252.234 203.834 252.817 204.217 253.228C204.6 253.629 205.122 253.83 205.785 253.83C206.466 253.83 207.003 253.62 207.395 253.2C207.787 252.78 207.983 252.168 207.983 251.366V247.152H209.257ZM212.682 248.398C212.906 247.959 213.224 247.618 213.634 247.376C214.054 247.133 214.563 247.012 215.16 247.012V248.328H214.824C213.396 248.328 212.682 249.102 212.682 250.652V254.824H211.408V247.152H212.682V248.398ZM223.527 247.026C224.19 247.026 224.769 247.17 225.263 247.46C225.767 247.749 226.141 248.113 226.383 248.552V247.152H227.671V254.992C227.671 255.692 227.522 256.312 227.223 256.854C226.925 257.404 226.495 257.834 225.935 258.142C225.385 258.45 224.741 258.604 224.003 258.604C222.995 258.604 222.155 258.366 221.483 257.89C220.811 257.414 220.415 256.765 220.293 255.944H221.553C221.693 256.41 221.983 256.784 222.421 257.064C222.86 257.353 223.387 257.498 224.003 257.498C224.703 257.498 225.273 257.278 225.711 256.84C226.159 256.401 226.383 255.785 226.383 254.992V253.382C226.131 253.83 225.758 254.203 225.263 254.502C224.769 254.8 224.19 254.95 223.527 254.95C222.846 254.95 222.225 254.782 221.665 254.446C221.115 254.11 220.681 253.638 220.363 253.032C220.046 252.425 219.887 251.734 219.887 250.96C219.887 250.176 220.046 249.49 220.363 248.902C220.681 248.304 221.115 247.842 221.665 247.516C222.225 247.189 222.846 247.026 223.527 247.026ZM226.383 250.974C226.383 250.395 226.267 249.891 226.033 249.462C225.8 249.032 225.483 248.706 225.081 248.482C224.689 248.248 224.255 248.132 223.779 248.132C223.303 248.132 222.869 248.244 222.477 248.468C222.085 248.692 221.773 249.018 221.539 249.448C221.306 249.877 221.189 250.381 221.189 250.96C221.189 251.548 221.306 252.061 221.539 252.5C221.773 252.929 222.085 253.26 222.477 253.494C222.869 253.718 223.303 253.83 223.779 253.83C224.255 253.83 224.689 253.718 225.081 253.494C225.483 253.26 225.8 252.929 226.033 252.5C226.267 252.061 226.383 251.552 226.383 250.974ZM233.17 254.95C232.452 254.95 231.798 254.786 231.21 254.46C230.632 254.133 230.174 253.671 229.838 253.074C229.512 252.467 229.348 251.767 229.348 250.974C229.348 250.19 229.516 249.499 229.852 248.902C230.198 248.295 230.664 247.833 231.252 247.516C231.84 247.189 232.498 247.026 233.226 247.026C233.954 247.026 234.612 247.189 235.2 247.516C235.788 247.833 236.25 248.29 236.586 248.888C236.932 249.485 237.104 250.18 237.104 250.974C237.104 251.767 236.927 252.467 236.572 253.074C236.227 253.671 235.756 254.133 235.158 254.46C234.561 254.786 233.898 254.95 233.17 254.95ZM233.17 253.83C233.628 253.83 234.057 253.722 234.458 253.508C234.86 253.293 235.182 252.971 235.424 252.542C235.676 252.112 235.802 251.59 235.802 250.974C235.802 250.358 235.681 249.835 235.438 249.406C235.196 248.976 234.878 248.659 234.486 248.454C234.094 248.239 233.67 248.132 233.212 248.132C232.746 248.132 232.316 248.239 231.924 248.454C231.542 248.659 231.234 248.976 231 249.406C230.767 249.835 230.65 250.358 230.65 250.974C230.65 251.599 230.762 252.126 230.986 252.556C231.22 252.985 231.528 253.307 231.91 253.522C232.293 253.727 232.713 253.83 233.17 253.83ZM238.303 250.96C238.303 250.176 238.462 249.49 238.779 248.902C239.097 248.304 239.531 247.842 240.081 247.516C240.641 247.189 241.262 247.026 241.943 247.026C242.615 247.026 243.199 247.17 243.693 247.46C244.188 247.749 244.557 248.113 244.799 248.552V247.152H246.087V254.824H244.799V253.396C244.547 253.844 244.169 254.217 243.665 254.516C243.171 254.805 242.592 254.95 241.929 254.95C241.248 254.95 240.632 254.782 240.081 254.446C239.531 254.11 239.097 253.638 238.779 253.032C238.462 252.425 238.303 251.734 238.303 250.96ZM244.799 250.974C244.799 250.395 244.683 249.891 244.449 249.462C244.216 249.032 243.899 248.706 243.497 248.482C243.105 248.248 242.671 248.132 242.195 248.132C241.719 248.132 241.285 248.244 240.893 248.468C240.501 248.692 240.189 249.018 239.955 249.448C239.722 249.877 239.605 250.381 239.605 250.96C239.605 251.548 239.722 252.061 239.955 252.5C240.189 252.929 240.501 253.26 240.893 253.494C241.285 253.718 241.719 253.83 242.195 253.83C242.671 253.83 243.105 253.718 243.497 253.494C243.899 253.26 244.216 252.929 244.449 252.5C244.683 252.061 244.799 251.552 244.799 250.974ZM249.514 244.464V254.824H248.24V244.464H249.514ZM254.178 244.94C255.102 244.94 255.848 245.201 256.418 245.724C256.987 246.246 257.272 246.946 257.272 247.824C257.272 248.804 256.968 249.532 256.362 250.008C255.755 250.474 254.934 250.708 253.898 250.708L253.856 252.038H252.75L252.694 249.826H253.1C254.024 249.826 254.747 249.686 255.27 249.406C255.792 249.126 256.054 248.598 256.054 247.824C256.054 247.264 255.886 246.82 255.55 246.494C255.214 246.167 254.761 246.004 254.192 246.004C253.613 246.004 253.156 246.162 252.82 246.48C252.493 246.788 252.33 247.212 252.33 247.754H251.126C251.126 247.194 251.252 246.704 251.504 246.284C251.756 245.854 252.11 245.523 252.568 245.29C253.034 245.056 253.571 244.94 254.178 244.94ZM253.296 254.908C253.053 254.908 252.848 254.824 252.68 254.656C252.512 254.488 252.428 254.282 252.428 254.04C252.428 253.797 252.512 253.592 252.68 253.424C252.848 253.256 253.053 253.172 253.296 253.172C253.529 253.172 253.725 253.256 253.884 253.424C254.052 253.592 254.136 253.797 254.136 254.04C254.136 254.282 254.052 254.488 253.884 254.656C253.725 254.824 253.529 254.908 253.296 254.908Z" fill="#575757"/>
<path d="M42.6773 204.588H22.4223C21.9352 204.588 21.5416 204.982 21.5416 205.469V225.724C21.5416 226.211 21.9352 226.604 22.4223 226.604H42.6773C43.1644 226.604 43.558 226.211 43.558 225.724V205.469C43.558 204.982 43.1644 204.588 42.6773 204.588ZM41.5765 224.623H23.5231V206.57H41.5765V224.623Z" fill="black"/>
<path d="M42.6773 240.396H22.4223C21.9352 240.396 21.5416 240.789 21.5416 241.276V261.531C21.5416 262.018 21.9352 262.412 22.4223 262.412H42.6773C43.1645 262.412 43.558 262.018 43.558 261.531V241.276C43.558 240.789 43.1645 240.396 42.6773 240.396ZM37.5998 247.377L31.804 255.413C31.723 255.526 31.6162 255.619 31.4925 255.682C31.3688 255.746 31.2317 255.779 31.0926 255.779C30.9535 255.779 30.8164 255.746 30.6927 255.682C30.569 255.619 30.4622 255.526 30.3812 255.413L26.9494 250.658C26.8448 250.512 26.9494 250.308 27.1283 250.308H28.419C28.6997 250.308 28.9666 250.443 29.1318 250.674L31.0912 253.393L35.4174 247.394C35.5826 247.166 35.8468 247.028 36.1302 247.028H37.4209C37.5998 247.028 37.7044 247.232 37.5998 247.377V247.377Z" fill="black"/>
<circle cx="349.09" cy="95.0897" r="1.91029" transform="rotate(-90 349.09 95.0897)" fill="#474747"/>
<circle cx="349.09" cy="88.0453" r="1.91029" transform="rotate(-90 349.09 88.0453)" fill="#474747"/>
<circle cx="349.09" cy="81.0008" r="1.91029" transform="rotate(-90 349.09 81.0008)" fill="#474747"/>
<defs>
<filter id="filter0_d" x="0.564575" y="0" width="387" height="351" filterUnits="userSpaceOnUse" color-interpolation-filters="sRGB">
<feFlood flood-opacity="0" result="BackgroundImageFix"/>
<feColorMatrix in="SourceAlpha" type="matrix" values="0 0 0 0 0 0 0 0 0 0 0 0 0 0 0 0 0 0 127 0"/>
<feOffset dy="4"/>
<feGaussianBlur stdDeviation="2"/>
<feColorMatrix type="matrix" values="0 0 0 0 0 0 0 0 0 0 0 0 0 0 0 0 0 0 0.25 0"/>
<feBlend mode="normal" in2="BackgroundImageFix" result="effect1_dropShadow"/>
<feBlend mode="normal" in="SourceGraphic" in2="effect1_dropShadow" result="shape"/>
</filter>
</defs>
</svg>
