<svg width="387" height="351" viewBox="0 0 387 351" fill="none" xmlns="http://www.w3.org/2000/svg">
<g filter="url(#filter0_d)">
<rect x="4" width="379" height="343" rx="6" fill="white"/>
<rect x="4.5" y="0.5" width="378" height="342" rx="5.5" stroke="black" stroke-opacity="0.34"/>
</g>
<rect x="15.5" y="145" width="359" height="40" rx="3" fill="#F4F4F4"/>
<rect x="15.5" y="195.623" width="359" height="40" rx="3" fill="#F4F4F4"/>
<rect x="15.5" y="243.623" width="359" height="40" rx="3" fill="#F4F4F4"/>
<path d="M20.828 87L18.836 83.58H17.516V87H16.424V78.636H19.124C19.756 78.636 20.288 78.744 20.72 78.96C21.16 79.176 21.488 79.468 21.704 79.836C21.92 80.204 22.028 80.624 22.028 81.096C22.028 81.672 21.86 82.18 21.524 82.62C21.196 83.06 20.7 83.352 20.036 83.496L22.136 87H20.828ZM17.516 82.704H19.124C19.716 82.704 20.16 82.56 20.456 82.272C20.752 81.976 20.9 81.584 20.9 81.096C20.9 80.6 20.752 80.216 20.456 79.944C20.168 79.672 19.724 79.536 19.124 79.536H17.516V82.704ZM29.7248 83.46C29.7248 83.668 29.7128 83.888 29.6888 84.12H24.4328C24.4728 84.768 24.6928 85.276 25.0928 85.644C25.5008 86.004 25.9928 86.184 26.5688 86.184C27.0408 86.184 27.4328 86.076 27.7448 85.86C28.0648 85.636 28.2888 85.34 28.4168 84.972H29.5928C29.4168 85.604 29.0648 86.12 28.5368 86.52C28.0088 86.912 27.3528 87.108 26.5688 87.108C25.9448 87.108 25.3848 86.968 24.8888 86.688C24.4008 86.408 24.0168 86.012 23.7368 85.5C23.4568 84.98 23.3168 84.38 23.3168 83.7C23.3168 83.02 23.4528 82.424 23.7248 81.912C23.9968 81.4 24.3768 81.008 24.8648 80.736C25.3608 80.456 25.9288 80.316 26.5688 80.316C27.1928 80.316 27.7448 80.452 28.2248 80.724C28.7048 80.996 29.0728 81.372 29.3288 81.852C29.5928 82.324 29.7248 82.86 29.7248 83.46ZM28.5968 83.232C28.5968 82.816 28.5048 82.46 28.3208 82.164C28.1368 81.86 27.8848 81.632 27.5648 81.48C27.2528 81.32 26.9048 81.24 26.5208 81.24C25.9688 81.24 25.4968 81.416 25.1048 81.768C24.7208 82.12 24.5008 82.608 24.4448 83.232H28.5968ZM33.8422 81.324H32.4622V87H31.3702V81.324H30.5182V80.424H31.3702V79.956C31.3702 79.22 31.5582 78.684 31.9342 78.348C32.3182 78.004 32.9302 77.832 33.7702 77.832V78.744C33.2902 78.744 32.9502 78.84 32.7502 79.032C32.5582 79.216 32.4622 79.524 32.4622 79.956V80.424H33.8422V81.324ZM37.9834 87.108C37.3674 87.108 36.8074 86.968 36.3034 86.688C35.8074 86.408 35.4154 86.012 35.1274 85.5C34.8474 84.98 34.7074 84.38 34.7074 83.7C34.7074 83.028 34.8514 82.436 35.1394 81.924C35.4354 81.404 35.8354 81.008 36.3394 80.736C36.8434 80.456 37.4074 80.316 38.0314 80.316C38.6554 80.316 39.2194 80.456 39.7234 80.736C40.2274 81.008 40.6234 81.4 40.9114 81.912C41.2074 82.424 41.3554 83.02 41.3554 83.7C41.3554 84.38 41.2034 84.98 40.8994 85.5C40.6034 86.012 40.1994 86.408 39.6874 86.688C39.1754 86.968 38.6074 87.108 37.9834 87.108ZM37.9834 86.148C38.3754 86.148 38.7434 86.056 39.0874 85.872C39.4314 85.688 39.7074 85.412 39.9154 85.044C40.1314 84.676 40.2394 84.228 40.2394 83.7C40.2394 83.172 40.1354 82.724 39.9274 82.356C39.7194 81.988 39.4474 81.716 39.1114 81.54C38.7754 81.356 38.4114 81.264 38.0194 81.264C37.6194 81.264 37.2514 81.356 36.9154 81.54C36.5874 81.716 36.3234 81.988 36.1234 82.356C35.9234 82.724 35.8234 83.172 35.8234 83.7C35.8234 84.236 35.9194 84.688 36.1114 85.056C36.3114 85.424 36.5754 85.7 36.9034 85.884C37.2314 86.06 37.5914 86.148 37.9834 86.148ZM42.3832 83.7C42.3832 83.02 42.5192 82.428 42.7912 81.924C43.0632 81.412 43.4392 81.016 43.9192 80.736C44.4072 80.456 44.9632 80.316 45.5872 80.316C46.3952 80.316 47.0592 80.512 47.5792 80.904C48.1072 81.296 48.4552 81.84 48.6232 82.536H47.4472C47.3352 82.136 47.1152 81.82 46.7872 81.588C46.4672 81.356 46.0672 81.24 45.5872 81.24C44.9632 81.24 44.4592 81.456 44.0752 81.888C43.6912 82.312 43.4992 82.916 43.4992 83.7C43.4992 84.492 43.6912 85.104 44.0752 85.536C44.4592 85.968 44.9632 86.184 45.5872 86.184C46.0672 86.184 46.4672 86.072 46.7872 85.848C47.1072 85.624 47.3272 85.304 47.4472 84.888H48.6232C48.4472 85.56 48.0952 86.1 47.5672 86.508C47.0392 86.908 46.3792 87.108 45.5872 87.108C44.9632 87.108 44.4072 86.968 43.9192 86.688C43.4392 86.408 43.0632 86.012 42.7912 85.5C42.5192 84.988 42.3832 84.388 42.3832 83.7ZM55.9123 80.424V87H54.8203V86.028C54.6123 86.364 54.3203 86.628 53.9443 86.82C53.5763 87.004 53.1683 87.096 52.7203 87.096C52.2083 87.096 51.7483 86.992 51.3403 86.784C50.9323 86.568 50.6083 86.248 50.3683 85.824C50.1363 85.4 50.0203 84.884 50.0203 84.276V80.424H51.1003V84.132C51.1003 84.78 51.2643 85.28 51.5923 85.632C51.9203 85.976 52.3683 86.148 52.9363 86.148C53.5203 86.148 53.9803 85.968 54.3163 85.608C54.6523 85.248 54.8203 84.724 54.8203 84.036V80.424H55.9123ZM60.084 87.108C59.58 87.108 59.128 87.024 58.728 86.856C58.328 86.68 58.012 86.44 57.78 86.136C57.548 85.824 57.42 85.468 57.396 85.068H58.524C58.556 85.396 58.708 85.664 58.98 85.872C59.26 86.08 59.624 86.184 60.072 86.184C60.488 86.184 60.816 86.092 61.056 85.908C61.296 85.724 61.416 85.492 61.416 85.212C61.416 84.924 61.288 84.712 61.032 84.576C60.776 84.432 60.38 84.292 59.844 84.156C59.356 84.028 58.956 83.9 58.644 83.772C58.34 83.636 58.076 83.44 57.852 83.184C57.636 82.92 57.528 82.576 57.528 82.152C57.528 81.816 57.628 81.508 57.828 81.228C58.028 80.948 58.312 80.728 58.68 80.568C59.048 80.4 59.468 80.316 59.94 80.316C60.668 80.316 61.256 80.5 61.704 80.868C62.152 81.236 62.392 81.74 62.424 82.38H61.332C61.308 82.036 61.168 81.76 60.912 81.552C60.664 81.344 60.328 81.24 59.904 81.24C59.512 81.24 59.2 81.324 58.968 81.492C58.736 81.66 58.62 81.88 58.62 82.152C58.62 82.368 58.688 82.548 58.824 82.692C58.968 82.828 59.144 82.94 59.352 83.028C59.568 83.108 59.864 83.2 60.24 83.304C60.712 83.432 61.096 83.56 61.392 83.688C61.688 83.808 61.94 83.992 62.148 84.24C62.364 84.488 62.476 84.812 62.484 85.212C62.484 85.572 62.384 85.896 62.184 86.184C61.984 86.472 61.7 86.7 61.332 86.868C60.972 87.028 60.556 87.108 60.084 87.108ZM64.5896 79.356C64.3816 79.356 64.2056 79.284 64.0616 79.14C63.9176 78.996 63.8456 78.82 63.8456 78.612C63.8456 78.404 63.9176 78.228 64.0616 78.084C64.2056 77.94 64.3816 77.868 64.5896 77.868C64.7896 77.868 64.9576 77.94 65.0936 78.084C65.2376 78.228 65.3096 78.404 65.3096 78.612C65.3096 78.82 65.2376 78.996 65.0936 79.14C64.9576 79.284 64.7896 79.356 64.5896 79.356ZM65.1176 80.424V87H64.0256V80.424H65.1176ZM70.1827 80.304C70.9827 80.304 71.6307 80.548 72.1267 81.036C72.6227 81.516 72.8707 82.212 72.8707 83.124V87H71.7907V83.28C71.7907 82.624 71.6267 82.124 71.2987 81.78C70.9707 81.428 70.5227 81.252 69.9547 81.252C69.3787 81.252 68.9187 81.432 68.5747 81.792C68.2387 82.152 68.0707 82.676 68.0707 83.364V87H66.9787V80.424H68.0707V81.36C68.2867 81.024 68.5787 80.764 68.9467 80.58C69.3227 80.396 69.7347 80.304 70.1827 80.304ZM77.3665 80.316C77.9345 80.316 78.4305 80.44 78.8545 80.688C79.2865 80.936 79.6065 81.248 79.8145 81.624V80.424H80.9185V87.144C80.9185 87.744 80.7905 88.276 80.5345 88.74C80.2785 89.212 79.9105 89.58 79.4305 89.844C78.9585 90.108 78.4065 90.24 77.7745 90.24C76.9105 90.24 76.1905 90.036 75.6145 89.628C75.0385 89.22 74.6985 88.664 74.5945 87.96H75.6745C75.7945 88.36 76.0425 88.68 76.4185 88.92C76.7945 89.168 77.2465 89.292 77.7745 89.292C78.3745 89.292 78.8625 89.104 79.2385 88.728C79.6225 88.352 79.8145 87.824 79.8145 87.144V85.764C79.5985 86.148 79.2785 86.468 78.8545 86.724C78.4305 86.98 77.9345 87.108 77.3665 87.108C76.7825 87.108 76.2505 86.964 75.7705 86.676C75.2985 86.388 74.9265 85.984 74.6545 85.464C74.3825 84.944 74.2465 84.352 74.2465 83.688C74.2465 83.016 74.3825 82.428 74.6545 81.924C74.9265 81.412 75.2985 81.016 75.7705 80.736C76.2505 80.456 76.7825 80.316 77.3665 80.316ZM79.8145 83.7C79.8145 83.204 79.7145 82.772 79.5145 82.404C79.3145 82.036 79.0425 81.756 78.6985 81.564C78.3625 81.364 77.9905 81.264 77.5825 81.264C77.1745 81.264 76.8025 81.36 76.4665 81.552C76.1305 81.744 75.8625 82.024 75.6625 82.392C75.4625 82.76 75.3625 83.192 75.3625 83.688C75.3625 84.192 75.4625 84.632 75.6625 85.008C75.8625 85.376 76.1305 85.66 76.4665 85.86C76.8025 86.052 77.1745 86.148 77.5825 86.148C77.9905 86.148 78.3625 86.052 78.6985 85.86C79.0425 85.66 79.3145 85.376 79.5145 85.008C79.7145 84.632 79.8145 84.196 79.8145 83.7ZM88.8311 87.108C88.2151 87.108 87.6551 86.968 87.1511 86.688C86.6551 86.408 86.2631 86.012 85.9751 85.5C85.6951 84.98 85.5551 84.38 85.5551 83.7C85.5551 83.028 85.6991 82.436 85.9871 81.924C86.2831 81.404 86.6831 81.008 87.1871 80.736C87.6911 80.456 88.2551 80.316 88.8791 80.316C89.5031 80.316 90.0671 80.456 90.5711 80.736C91.0751 81.008 91.4711 81.4 91.7591 81.912C92.0551 82.424 92.2031 83.02 92.2031 83.7C92.2031 84.38 92.0511 84.98 91.7471 85.5C91.4511 86.012 91.0471 86.408 90.5351 86.688C90.0231 86.968 89.4551 87.108 88.8311 87.108ZM88.8311 86.148C89.2231 86.148 89.5911 86.056 89.9351 85.872C90.2791 85.688 90.5551 85.412 90.7631 85.044C90.9791 84.676 91.0871 84.228 91.0871 83.7C91.0871 83.172 90.9831 82.724 90.7751 82.356C90.5671 81.988 90.2951 81.716 89.9591 81.54C89.6231 81.356 89.2591 81.264 88.8671 81.264C88.4671 81.264 88.0991 81.356 87.7631 81.54C87.4351 81.716 87.1711 81.988 86.9711 82.356C86.7711 82.724 86.6711 83.172 86.6711 83.7C86.6711 84.236 86.7671 84.688 86.9591 85.056C87.1591 85.424 87.4231 85.7 87.7511 85.884C88.0791 86.06 88.4391 86.148 88.8311 86.148ZM96.8428 80.304C97.6428 80.304 98.2908 80.548 98.7868 81.036C99.2828 81.516 99.5308 82.212 99.5308 83.124V87H98.4508V83.28C98.4508 82.624 98.2868 82.124 97.9588 81.78C97.6308 81.428 97.1828 81.252 96.6148 81.252C96.0388 81.252 95.5788 81.432 95.2348 81.792C94.8988 82.152 94.7308 82.676 94.7308 83.364V87H93.6388V80.424H94.7308V81.36C94.9468 81.024 95.2388 80.764 95.6068 80.58C95.9828 80.396 96.3948 80.304 96.8428 80.304ZM110.178 80.424L106.218 90.096H105.09L106.386 86.928L103.734 80.424H104.946L107.01 85.752L109.05 80.424H110.178ZM114.144 87.108C113.528 87.108 112.968 86.968 112.464 86.688C111.968 86.408 111.576 86.012 111.288 85.5C111.008 84.98 110.868 84.38 110.868 83.7C110.868 83.028 111.012 82.436 111.3 81.924C111.596 81.404 111.996 81.008 112.5 80.736C113.004 80.456 113.568 80.316 114.192 80.316C114.816 80.316 115.38 80.456 115.884 80.736C116.388 81.008 116.784 81.4 117.072 81.912C117.368 82.424 117.516 83.02 117.516 83.7C117.516 84.38 117.364 84.98 117.06 85.5C116.764 86.012 116.36 86.408 115.848 86.688C115.336 86.968 114.768 87.108 114.144 87.108ZM114.144 86.148C114.536 86.148 114.904 86.056 115.248 85.872C115.592 85.688 115.868 85.412 116.076 85.044C116.292 84.676 116.4 84.228 116.4 83.7C116.4 83.172 116.296 82.724 116.088 82.356C115.88 81.988 115.608 81.716 115.272 81.54C114.936 81.356 114.572 81.264 114.18 81.264C113.78 81.264 113.412 81.356 113.076 81.54C112.748 81.716 112.484 81.988 112.284 82.356C112.084 82.724 111.984 83.172 111.984 83.7C111.984 84.236 112.08 84.688 112.272 85.056C112.472 85.424 112.736 85.7 113.064 85.884C113.392 86.06 113.752 86.148 114.144 86.148ZM124.783 80.424V87H123.691V86.028C123.483 86.364 123.191 86.628 122.815 86.82C122.447 87.004 122.039 87.096 121.591 87.096C121.079 87.096 120.619 86.992 120.211 86.784C119.803 86.568 119.479 86.248 119.239 85.824C119.007 85.4 118.891 84.884 118.891 84.276V80.424H119.971V84.132C119.971 84.78 120.135 85.28 120.463 85.632C120.791 85.976 121.239 86.148 121.807 86.148C122.391 86.148 122.851 85.968 123.187 85.608C123.523 85.248 123.691 84.724 123.691 84.036V80.424H124.783ZM127.719 81.492C127.911 81.116 128.183 80.824 128.535 80.616C128.895 80.408 129.331 80.304 129.843 80.304V81.432H129.555C128.331 81.432 127.719 82.096 127.719 83.424V87H126.627V80.424H127.719V81.492ZM136.751 85.992L138.791 80.424H139.955L137.375 87H136.103L133.523 80.424H134.699L136.751 85.992ZM140.621 83.688C140.621 83.016 140.757 82.428 141.029 81.924C141.301 81.412 141.673 81.016 142.145 80.736C142.625 80.456 143.157 80.316 143.741 80.316C144.317 80.316 144.817 80.44 145.241 80.688C145.665 80.936 145.981 81.248 146.189 81.624V80.424H147.293V87H146.189V85.776C145.973 86.16 145.649 86.48 145.217 86.736C144.793 86.984 144.297 87.108 143.729 87.108C143.145 87.108 142.617 86.964 142.145 86.676C141.673 86.388 141.301 85.984 141.029 85.464C140.757 84.944 140.621 84.352 140.621 83.688ZM146.189 83.7C146.189 83.204 146.089 82.772 145.889 82.404C145.689 82.036 145.417 81.756 145.073 81.564C144.737 81.364 144.365 81.264 143.957 81.264C143.549 81.264 143.177 81.36 142.841 81.552C142.505 81.744 142.237 82.024 142.037 82.392C141.837 82.76 141.737 83.192 141.737 83.688C141.737 84.192 141.837 84.632 142.037 85.008C142.237 85.376 142.505 85.66 142.841 85.86C143.177 86.052 143.549 86.148 143.957 86.148C144.365 86.148 144.737 86.052 145.073 85.86C145.417 85.66 145.689 85.376 145.889 85.008C146.089 84.632 146.189 84.196 146.189 83.7ZM150.231 78.12V87H149.139V78.12H150.231ZM157.924 80.424V87H156.832V86.028C156.624 86.364 156.332 86.628 155.956 86.82C155.588 87.004 155.18 87.096 154.732 87.096C154.22 87.096 153.76 86.992 153.352 86.784C152.944 86.568 152.62 86.248 152.38 85.824C152.148 85.4 152.032 84.884 152.032 84.276V80.424H153.112V84.132C153.112 84.78 153.276 85.28 153.604 85.632C153.932 85.976 154.38 86.148 154.948 86.148C155.532 86.148 155.992 85.968 156.328 85.608C156.664 85.248 156.832 84.724 156.832 84.036V80.424H157.924ZM165.768 83.46C165.768 83.668 165.756 83.888 165.732 84.12H160.476C160.516 84.768 160.736 85.276 161.136 85.644C161.544 86.004 162.036 86.184 162.612 86.184C163.084 86.184 163.476 86.076 163.788 85.86C164.108 85.636 164.332 85.34 164.46 84.972H165.636C165.46 85.604 165.108 86.12 164.58 86.52C164.052 86.912 163.396 87.108 162.612 87.108C161.988 87.108 161.428 86.968 160.932 86.688C160.444 86.408 160.06 86.012 159.78 85.5C159.5 84.98 159.36 84.38 159.36 83.7C159.36 83.02 159.496 82.424 159.768 81.912C160.04 81.4 160.42 81.008 160.908 80.736C161.404 80.456 161.972 80.316 162.612 80.316C163.236 80.316 163.788 80.452 164.268 80.724C164.748 80.996 165.116 81.372 165.372 81.852C165.636 82.324 165.768 82.86 165.768 83.46ZM164.64 83.232C164.64 82.816 164.548 82.46 164.364 82.164C164.18 81.86 163.928 81.632 163.608 81.48C163.296 81.32 162.948 81.24 162.564 81.24C162.012 81.24 161.54 81.416 161.148 81.768C160.764 82.12 160.544 82.608 160.488 83.232H164.64ZM169.537 87.108C169.033 87.108 168.581 87.024 168.181 86.856C167.781 86.68 167.465 86.44 167.233 86.136C167.001 85.824 166.873 85.468 166.849 85.068H167.977C168.009 85.396 168.161 85.664 168.433 85.872C168.713 86.08 169.077 86.184 169.525 86.184C169.941 86.184 170.269 86.092 170.509 85.908C170.749 85.724 170.869 85.492 170.869 85.212C170.869 84.924 170.741 84.712 170.485 84.576C170.229 84.432 169.833 84.292 169.297 84.156C168.809 84.028 168.409 83.9 168.097 83.772C167.793 83.636 167.529 83.44 167.305 83.184C167.089 82.92 166.981 82.576 166.981 82.152C166.981 81.816 167.081 81.508 167.281 81.228C167.481 80.948 167.765 80.728 168.133 80.568C168.501 80.4 168.921 80.316 169.393 80.316C170.121 80.316 170.709 80.5 171.157 80.868C171.605 81.236 171.845 81.74 171.877 82.38H170.785C170.761 82.036 170.621 81.76 170.365 81.552C170.117 81.344 169.781 81.24 169.357 81.24C168.965 81.24 168.653 81.324 168.421 81.492C168.189 81.66 168.073 81.88 168.073 82.152C168.073 82.368 168.141 82.548 168.277 82.692C168.421 82.828 168.597 82.94 168.805 83.028C169.021 83.108 169.317 83.2 169.693 83.304C170.165 83.432 170.549 83.56 170.845 83.688C171.141 83.808 171.393 83.992 171.601 84.24C171.817 84.488 171.929 84.812 171.937 85.212C171.937 85.572 171.837 85.896 171.637 86.184C171.437 86.472 171.153 86.7 170.785 86.868C170.425 87.028 170.009 87.108 169.537 87.108ZM176.27 83.7C176.27 83.02 176.406 82.428 176.678 81.924C176.95 81.412 177.326 81.016 177.806 80.736C178.294 80.456 178.85 80.316 179.474 80.316C180.282 80.316 180.946 80.512 181.466 80.904C181.994 81.296 182.342 81.84 182.51 82.536H181.334C181.222 82.136 181.002 81.82 180.674 81.588C180.354 81.356 179.954 81.24 179.474 81.24C178.85 81.24 178.346 81.456 177.962 81.888C177.578 82.312 177.386 82.916 177.386 83.7C177.386 84.492 177.578 85.104 177.962 85.536C178.346 85.968 178.85 86.184 179.474 86.184C179.954 86.184 180.354 86.072 180.674 85.848C180.994 85.624 181.214 85.304 181.334 84.888H182.51C182.334 85.56 181.982 86.1 181.454 86.508C180.926 86.908 180.266 87.108 179.474 87.108C178.85 87.108 178.294 86.968 177.806 86.688C177.326 86.408 176.95 86.012 176.678 85.5C176.406 84.988 176.27 84.388 176.27 83.7ZM183.559 83.688C183.559 83.016 183.695 82.428 183.967 81.924C184.239 81.412 184.611 81.016 185.083 80.736C185.563 80.456 186.095 80.316 186.679 80.316C187.255 80.316 187.755 80.44 188.179 80.688C188.603 80.936 188.919 81.248 189.127 81.624V80.424H190.231V87H189.127V85.776C188.911 86.16 188.587 86.48 188.155 86.736C187.731 86.984 187.235 87.108 186.667 87.108C186.083 87.108 185.555 86.964 185.083 86.676C184.611 86.388 184.239 85.984 183.967 85.464C183.695 84.944 183.559 84.352 183.559 83.688ZM189.127 83.7C189.127 83.204 189.027 82.772 188.827 82.404C188.627 82.036 188.355 81.756 188.011 81.564C187.675 81.364 187.303 81.264 186.895 81.264C186.487 81.264 186.115 81.36 185.779 81.552C185.443 81.744 185.175 82.024 184.975 82.392C184.775 82.76 184.675 83.192 184.675 83.688C184.675 84.192 184.775 84.632 184.975 85.008C185.175 85.376 185.443 85.66 185.779 85.86C186.115 86.052 186.487 86.148 186.895 86.148C187.303 86.148 187.675 86.052 188.011 85.86C188.355 85.66 188.627 85.376 188.827 85.008C189.027 84.632 189.127 84.196 189.127 83.7ZM195.28 80.304C196.08 80.304 196.728 80.548 197.224 81.036C197.72 81.516 197.968 82.212 197.968 83.124V87H196.888V83.28C196.888 82.624 196.724 82.124 196.396 81.78C196.068 81.428 195.62 81.252 195.052 81.252C194.476 81.252 194.016 81.432 193.672 81.792C193.336 82.152 193.168 82.676 193.168 83.364V87H192.076V80.424H193.168V81.36C193.384 81.024 193.676 80.764 194.044 80.58C194.42 80.396 194.832 80.304 195.28 80.304ZM206.215 80.304C206.711 80.304 207.159 80.412 207.559 80.628C207.959 80.836 208.271 81.152 208.495 81.576C208.727 82 208.843 82.516 208.843 83.124V87H207.763V83.28C207.763 82.624 207.599 82.124 207.271 81.78C206.943 81.428 206.495 81.252 205.927 81.252C205.351 81.252 204.891 81.432 204.547 81.792C204.211 82.152 204.043 82.676 204.043 83.364V87H202.951V78.12H204.043V81.36C204.259 81.024 204.555 80.764 204.931 80.58C205.315 80.396 205.743 80.304 206.215 80.304ZM216.627 83.46C216.627 83.668 216.615 83.888 216.591 84.12H211.335C211.375 84.768 211.595 85.276 211.995 85.644C212.403 86.004 212.895 86.184 213.471 86.184C213.943 86.184 214.335 86.076 214.647 85.86C214.967 85.636 215.191 85.34 215.319 84.972H216.495C216.319 85.604 215.967 86.12 215.439 86.52C214.911 86.912 214.255 87.108 213.471 87.108C212.847 87.108 212.287 86.968 211.791 86.688C211.303 86.408 210.919 86.012 210.639 85.5C210.359 84.98 210.219 84.38 210.219 83.7C210.219 83.02 210.355 82.424 210.627 81.912C210.899 81.4 211.279 81.008 211.767 80.736C212.263 80.456 212.831 80.316 213.471 80.316C214.095 80.316 214.647 80.452 215.127 80.724C215.607 80.996 215.975 81.372 216.231 81.852C216.495 82.324 216.627 82.86 216.627 83.46ZM215.499 83.232C215.499 82.816 215.407 82.46 215.223 82.164C215.039 81.86 214.787 81.632 214.467 81.48C214.155 81.32 213.807 81.24 213.423 81.24C212.871 81.24 212.399 81.416 212.007 81.768C211.623 82.12 211.403 82.608 211.347 83.232H215.499ZM219.161 78.12V87H218.069V78.12H219.161ZM222.114 81.636C222.33 81.26 222.65 80.948 223.074 80.7C223.506 80.444 224.006 80.316 224.574 80.316C225.158 80.316 225.686 80.456 226.158 80.736C226.638 81.016 227.014 81.412 227.286 81.924C227.558 82.428 227.694 83.016 227.694 83.688C227.694 84.352 227.558 84.944 227.286 85.464C227.014 85.984 226.638 86.388 226.158 86.676C225.686 86.964 225.158 87.108 224.574 87.108C224.014 87.108 223.518 86.984 223.086 86.736C222.662 86.48 222.338 86.164 222.114 85.788V90.12H221.022V80.424H222.114V81.636ZM226.578 83.688C226.578 83.192 226.478 82.76 226.278 82.392C226.078 82.024 225.806 81.744 225.462 81.552C225.126 81.36 224.754 81.264 224.346 81.264C223.946 81.264 223.574 81.364 223.23 81.564C222.894 81.756 222.622 82.04 222.414 82.416C222.214 82.784 222.114 83.212 222.114 83.7C222.114 84.196 222.214 84.632 222.414 85.008C222.622 85.376 222.894 85.66 223.23 85.86C223.574 86.052 223.946 86.148 224.346 86.148C224.754 86.148 225.126 86.052 225.462 85.86C225.806 85.66 226.078 85.376 226.278 85.008C226.478 84.632 226.578 84.192 226.578 83.688ZM235.042 80.316C235.61 80.316 236.106 80.44 236.53 80.688C236.962 80.936 237.282 81.248 237.49 81.624V80.424H238.594V87.144C238.594 87.744 238.466 88.276 238.21 88.74C237.954 89.212 237.586 89.58 237.106 89.844C236.634 90.108 236.082 90.24 235.45 90.24C234.586 90.24 233.866 90.036 233.29 89.628C232.714 89.22 232.374 88.664 232.27 87.96H233.35C233.47 88.36 233.718 88.68 234.094 88.92C234.47 89.168 234.922 89.292 235.45 89.292C236.05 89.292 236.538 89.104 236.914 88.728C237.298 88.352 237.49 87.824 237.49 87.144V85.764C237.274 86.148 236.954 86.468 236.53 86.724C236.106 86.98 235.61 87.108 235.042 87.108C234.458 87.108 233.926 86.964 233.446 86.676C232.974 86.388 232.602 85.984 232.33 85.464C232.058 84.944 231.922 84.352 231.922 83.688C231.922 83.016 232.058 82.428 232.33 81.924C232.602 81.412 232.974 81.016 233.446 80.736C233.926 80.456 234.458 80.316 235.042 80.316ZM237.49 83.7C237.49 83.204 237.39 82.772 237.19 82.404C236.99 82.036 236.718 81.756 236.374 81.564C236.038 81.364 235.666 81.264 235.258 81.264C234.85 81.264 234.478 81.36 234.142 81.552C233.806 81.744 233.538 82.024 233.338 82.392C233.138 82.76 233.038 83.192 233.038 83.688C233.038 84.192 233.138 84.632 233.338 85.008C233.538 85.376 233.806 85.66 234.142 85.86C234.478 86.052 234.85 86.148 235.258 86.148C235.666 86.148 236.038 86.052 236.374 85.86C236.718 85.66 236.99 85.376 237.19 85.008C237.39 84.632 237.49 84.196 237.49 83.7ZM241.532 81.492C241.724 81.116 241.996 80.824 242.348 80.616C242.708 80.408 243.144 80.304 243.656 80.304V81.432H243.368C242.144 81.432 241.532 82.096 241.532 83.424V87H240.44V80.424H241.532V81.492ZM247.784 87.108C247.168 87.108 246.608 86.968 246.104 86.688C245.608 86.408 245.216 86.012 244.928 85.5C244.648 84.98 244.508 84.38 244.508 83.7C244.508 83.028 244.652 82.436 244.94 81.924C245.236 81.404 245.636 81.008 246.14 80.736C246.644 80.456 247.208 80.316 247.832 80.316C248.456 80.316 249.02 80.456 249.524 80.736C250.028 81.008 250.424 81.4 250.712 81.912C251.008 82.424 251.156 83.02 251.156 83.7C251.156 84.38 251.004 84.98 250.7 85.5C250.404 86.012 250 86.408 249.488 86.688C248.976 86.968 248.408 87.108 247.784 87.108ZM247.784 86.148C248.176 86.148 248.544 86.056 248.888 85.872C249.232 85.688 249.508 85.412 249.716 85.044C249.932 84.676 250.04 84.228 250.04 83.7C250.04 83.172 249.936 82.724 249.728 82.356C249.52 81.988 249.248 81.716 248.912 81.54C248.576 81.356 248.212 81.264 247.82 81.264C247.42 81.264 247.052 81.356 246.716 81.54C246.388 81.716 246.124 81.988 245.924 82.356C245.724 82.724 245.624 83.172 245.624 83.7C245.624 84.236 245.72 84.688 245.912 85.056C246.112 85.424 246.376 85.7 246.704 85.884C247.032 86.06 247.392 86.148 247.784 86.148ZM258.424 80.424V87H257.332V86.028C257.124 86.364 256.832 86.628 256.456 86.82C256.088 87.004 255.68 87.096 255.232 87.096C254.72 87.096 254.26 86.992 253.852 86.784C253.444 86.568 253.12 86.248 252.88 85.824C252.648 85.4 252.532 84.884 252.532 84.276V80.424H253.612V84.132C253.612 84.78 253.776 85.28 254.104 85.632C254.432 85.976 254.88 86.148 255.448 86.148C256.032 86.148 256.492 85.968 256.828 85.608C257.164 85.248 257.332 84.724 257.332 84.036V80.424H258.424ZM263.472 80.304C264.272 80.304 264.92 80.548 265.416 81.036C265.912 81.516 266.16 82.212 266.16 83.124V87H265.08V83.28C265.08 82.624 264.916 82.124 264.588 81.78C264.26 81.428 263.812 81.252 263.244 81.252C262.668 81.252 262.208 81.432 261.864 81.792C261.528 82.152 261.36 82.676 261.36 83.364V87H260.268V80.424H261.36V81.36C261.576 81.024 261.868 80.764 262.236 80.58C262.612 80.396 263.024 80.304 263.472 80.304ZM267.536 83.688C267.536 83.016 267.672 82.428 267.944 81.924C268.216 81.412 268.588 81.016 269.06 80.736C269.54 80.456 270.076 80.316 270.668 80.316C271.18 80.316 271.656 80.436 272.096 80.676C272.536 80.908 272.872 81.216 273.104 81.6V78.12H274.208V87H273.104V85.764C272.888 86.156 272.568 86.48 272.144 86.736C271.72 86.984 271.224 87.108 270.656 87.108C270.072 87.108 269.54 86.964 269.06 86.676C268.588 86.388 268.216 85.984 267.944 85.464C267.672 84.944 267.536 84.352 267.536 83.688ZM273.104 83.7C273.104 83.204 273.004 82.772 272.804 82.404C272.604 82.036 272.332 81.756 271.988 81.564C271.652 81.364 271.28 81.264 270.872 81.264C270.464 81.264 270.092 81.36 269.756 81.552C269.42 81.744 269.152 82.024 268.952 82.392C268.752 82.76 268.652 83.192 268.652 83.688C268.652 84.192 268.752 84.632 268.952 85.008C269.152 85.376 269.42 85.66 269.756 85.86C270.092 86.052 270.464 86.148 270.872 86.148C271.28 86.148 271.652 86.052 271.988 85.86C272.332 85.66 272.604 85.376 272.804 85.008C273.004 84.632 273.104 84.196 273.104 83.7ZM284.916 80.424L280.956 90.096H279.828L281.124 86.928L278.472 80.424H279.684L281.748 85.752L283.788 80.424H284.916ZM288.882 87.108C288.266 87.108 287.706 86.968 287.202 86.688C286.706 86.408 286.314 86.012 286.026 85.5C285.746 84.98 285.606 84.38 285.606 83.7C285.606 83.028 285.75 82.436 286.038 81.924C286.334 81.404 286.734 81.008 287.238 80.736C287.742 80.456 288.306 80.316 288.93 80.316C289.554 80.316 290.118 80.456 290.622 80.736C291.126 81.008 291.522 81.4 291.81 81.912C292.106 82.424 292.254 83.02 292.254 83.7C292.254 84.38 292.102 84.98 291.798 85.5C291.502 86.012 291.098 86.408 290.586 86.688C290.074 86.968 289.506 87.108 288.882 87.108ZM288.882 86.148C289.274 86.148 289.642 86.056 289.986 85.872C290.33 85.688 290.606 85.412 290.814 85.044C291.03 84.676 291.138 84.228 291.138 83.7C291.138 83.172 291.034 82.724 290.826 82.356C290.618 81.988 290.346 81.716 290.01 81.54C289.674 81.356 289.31 81.264 288.918 81.264C288.518 81.264 288.15 81.356 287.814 81.54C287.486 81.716 287.222 81.988 287.022 82.356C286.822 82.724 286.722 83.172 286.722 83.7C286.722 84.236 286.818 84.688 287.01 85.056C287.21 85.424 287.474 85.7 287.802 85.884C288.13 86.06 288.49 86.148 288.882 86.148ZM299.522 80.424V87H298.43V86.028C298.222 86.364 297.93 86.628 297.554 86.82C297.186 87.004 296.778 87.096 296.33 87.096C295.818 87.096 295.358 86.992 294.95 86.784C294.542 86.568 294.218 86.248 293.978 85.824C293.746 85.4 293.63 84.884 293.63 84.276V80.424H294.71V84.132C294.71 84.78 294.874 85.28 295.202 85.632C295.53 85.976 295.978 86.148 296.546 86.148C297.13 86.148 297.59 85.968 297.926 85.608C298.262 85.248 298.43 84.724 298.43 84.036V80.424H299.522ZM305.129 79.356C304.921 79.356 304.745 79.284 304.601 79.14C304.457 78.996 304.385 78.82 304.385 78.612C304.385 78.404 304.457 78.228 304.601 78.084C304.745 77.94 304.921 77.868 305.129 77.868C305.329 77.868 305.497 77.94 305.633 78.084C305.777 78.228 305.849 78.404 305.849 78.612C305.849 78.82 305.777 78.996 305.633 79.14C305.497 79.284 305.329 79.356 305.129 79.356ZM305.657 80.424V87H304.565V80.424H305.657ZM310.722 80.304C311.522 80.304 312.17 80.548 312.666 81.036C313.162 81.516 313.41 82.212 313.41 83.124V87H312.33V83.28C312.33 82.624 312.166 82.124 311.838 81.78C311.51 81.428 311.062 81.252 310.494 81.252C309.918 81.252 309.458 81.432 309.114 81.792C308.778 82.152 308.61 82.676 308.61 83.364V87H307.518V80.424H308.61V81.36C308.826 81.024 309.118 80.764 309.486 80.58C309.862 80.396 310.274 80.304 310.722 80.304ZM317.985 83.688C317.985 83.016 318.121 82.428 318.393 81.924C318.665 81.412 319.037 81.016 319.509 80.736C319.989 80.456 320.521 80.316 321.105 80.316C321.681 80.316 322.181 80.44 322.605 80.688C323.029 80.936 323.345 81.248 323.553 81.624V80.424H324.657V87H323.553V85.776C323.337 86.16 323.013 86.48 322.581 86.736C322.157 86.984 321.661 87.108 321.093 87.108C320.509 87.108 319.981 86.964 319.509 86.676C319.037 86.388 318.665 85.984 318.393 85.464C318.121 84.944 317.985 84.352 317.985 83.688ZM323.553 83.7C323.553 83.204 323.453 82.772 323.253 82.404C323.053 82.036 322.781 81.756 322.437 81.564C322.101 81.364 321.729 81.264 321.321 81.264C320.913 81.264 320.541 81.36 320.205 81.552C319.869 81.744 319.601 82.024 319.401 82.392C319.201 82.76 319.101 83.192 319.101 83.688C319.101 84.192 319.201 84.632 319.401 85.008C319.601 85.376 319.869 85.66 320.205 85.86C320.541 86.052 320.913 86.148 321.321 86.148C321.729 86.148 322.101 86.052 322.437 85.86C322.781 85.66 323.053 85.376 323.253 85.008C323.453 84.632 323.553 84.196 323.553 83.7ZM18.752 105.108C18.248 105.108 17.796 105.024 17.396 104.856C16.996 104.68 16.68 104.44 16.448 104.136C16.216 103.824 16.088 103.468 16.064 103.068H17.192C17.224 103.396 17.376 103.664 17.648 103.872C17.928 104.08 18.292 104.184 18.74 104.184C19.156 104.184 19.484 104.092 19.724 103.908C19.964 103.724 20.084 103.492 20.084 103.212C20.084 102.924 19.956 102.712 19.7 102.576C19.444 102.432 19.048 102.292 18.512 102.156C18.024 102.028 17.624 101.9 17.312 101.772C17.008 101.636 16.744 101.44 16.52 101.184C16.304 100.92 16.196 100.576 16.196 100.152C16.196 99.816 16.296 99.508 16.496 99.228C16.696 98.948 16.98 98.728 17.348 98.568C17.716 98.4 18.136 98.316 18.608 98.316C19.336 98.316 19.924 98.5 20.372 98.868C20.82 99.236 21.06 99.74 21.092 100.38H20C19.976 100.036 19.836 99.76 19.58 99.552C19.332 99.344 18.996 99.24 18.572 99.24C18.18 99.24 17.868 99.324 17.636 99.492C17.404 99.66 17.288 99.88 17.288 100.152C17.288 100.368 17.356 100.548 17.492 100.692C17.636 100.828 17.812 100.94 18.02 101.028C18.236 101.108 18.532 101.2 18.908 101.304C19.38 101.432 19.764 101.56 20.06 101.688C20.356 101.808 20.608 101.992 20.816 102.24C21.032 102.488 21.144 102.812 21.152 103.212C21.152 103.572 21.052 103.896 20.852 104.184C20.652 104.472 20.368 104.7 20 104.868C19.64 105.028 19.224 105.108 18.752 105.108ZM24.0255 99.324V103.2C24.0255 103.52 24.0935 103.748 24.2295 103.884C24.3655 104.012 24.6015 104.076 24.9375 104.076H25.7415V105H24.7575C24.1495 105 23.6935 104.86 23.3895 104.58C23.0855 104.3 22.9335 103.84 22.9335 103.2V99.324H22.0815V98.424H22.9335V96.768H24.0255V98.424H25.7415V99.324H24.0255ZM28.1566 99.492C28.3486 99.116 28.6206 98.824 28.9726 98.616C29.3326 98.408 29.7686 98.304 30.2806 98.304V99.432H29.9926C28.7686 99.432 28.1566 100.096 28.1566 101.424V105H27.0646V98.424H28.1566V99.492ZM37.5412 101.46C37.5412 101.668 37.5292 101.888 37.5052 102.12H32.2492C32.2892 102.768 32.5092 103.276 32.9092 103.644C33.3172 104.004 33.8092 104.184 34.3852 104.184C34.8572 104.184 35.2492 104.076 35.5612 103.86C35.8812 103.636 36.1052 103.34 36.2332 102.972H37.4092C37.2332 103.604 36.8812 104.12 36.3532 104.52C35.8252 104.912 35.1692 105.108 34.3852 105.108C33.7612 105.108 33.2012 104.968 32.7052 104.688C32.2172 104.408 31.8332 104.012 31.5532 103.5C31.2732 102.98 31.1332 102.38 31.1332 101.7C31.1332 101.02 31.2692 100.424 31.5412 99.912C31.8132 99.4 32.1932 99.008 32.6812 98.736C33.1772 98.456 33.7452 98.316 34.3852 98.316C35.0092 98.316 35.5612 98.452 36.0412 98.724C36.5212 98.996 36.8892 99.372 37.1452 99.852C37.4092 100.324 37.5412 100.86 37.5412 101.46ZM36.4132 101.232C36.4132 100.816 36.3212 100.46 36.1372 100.164C35.9532 99.86 35.7012 99.632 35.3812 99.48C35.0692 99.32 34.7212 99.24 34.3372 99.24C33.7852 99.24 33.3132 99.416 32.9212 99.768C32.5372 100.12 32.3172 100.608 32.2612 101.232H36.4132ZM41.3106 105.108C40.8066 105.108 40.3546 105.024 39.9546 104.856C39.5546 104.68 39.2386 104.44 39.0066 104.136C38.7746 103.824 38.6466 103.468 38.6226 103.068H39.7506C39.7826 103.396 39.9346 103.664 40.2066 103.872C40.4866 104.08 40.8506 104.184 41.2986 104.184C41.7146 104.184 42.0426 104.092 42.2826 103.908C42.5226 103.724 42.6426 103.492 42.6426 103.212C42.6426 102.924 42.5146 102.712 42.2586 102.576C42.0026 102.432 41.6066 102.292 41.0706 102.156C40.5826 102.028 40.1826 101.9 39.8706 101.772C39.5666 101.636 39.3026 101.44 39.0786 101.184C38.8626 100.92 38.7546 100.576 38.7546 100.152C38.7546 99.816 38.8546 99.508 39.0546 99.228C39.2546 98.948 39.5386 98.728 39.9066 98.568C40.2746 98.4 40.6946 98.316 41.1666 98.316C41.8946 98.316 42.4826 98.5 42.9306 98.868C43.3786 99.236 43.6186 99.74 43.6506 100.38H42.5586C42.5346 100.036 42.3946 99.76 42.1386 99.552C41.8906 99.344 41.5546 99.24 41.1306 99.24C40.7386 99.24 40.4266 99.324 40.1946 99.492C39.9626 99.66 39.8466 99.88 39.8466 100.152C39.8466 100.368 39.9146 100.548 40.0506 100.692C40.1946 100.828 40.3706 100.94 40.5786 101.028C40.7946 101.108 41.0906 101.2 41.4666 101.304C41.9386 101.432 42.3226 101.56 42.6186 101.688C42.9146 101.808 43.1666 101.992 43.3746 102.24C43.5906 102.488 43.7026 102.812 43.7106 103.212C43.7106 103.572 43.6106 103.896 43.4106 104.184C43.2106 104.472 42.9266 104.7 42.5586 104.868C42.1986 105.028 41.7826 105.108 41.3106 105.108ZM47.5801 105.108C47.0761 105.108 46.6241 105.024 46.2241 104.856C45.8241 104.68 45.5081 104.44 45.2761 104.136C45.0441 103.824 44.9161 103.468 44.8921 103.068H46.0201C46.0521 103.396 46.2041 103.664 46.4761 103.872C46.7561 104.08 47.1201 104.184 47.5681 104.184C47.9841 104.184 48.3121 104.092 48.5521 103.908C48.7921 103.724 48.9121 103.492 48.9121 103.212C48.9121 102.924 48.7841 102.712 48.5281 102.576C48.2721 102.432 47.8761 102.292 47.3401 102.156C46.8521 102.028 46.4521 101.9 46.1401 101.772C45.8361 101.636 45.5721 101.44 45.3481 101.184C45.1321 100.92 45.0241 100.576 45.0241 100.152C45.0241 99.816 45.1241 99.508 45.3241 99.228C45.5241 98.948 45.8081 98.728 46.1761 98.568C46.5441 98.4 46.9641 98.316 47.4361 98.316C48.1641 98.316 48.7521 98.5 49.2001 98.868C49.6481 99.236 49.8881 99.74 49.9201 100.38H48.8281C48.8041 100.036 48.6641 99.76 48.4081 99.552C48.1601 99.344 47.8241 99.24 47.4001 99.24C47.0081 99.24 46.6961 99.324 46.4641 99.492C46.2321 99.66 46.1161 99.88 46.1161 100.152C46.1161 100.368 46.1841 100.548 46.3201 100.692C46.4641 100.828 46.6401 100.94 46.8481 101.028C47.0641 101.108 47.3601 101.2 47.7361 101.304C48.2081 101.432 48.5921 101.56 48.8881 101.688C49.1841 101.808 49.4361 101.992 49.6441 102.24C49.8601 102.488 49.9721 102.812 49.9801 103.212C49.9801 103.572 49.8801 103.896 49.6801 104.184C49.4801 104.472 49.1961 104.7 48.8281 104.868C48.4681 105.028 48.0521 105.108 47.5801 105.108ZM54.1977 99.324H52.8177V105H51.7257V99.324H50.8737V98.424H51.7257V97.956C51.7257 97.22 51.9137 96.684 52.2897 96.348C52.6737 96.004 53.2857 95.832 54.1257 95.832V96.744C53.6457 96.744 53.3057 96.84 53.1057 97.032C52.9137 97.216 52.8177 97.524 52.8177 97.956V98.424H54.1977V99.324ZM61.3029 98.424V105H60.2109V104.028C60.0029 104.364 59.7109 104.628 59.3349 104.82C58.9669 105.004 58.5589 105.096 58.1109 105.096C57.5989 105.096 57.1389 104.992 56.7309 104.784C56.3229 104.568 55.9989 104.248 55.7589 103.824C55.5269 103.4 55.4109 102.884 55.4109 102.276V98.424H56.4909V102.132C56.4909 102.78 56.6549 103.28 56.9829 103.632C57.3109 103.976 57.7589 104.148 58.3269 104.148C58.9109 104.148 59.3709 103.968 59.7069 103.608C60.0429 103.248 60.2109 102.724 60.2109 102.036V98.424H61.3029ZM64.2387 96.12V105H63.1467V96.12H64.2387ZM71.627 105.108C71.123 105.108 70.671 105.024 70.271 104.856C69.871 104.68 69.555 104.44 69.323 104.136C69.091 103.824 68.963 103.468 68.939 103.068H70.067C70.099 103.396 70.251 103.664 70.523 103.872C70.803 104.08 71.167 104.184 71.615 104.184C72.031 104.184 72.359 104.092 72.599 103.908C72.839 103.724 72.959 103.492 72.959 103.212C72.959 102.924 72.831 102.712 72.575 102.576C72.319 102.432 71.923 102.292 71.387 102.156C70.899 102.028 70.499 101.9 70.187 101.772C69.883 101.636 69.619 101.44 69.395 101.184C69.179 100.92 69.071 100.576 69.071 100.152C69.071 99.816 69.171 99.508 69.371 99.228C69.571 98.948 69.855 98.728 70.223 98.568C70.591 98.4 71.011 98.316 71.483 98.316C72.211 98.316 72.799 98.5 73.247 98.868C73.695 99.236 73.935 99.74 73.967 100.38H72.875C72.851 100.036 72.711 99.76 72.455 99.552C72.207 99.344 71.871 99.24 71.447 99.24C71.055 99.24 70.743 99.324 70.511 99.492C70.279 99.66 70.163 99.88 70.163 100.152C70.163 100.368 70.231 100.548 70.367 100.692C70.511 100.828 70.687 100.94 70.895 101.028C71.111 101.108 71.407 101.2 71.783 101.304C72.255 101.432 72.639 101.56 72.935 101.688C73.231 101.808 73.483 101.992 73.691 102.24C73.907 102.488 74.019 102.812 74.027 103.212C74.027 103.572 73.927 103.896 73.727 104.184C73.527 104.472 73.243 104.7 72.875 104.868C72.515 105.028 72.099 105.108 71.627 105.108ZM76.1325 97.356C75.9245 97.356 75.7485 97.284 75.6045 97.14C75.4605 96.996 75.3885 96.82 75.3885 96.612C75.3885 96.404 75.4605 96.228 75.6045 96.084C75.7485 95.94 75.9245 95.868 76.1325 95.868C76.3325 95.868 76.5005 95.94 76.6365 96.084C76.7805 96.228 76.8525 96.404 76.8525 96.612C76.8525 96.82 76.7805 96.996 76.6365 97.14C76.5005 97.284 76.3325 97.356 76.1325 97.356ZM76.6605 98.424V105H75.5685V98.424H76.6605ZM79.8537 99.324V103.2C79.8537 103.52 79.9217 103.748 80.0577 103.884C80.1937 104.012 80.4297 104.076 80.7657 104.076H81.5697V105H80.5857C79.9777 105 79.5217 104.86 79.2177 104.58C78.9137 104.3 78.7617 103.84 78.7617 103.2V99.324H77.9097V98.424H78.7617V96.768H79.8537V98.424H81.5697V99.324H79.8537ZM88.7248 98.424V105H87.6328V104.028C87.4248 104.364 87.1328 104.628 86.7568 104.82C86.3888 105.004 85.9808 105.096 85.5328 105.096C85.0208 105.096 84.5608 104.992 84.1528 104.784C83.7448 104.568 83.4208 104.248 83.1808 103.824C82.9488 103.4 82.8328 102.884 82.8328 102.276V98.424H83.9128V102.132C83.9128 102.78 84.0768 103.28 84.4048 103.632C84.7328 103.976 85.1808 104.148 85.7488 104.148C86.3328 104.148 86.7928 103.968 87.1288 103.608C87.4648 103.248 87.6328 102.724 87.6328 102.036V98.424H88.7248ZM90.1605 101.688C90.1605 101.016 90.2965 100.428 90.5685 99.924C90.8405 99.412 91.2125 99.016 91.6845 98.736C92.1645 98.456 92.6965 98.316 93.2805 98.316C93.8565 98.316 94.3565 98.44 94.7805 98.688C95.2045 98.936 95.5205 99.248 95.7285 99.624V98.424H96.8325V105H95.7285V103.776C95.5125 104.16 95.1885 104.48 94.7565 104.736C94.3325 104.984 93.8365 105.108 93.2685 105.108C92.6845 105.108 92.1565 104.964 91.6845 104.676C91.2125 104.388 90.8405 103.984 90.5685 103.464C90.2965 102.944 90.1605 102.352 90.1605 101.688ZM95.7285 101.7C95.7285 101.204 95.6285 100.772 95.4285 100.404C95.2285 100.036 94.9565 99.756 94.6125 99.564C94.2765 99.364 93.9045 99.264 93.4965 99.264C93.0885 99.264 92.7165 99.36 92.3805 99.552C92.0445 99.744 91.7765 100.024 91.5765 100.392C91.3765 100.76 91.2765 101.192 91.2765 101.688C91.2765 102.192 91.3765 102.632 91.5765 103.008C91.7765 103.376 92.0445 103.66 92.3805 103.86C92.7165 104.052 93.0885 104.148 93.4965 104.148C93.9045 104.148 94.2765 104.052 94.6125 103.86C94.9565 103.66 95.2285 103.376 95.4285 103.008C95.6285 102.632 95.7285 102.196 95.7285 101.7ZM100.01 99.324V103.2C100.01 103.52 100.078 103.748 100.214 103.884C100.35 104.012 100.586 104.076 100.922 104.076H101.726V105H100.742C100.134 105 99.6779 104.86 99.3739 104.58C99.0699 104.3 98.9179 103.84 98.9179 103.2V99.324H98.0659V98.424H98.9179V96.768H100.01V98.424H101.726V99.324H100.01ZM103.613 97.356C103.405 97.356 103.229 97.284 103.085 97.14C102.941 96.996 102.869 96.82 102.869 96.612C102.869 96.404 102.941 96.228 103.085 96.084C103.229 95.94 103.405 95.868 103.613 95.868C103.813 95.868 103.981 95.94 104.117 96.084C104.261 96.228 104.333 96.404 104.333 96.612C104.333 96.82 104.261 96.996 104.117 97.14C103.981 97.284 103.813 97.356 103.613 97.356ZM104.141 98.424V105H103.049V98.424H104.141ZM108.87 105.108C108.254 105.108 107.694 104.968 107.19 104.688C106.694 104.408 106.302 104.012 106.014 103.5C105.734 102.98 105.594 102.38 105.594 101.7C105.594 101.028 105.738 100.436 106.026 99.924C106.322 99.404 106.722 99.008 107.226 98.736C107.73 98.456 108.294 98.316 108.918 98.316C109.542 98.316 110.106 98.456 110.61 98.736C111.114 99.008 111.51 99.4 111.798 99.912C112.094 100.424 112.242 101.02 112.242 101.7C112.242 102.38 112.09 102.98 111.786 103.5C111.49 104.012 111.086 104.408 110.574 104.688C110.062 104.968 109.494 105.108 108.87 105.108ZM108.87 104.148C109.262 104.148 109.63 104.056 109.974 103.872C110.318 103.688 110.594 103.412 110.802 103.044C111.018 102.676 111.126 102.228 111.126 101.7C111.126 101.172 111.022 100.724 110.814 100.356C110.606 99.988 110.334 99.716 109.998 99.54C109.662 99.356 109.298 99.264 108.906 99.264C108.506 99.264 108.138 99.356 107.802 99.54C107.474 99.716 107.21 99.988 107.01 100.356C106.81 100.724 106.71 101.172 106.71 101.7C106.71 102.236 106.806 102.688 106.998 103.056C107.198 103.424 107.462 103.7 107.79 103.884C108.118 104.06 108.478 104.148 108.87 104.148ZM116.882 98.304C117.682 98.304 118.33 98.548 118.826 99.036C119.322 99.516 119.57 100.212 119.57 101.124V105H118.49V101.28C118.49 100.624 118.326 100.124 117.998 99.78C117.67 99.428 117.222 99.252 116.654 99.252C116.078 99.252 115.618 99.432 115.274 99.792C114.938 100.152 114.77 100.676 114.77 101.364V105H113.678V98.424H114.77V99.36C114.986 99.024 115.278 98.764 115.646 98.58C116.022 98.396 116.434 98.304 116.882 98.304Z" fill="#575757" fill-opacity="0.8"/>
<circle cx="22.8778" cy="167.457" r="0.666213" transform="rotate(-90 22.8778 167.457)" fill="#474747"/>
<circle cx="22.8778" cy="165" r="0.666213" transform="rotate(-90 22.8778 165)" fill="#474747"/>
<circle cx="22.8778" cy="162.543" r="0.666213" transform="rotate(-90 22.8778 162.543)" fill="#474747"/>
<circle cx="22.8778" cy="218.08" r="0.666213" transform="rotate(-90 22.8778 218.08)" fill="#474747"/>
<circle cx="22.8778" cy="215.623" r="0.666213" transform="rotate(-90 22.8778 215.623)" fill="#474747"/>
<circle cx="22.8778" cy="213.166" r="0.666213" transform="rotate(-90 22.8778 213.166)" fill="#474747"/>
<circle cx="22.8778" cy="266.08" r="0.666213" transform="rotate(-90 22.8778 266.08)" fill="#474747"/>
<circle cx="22.8778" cy="263.623" r="0.666213" transform="rotate(-90 22.8778 263.623)" fill="#474747"/>
<circle cx="22.8778" cy="261.166" r="0.666213" transform="rotate(-90 22.8778 261.166)" fill="#474747"/>
<circle cx="25.2971" cy="167.457" r="0.666213" transform="rotate(-90 25.2971 167.457)" fill="#474747"/>
<circle cx="25.2971" cy="165" r="0.666213" transform="rotate(-90 25.2971 165)" fill="#474747"/>
<circle cx="25.2971" cy="162.543" r="0.666213" transform="rotate(-90 25.2971 162.543)" fill="#474747"/>
<circle cx="25.2971" cy="218.08" r="0.666213" transform="rotate(-90 25.2971 218.08)" fill="#474747"/>
<circle cx="25.2971" cy="215.623" r="0.666213" transform="rotate(-90 25.2971 215.623)" fill="#474747"/>
<circle cx="25.2971" cy="213.166" r="0.666213" transform="rotate(-90 25.2971 213.166)" fill="#474747"/>
<circle cx="25.2971" cy="266.08" r="0.666213" transform="rotate(-90 25.2971 266.08)" fill="#474747"/>
<circle cx="25.2971" cy="263.623" r="0.666213" transform="rotate(-90 25.2971 263.623)" fill="#474747"/>
<circle cx="25.2971" cy="261.166" r="0.666213" transform="rotate(-90 25.2971 261.166)" fill="#474747"/>
<path d="M23.222 40.3772L20.45 35.4812H19.262V40.3772H16.742V27.8132H21.458C22.43 27.8132 23.258 27.9872 23.942 28.3352C24.626 28.6712 25.136 29.1332 25.472 29.7212C25.82 30.2972 25.994 30.9452 25.994 31.6652C25.994 32.4932 25.754 33.2432 25.274 33.9152C24.794 34.5752 24.08 35.0312 23.132 35.2832L26.138 40.3772H23.222ZM19.262 33.5912H21.368C22.052 33.5912 22.562 33.4292 22.898 33.1052C23.234 32.7692 23.402 32.3072 23.402 31.7192C23.402 31.1432 23.234 30.6992 22.898 30.3872C22.562 30.0632 22.052 29.9012 21.368 29.9012H19.262V33.5912ZM37.5433 35.1752C37.5433 35.5352 37.5193 35.8592 37.4713 36.1472H30.1813C30.2413 36.8672 30.4933 37.4312 30.9373 37.8392C31.3813 38.2472 31.9273 38.4512 32.5753 38.4512C33.5113 38.4512 34.1773 38.0492 34.5733 37.2452H37.2913C37.0033 38.2052 36.4513 38.9972 35.6353 39.6212C34.8193 40.2332 33.8173 40.5392 32.6293 40.5392C31.6693 40.5392 30.8053 40.3292 30.0373 39.9092C29.2813 39.4772 28.6873 38.8712 28.2553 38.0912C27.8353 37.3112 27.6252 36.4112 27.6252 35.3912C27.6252 34.3592 27.8353 33.4532 28.2553 32.6732C28.6753 31.8932 29.2633 31.2932 30.0193 30.8732C30.7753 30.4532 31.6453 30.2432 32.6293 30.2432C33.5773 30.2432 34.4233 30.4472 35.1673 30.8552C35.9233 31.2632 36.5053 31.8452 36.9133 32.6012C37.3333 33.3452 37.5433 34.2032 37.5433 35.1752ZM34.9333 34.4552C34.9213 33.8072 34.6873 33.2912 34.2313 32.9072C33.7753 32.5112 33.2173 32.3132 32.5573 32.3132C31.9333 32.3132 31.4053 32.5052 30.9733 32.8892C30.5533 33.2612 30.2953 33.7832 30.1993 34.4552H34.9333ZM43.8106 40.5392C42.8506 40.5392 41.9866 40.3292 41.2186 39.9092C40.4506 39.4772 39.8446 38.8712 39.4006 38.0912C38.9686 37.3112 38.7526 36.4112 38.7526 35.3912C38.7526 34.3712 38.9746 33.4712 39.4186 32.6912C39.8746 31.9112 40.4926 31.3112 41.2726 30.8912C42.0526 30.4592 42.9226 30.2432 43.8826 30.2432C44.8426 30.2432 45.7126 30.4592 46.4926 30.8912C47.2726 31.3112 47.8846 31.9112 48.3286 32.6912C48.7846 33.4712 49.0126 34.3712 49.0126 35.3912C49.0126 36.4112 48.7786 37.3112 48.3106 38.0912C47.8546 38.8712 47.2306 39.4772 46.4386 39.9092C45.6586 40.3292 44.7826 40.5392 43.8106 40.5392ZM43.8106 38.3432C44.2666 38.3432 44.6926 38.2352 45.0886 38.0192C45.4966 37.7912 45.8206 37.4552 46.0606 37.0112C46.3006 36.5672 46.4206 36.0272 46.4206 35.3912C46.4206 34.4432 46.1686 33.7172 45.6646 33.2132C45.1726 32.6972 44.5666 32.4392 43.8466 32.4392C43.1266 32.4392 42.5206 32.6972 42.0286 33.2132C41.5486 33.7172 41.3086 34.4432 41.3086 35.3912C41.3086 36.3392 41.5426 37.0712 42.0106 37.5872C42.4906 38.0912 43.0906 38.3432 43.8106 38.3432ZM53.3811 31.9532C53.7051 31.4252 54.1251 31.0112 54.6411 30.7112C55.1691 30.4112 55.7691 30.2612 56.4411 30.2612V32.9072H55.7751C54.9831 32.9072 54.3831 33.0932 53.9751 33.4652C53.5791 33.8372 53.3811 34.4852 53.3811 35.4092V40.3772H50.8611V30.4052H53.3811V31.9532ZM57.4905 35.3552C57.4905 34.3472 57.6885 33.4532 58.0845 32.6732C58.4925 31.8932 59.0445 31.2932 59.7405 30.8732C60.4365 30.4532 61.2105 30.2432 62.0625 30.2432C62.7105 30.2432 63.3285 30.3872 63.9165 30.6752C64.5045 30.9512 64.9725 31.3232 65.3205 31.7912V27.0572H67.8765V40.3772H65.3205V38.9012C65.0085 39.3932 64.5705 39.7892 64.0065 40.0892C63.4425 40.3892 62.7885 40.5392 62.0445 40.5392C61.2045 40.5392 60.4365 40.3232 59.7405 39.8912C59.0445 39.4592 58.4925 38.8532 58.0845 38.0732C57.6885 37.2812 57.4905 36.3752 57.4905 35.3552ZM65.3385 35.3912C65.3385 34.7792 65.2185 34.2572 64.9785 33.8252C64.7385 33.3812 64.4145 33.0452 64.0065 32.8172C63.5985 32.5772 63.1605 32.4572 62.6925 32.4572C62.2245 32.4572 61.7925 32.5712 61.3965 32.7992C61.0005 33.0272 60.6765 33.3632 60.4245 33.8072C60.1845 34.2392 60.0645 34.7552 60.0645 35.3552C60.0645 35.9552 60.1845 36.4832 60.4245 36.9392C60.6765 37.3832 61.0005 37.7252 61.3965 37.9652C61.8045 38.2052 62.2365 38.3252 62.6925 38.3252C63.1605 38.3252 63.5985 38.2112 64.0065 37.9832C64.4145 37.7432 64.7385 37.4072 64.9785 36.9752C65.2185 36.5312 65.3385 36.0032 65.3385 35.3912ZM79.6077 35.1752C79.6077 35.5352 79.5837 35.8592 79.5357 36.1472H72.2457C72.3057 36.8672 72.5577 37.4312 73.0017 37.8392C73.4457 38.2472 73.9917 38.4512 74.6397 38.4512C75.5757 38.4512 76.2417 38.0492 76.6377 37.2452H79.3557C79.0677 38.2052 78.5157 38.9972 77.6997 39.6212C76.8837 40.2332 75.8817 40.5392 74.6937 40.5392C73.7337 40.5392 72.8697 40.3292 72.1017 39.9092C71.3457 39.4772 70.7517 38.8712 70.3197 38.0912C69.8997 37.3112 69.6897 36.4112 69.6897 35.3912C69.6897 34.3592 69.8997 33.4532 70.3197 32.6732C70.7397 31.8932 71.3277 31.2932 72.0837 30.8732C72.8397 30.4532 73.7097 30.2432 74.6937 30.2432C75.6417 30.2432 76.4877 30.4472 77.2317 30.8552C77.9877 31.2632 78.5697 31.8452 78.9777 32.6012C79.3977 33.3452 79.6077 34.2032 79.6077 35.1752ZM76.9977 34.4552C76.9857 33.8072 76.7517 33.2912 76.2957 32.9072C75.8397 32.5112 75.2817 32.3132 74.6217 32.3132C73.9977 32.3132 73.4697 32.5052 73.0377 32.8892C72.6177 33.2612 72.3597 33.7832 72.2637 34.4552H76.9977ZM83.9671 31.9532C84.2911 31.4252 84.7111 31.0112 85.2271 30.7112C85.7551 30.4112 86.3551 30.2612 87.0271 30.2612V32.9072H86.3611C85.5691 32.9072 84.9691 33.0932 84.5611 33.4652C84.1651 33.8372 83.9671 34.4852 83.9671 35.4092V40.3772H81.4471V30.4052H83.9671V31.9532ZM102.553 30.4052L96.3795 45.0932H93.6975L95.8575 40.1252L91.8615 30.4052H94.6875L97.2615 37.3712L99.8715 30.4052H102.553ZM108.34 40.5392C107.38 40.5392 106.516 40.3292 105.748 39.9092C104.98 39.4772 104.374 38.8712 103.93 38.0912C103.498 37.3112 103.282 36.4112 103.282 35.3912C103.282 34.3712 103.504 33.4712 103.948 32.6912C104.404 31.9112 105.022 31.3112 105.802 30.8912C106.582 30.4592 107.452 30.2432 108.412 30.2432C109.372 30.2432 110.242 30.4592 111.022 30.8912C111.802 31.3112 112.414 31.9112 112.858 32.6912C113.314 33.4712 113.542 34.3712 113.542 35.3912C113.542 36.4112 113.308 37.3112 112.84 38.0912C112.384 38.8712 111.76 39.4772 110.968 39.9092C110.188 40.3292 109.312 40.5392 108.34 40.5392ZM108.34 38.3432C108.796 38.3432 109.222 38.2352 109.618 38.0192C110.026 37.7912 110.35 37.4552 110.59 37.0112C110.83 36.5672 110.95 36.0272 110.95 35.3912C110.95 34.4432 110.698 33.7172 110.194 33.2132C109.702 32.6972 109.096 32.4392 108.376 32.4392C107.656 32.4392 107.05 32.6972 106.558 33.2132C106.078 33.7172 105.838 34.4432 105.838 35.3912C105.838 36.3392 106.072 37.0712 106.54 37.5872C107.02 38.0912 107.62 38.3432 108.34 38.3432ZM124.804 30.4052V40.3772H122.266V39.1172C121.942 39.5492 121.516 39.8912 120.988 40.1432C120.472 40.3832 119.908 40.5032 119.296 40.5032C118.516 40.5032 117.826 40.3412 117.226 40.0172C116.626 39.6812 116.152 39.1952 115.804 38.5592C115.468 37.9112 115.3 37.1432 115.3 36.2552V30.4052H117.82V35.8952C117.82 36.6872 118.018 37.2992 118.414 37.7312C118.81 38.1512 119.35 38.3612 120.034 38.3612C120.73 38.3612 121.276 38.1512 121.672 37.7312C122.068 37.2992 122.266 36.6872 122.266 35.8952V30.4052H124.804ZM135.738 38.0552L138.258 30.4052H140.94L137.25 40.3772H134.19L130.518 30.4052H133.218L135.738 38.0552ZM141.707 35.3552C141.707 34.3472 141.905 33.4532 142.301 32.6732C142.709 31.8932 143.255 31.2932 143.939 30.8732C144.635 30.4532 145.409 30.2432 146.261 30.2432C147.005 30.2432 147.653 30.3932 148.205 30.6932C148.769 30.9932 149.219 31.3712 149.555 31.8272V30.4052H152.093V40.3772H149.555V38.9192C149.231 39.3872 148.781 39.7772 148.205 40.0892C147.641 40.3892 146.987 40.5392 146.243 40.5392C145.403 40.5392 144.635 40.3232 143.939 39.8912C143.255 39.4592 142.709 38.8532 142.301 38.0732C141.905 37.2812 141.707 36.3752 141.707 35.3552ZM149.555 35.3912C149.555 34.7792 149.435 34.2572 149.195 33.8252C148.955 33.3812 148.631 33.0452 148.223 32.8172C147.815 32.5772 147.377 32.4572 146.909 32.4572C146.441 32.4572 146.009 32.5712 145.613 32.7992C145.217 33.0272 144.893 33.3632 144.641 33.8072C144.401 34.2392 144.281 34.7552 144.281 35.3552C144.281 35.9552 144.401 36.4832 144.641 36.9392C144.893 37.3832 145.217 37.7252 145.613 37.9652C146.021 38.2052 146.453 38.3252 146.909 38.3252C147.377 38.3252 147.815 38.2112 148.223 37.9832C148.631 37.7432 148.955 37.4072 149.195 36.9752C149.435 36.5312 149.555 36.0032 149.555 35.3912ZM157.075 27.0572V40.3772H154.555V27.0572H157.075ZM168.978 30.4052V40.3772H166.44V39.1172C166.116 39.5492 165.69 39.8912 165.162 40.1432C164.646 40.3832 164.082 40.5032 163.47 40.5032C162.69 40.5032 162 40.3412 161.4 40.0172C160.8 39.6812 160.326 39.1952 159.978 38.5592C159.642 37.9112 159.474 37.1432 159.474 36.2552V30.4052H161.994V35.8952C161.994 36.6872 162.192 37.2992 162.588 37.7312C162.984 38.1512 163.524 38.3612 164.208 38.3612C164.904 38.3612 165.45 38.1512 165.846 37.7312C166.242 37.2992 166.44 36.6872 166.44 35.8952V30.4052H168.978ZM180.735 35.1752C180.735 35.5352 180.711 35.8592 180.663 36.1472H173.373C173.433 36.8672 173.685 37.4312 174.129 37.8392C174.573 38.2472 175.119 38.4512 175.767 38.4512C176.703 38.4512 177.369 38.0492 177.765 37.2452H180.483C180.195 38.2052 179.643 38.9972 178.827 39.6212C178.011 40.2332 177.009 40.5392 175.821 40.5392C174.861 40.5392 173.997 40.3292 173.229 39.9092C172.473 39.4772 171.879 38.8712 171.447 38.0912C171.027 37.3112 170.817 36.4112 170.817 35.3912C170.817 34.3592 171.027 33.4532 171.447 32.6732C171.867 31.8932 172.455 31.2932 173.211 30.8732C173.967 30.4532 174.837 30.2432 175.821 30.2432C176.769 30.2432 177.615 30.4472 178.359 30.8552C179.115 31.2632 179.697 31.8452 180.105 32.6012C180.525 33.3452 180.735 34.2032 180.735 35.1752ZM178.125 34.4552C178.113 33.8072 177.879 33.2912 177.423 32.9072C176.967 32.5112 176.409 32.3132 175.749 32.3132C175.125 32.3132 174.597 32.5052 174.165 32.8892C173.745 33.2612 173.487 33.7832 173.391 34.4552H178.125ZM186.39 40.5392C185.574 40.5392 184.842 40.3952 184.194 40.1072C183.546 39.8072 183.03 39.4052 182.646 38.9012C182.274 38.3972 182.07 37.8392 182.034 37.2272H184.572C184.62 37.6112 184.806 37.9292 185.13 38.1812C185.466 38.4332 185.88 38.5592 186.372 38.5592C186.852 38.5592 187.224 38.4632 187.488 38.2712C187.764 38.0792 187.902 37.8332 187.902 37.5332C187.902 37.2092 187.734 36.9692 187.398 36.8132C187.074 36.6452 186.552 36.4652 185.832 36.2732C185.088 36.0932 184.476 35.9072 183.996 35.7152C183.528 35.5232 183.12 35.2292 182.772 34.8332C182.436 34.4372 182.268 33.9032 182.268 33.2312C182.268 32.6792 182.424 32.1752 182.736 31.7192C183.06 31.2632 183.516 30.9032 184.104 30.6392C184.704 30.3752 185.406 30.2432 186.21 30.2432C187.398 30.2432 188.346 30.5432 189.054 31.1432C189.762 31.7312 190.152 32.5292 190.224 33.5372H187.812C187.776 33.1412 187.608 32.8292 187.308 32.6012C187.02 32.3612 186.63 32.2412 186.138 32.2412C185.682 32.2412 185.328 32.3252 185.076 32.4932C184.836 32.6612 184.716 32.8952 184.716 33.1952C184.716 33.5312 184.884 33.7892 185.22 33.9692C185.556 34.1372 186.078 34.3112 186.786 34.4912C187.506 34.6712 188.1 34.8572 188.568 35.0492C189.036 35.2412 189.438 35.5412 189.774 35.9492C190.122 36.3452 190.302 36.8732 190.314 37.5332C190.314 38.1092 190.152 38.6252 189.828 39.0812C189.516 39.5372 189.06 39.8972 188.46 40.1612C187.872 40.4132 187.182 40.5392 186.39 40.5392Z" fill="black"/>
<line x1="4.5" y1="55.1272" x2="383.5" y2="55.1272" stroke="#A5A5A5" stroke-width="0.5"/>
<path d="M54.7605 159.848L50.5525 171H48.8725L44.6645 159.848H46.2165L49.7205 169.464L53.2245 159.848H54.7605ZM55.813 166.584C55.813 165.688 55.9943 164.904 56.357 164.232C56.7197 163.549 57.2157 163.021 57.845 162.648C58.485 162.275 59.1943 162.088 59.973 162.088C60.741 162.088 61.4077 162.253 61.973 162.584C62.5383 162.915 62.9597 163.331 63.237 163.832V162.232H64.709V171H63.237V169.368C62.949 169.88 62.517 170.307 61.941 170.648C61.3757 170.979 60.7143 171.144 59.957 171.144C59.1783 171.144 58.4743 170.952 57.845 170.568C57.2157 170.184 56.7197 169.645 56.357 168.952C55.9943 168.259 55.813 167.469 55.813 166.584ZM63.237 166.6C63.237 165.939 63.1037 165.363 62.837 164.872C62.5703 164.381 62.2077 164.008 61.749 163.752C61.301 163.485 60.805 163.352 60.261 163.352C59.717 163.352 59.221 163.48 58.773 163.736C58.325 163.992 57.9677 164.365 57.701 164.856C57.4343 165.347 57.301 165.923 57.301 166.584C57.301 167.256 57.4343 167.843 57.701 168.344C57.9677 168.835 58.325 169.213 58.773 169.48C59.221 169.736 59.717 169.864 60.261 169.864C60.805 169.864 61.301 169.736 61.749 169.48C62.2077 169.213 62.5703 168.835 62.837 168.344C63.1037 167.843 63.237 167.261 63.237 166.6ZM68.6255 159.16V171H67.1695V159.16H68.6255ZM78.883 162.232V171H77.427V169.704C77.1497 170.152 76.7603 170.504 76.259 170.76C75.7683 171.005 75.2243 171.128 74.627 171.128C73.9443 171.128 73.331 170.989 72.787 170.712C72.243 170.424 71.811 169.997 71.491 169.432C71.1817 168.867 71.027 168.179 71.027 167.368V162.232H72.467V167.176C72.467 168.04 72.6857 168.707 73.123 169.176C73.5603 169.635 74.1577 169.864 74.915 169.864C75.6937 169.864 76.307 169.624 76.755 169.144C77.203 168.664 77.427 167.965 77.427 167.048V162.232H78.883ZM89.3414 166.28C89.3414 166.557 89.3254 166.851 89.2934 167.16H82.2854C82.3387 168.024 82.632 168.701 83.1654 169.192C83.7094 169.672 84.3654 169.912 85.1334 169.912C85.7627 169.912 86.2854 169.768 86.7014 169.48C87.128 169.181 87.4267 168.787 87.5974 168.296H89.1654C88.9307 169.139 88.4614 169.827 87.7574 170.36C87.0534 170.883 86.1787 171.144 85.1334 171.144C84.3014 171.144 83.5547 170.957 82.8934 170.584C82.2427 170.211 81.7307 169.683 81.3574 169C80.984 168.307 80.7974 167.507 80.7974 166.6C80.7974 165.693 80.9787 164.899 81.3414 164.216C81.704 163.533 82.2107 163.011 82.8614 162.648C83.5227 162.275 84.28 162.088 85.1334 162.088C85.9654 162.088 86.7014 162.269 87.3414 162.632C87.9814 162.995 88.472 163.496 88.8134 164.136C89.1654 164.765 89.3414 165.48 89.3414 166.28ZM87.8374 165.976C87.8374 165.421 87.7147 164.947 87.4694 164.552C87.224 164.147 86.888 163.843 86.4614 163.64C86.0454 163.427 85.5814 163.32 85.0694 163.32C84.3334 163.32 83.704 163.555 83.1814 164.024C82.6694 164.493 82.376 165.144 82.3014 165.976H87.8374ZM94.9049 160.76V159.432H97.9129V171H96.4409V160.76H94.9049Z" fill="black"/>
<path d="M54.7605 210.471L50.5525 221.623H48.8725L44.6645 210.471H46.2165L49.7205 220.087L53.2245 210.471H54.7605ZM55.813 217.207C55.813 216.311 55.9943 215.527 56.357 214.855C56.7197 214.172 57.2157 213.644 57.845 213.271C58.485 212.898 59.1943 212.711 59.973 212.711C60.741 212.711 61.4077 212.876 61.973 213.207C62.5383 213.538 62.9597 213.954 63.237 214.455V212.855H64.709V221.623H63.237V219.991C62.949 220.503 62.517 220.93 61.941 221.271C61.3757 221.602 60.7143 221.767 59.957 221.767C59.1783 221.767 58.4743 221.575 57.845 221.191C57.2157 220.807 56.7197 220.268 56.357 219.575C55.9943 218.882 55.813 218.092 55.813 217.207ZM63.237 217.223C63.237 216.562 63.1037 215.986 62.837 215.495C62.5703 215.004 62.2077 214.631 61.749 214.375C61.301 214.108 60.805 213.975 60.261 213.975C59.717 213.975 59.221 214.103 58.773 214.359C58.325 214.615 57.9677 214.988 57.701 215.479C57.4343 215.97 57.301 216.546 57.301 217.207C57.301 217.879 57.4343 218.466 57.701 218.967C57.9677 219.458 58.325 219.836 58.773 220.103C59.221 220.359 59.717 220.487 60.261 220.487C60.805 220.487 61.301 220.359 61.749 220.103C62.2077 219.836 62.5703 219.458 62.837 218.967C63.1037 218.466 63.237 217.884 63.237 217.223ZM68.6255 209.783V221.623H67.1695V209.783H68.6255ZM78.883 212.855V221.623H77.427V220.327C77.1497 220.775 76.7603 221.127 76.259 221.383C75.7683 221.628 75.2243 221.751 74.627 221.751C73.9443 221.751 73.331 221.612 72.787 221.335C72.243 221.047 71.811 220.62 71.491 220.055C71.1817 219.49 71.027 218.802 71.027 217.991V212.855H72.467V217.799C72.467 218.663 72.6857 219.33 73.123 219.799C73.5603 220.258 74.1577 220.487 74.915 220.487C75.6937 220.487 76.307 220.247 76.755 219.767C77.203 219.287 77.427 218.588 77.427 217.671V212.855H78.883ZM89.3414 216.903C89.3414 217.18 89.3254 217.474 89.2934 217.783H82.2854C82.3387 218.647 82.632 219.324 83.1654 219.815C83.7094 220.295 84.3654 220.535 85.1334 220.535C85.7627 220.535 86.2854 220.391 86.7014 220.103C87.128 219.804 87.4267 219.41 87.5974 218.919H89.1654C88.9307 219.762 88.4614 220.45 87.7574 220.983C87.0534 221.506 86.1787 221.767 85.1334 221.767C84.3014 221.767 83.5547 221.58 82.8934 221.207C82.2427 220.834 81.7307 220.306 81.3574 219.623C80.984 218.93 80.7974 218.13 80.7974 217.223C80.7974 216.316 80.9787 215.522 81.3414 214.839C81.704 214.156 82.2107 213.634 82.8614 213.271C83.5227 212.898 84.28 212.711 85.1334 212.711C85.9654 212.711 86.7014 212.892 87.3414 213.255C87.9814 213.618 88.472 214.119 88.8134 214.759C89.1654 215.388 89.3414 216.103 89.3414 216.903ZM87.8374 216.599C87.8374 216.044 87.7147 215.57 87.4694 215.175C87.224 214.77 86.888 214.466 86.4614 214.263C86.0454 214.05 85.5814 213.943 85.0694 213.943C84.3334 213.943 83.704 214.178 83.1814 214.647C82.6694 215.116 82.376 215.767 82.3014 216.599H87.8374ZM95.1129 220.455C96.4675 219.367 97.5289 218.476 98.2969 217.783C99.0649 217.079 99.7102 216.348 100.233 215.591C100.766 214.823 101.033 214.071 101.033 213.335C101.033 212.642 100.862 212.098 100.521 211.703C100.19 211.298 99.6515 211.095 98.9049 211.095C98.1795 211.095 97.6142 211.324 97.2089 211.783C96.8142 212.231 96.6009 212.834 96.5689 213.591H95.1609C95.2035 212.396 95.5662 211.474 96.2489 210.823C96.9315 210.172 97.8115 209.847 98.8889 209.847C99.9875 209.847 100.857 210.151 101.497 210.759C102.148 211.367 102.473 212.204 102.473 213.271C102.473 214.156 102.206 215.02 101.673 215.863C101.15 216.695 100.553 217.431 99.8809 218.071C99.2089 218.7 98.3502 219.436 97.3049 220.279H102.809V221.495H95.1129V220.455Z" fill="black"/>
<path d="M54.7605 258.471L50.5525 269.623H48.8725L44.6645 258.471H46.2165L49.7205 268.087L53.2245 258.471H54.7605ZM55.813 265.207C55.813 264.311 55.9943 263.527 56.357 262.855C56.7197 262.172 57.2157 261.644 57.845 261.271C58.485 260.898 59.1943 260.711 59.973 260.711C60.741 260.711 61.4077 260.876 61.973 261.207C62.5383 261.538 62.9597 261.954 63.237 262.455V260.855H64.709V269.623H63.237V267.991C62.949 268.503 62.517 268.93 61.941 269.271C61.3757 269.602 60.7143 269.767 59.957 269.767C59.1783 269.767 58.4743 269.575 57.845 269.191C57.2157 268.807 56.7197 268.268 56.357 267.575C55.9943 266.882 55.813 266.092 55.813 265.207ZM63.237 265.223C63.237 264.562 63.1037 263.986 62.837 263.495C62.5703 263.004 62.2077 262.631 61.749 262.375C61.301 262.108 60.805 261.975 60.261 261.975C59.717 261.975 59.221 262.103 58.773 262.359C58.325 262.615 57.9677 262.988 57.701 263.479C57.4343 263.97 57.301 264.546 57.301 265.207C57.301 265.879 57.4343 266.466 57.701 266.967C57.9677 267.458 58.325 267.836 58.773 268.103C59.221 268.359 59.717 268.487 60.261 268.487C60.805 268.487 61.301 268.359 61.749 268.103C62.2077 267.836 62.5703 267.458 62.837 266.967C63.1037 266.466 63.237 265.884 63.237 265.223ZM68.6255 257.783V269.623H67.1695V257.783H68.6255ZM78.883 260.855V269.623H77.427V268.327C77.1497 268.775 76.7603 269.127 76.259 269.383C75.7683 269.628 75.2243 269.751 74.627 269.751C73.9443 269.751 73.331 269.612 72.787 269.335C72.243 269.047 71.811 268.62 71.491 268.055C71.1817 267.49 71.027 266.802 71.027 265.991V260.855H72.467V265.799C72.467 266.663 72.6857 267.33 73.123 267.799C73.5603 268.258 74.1577 268.487 74.915 268.487C75.6937 268.487 76.307 268.247 76.755 267.767C77.203 267.287 77.427 266.588 77.427 265.671V260.855H78.883ZM89.3414 264.903C89.3414 265.18 89.3254 265.474 89.2934 265.783H82.2854C82.3387 266.647 82.632 267.324 83.1654 267.815C83.7094 268.295 84.3654 268.535 85.1334 268.535C85.7627 268.535 86.2854 268.391 86.7014 268.103C87.128 267.804 87.4267 267.41 87.5974 266.919H89.1654C88.9307 267.762 88.4614 268.45 87.7574 268.983C87.0534 269.506 86.1787 269.767 85.1334 269.767C84.3014 269.767 83.5547 269.58 82.8934 269.207C82.2427 268.834 81.7307 268.306 81.3574 267.623C80.984 266.93 80.7974 266.13 80.7974 265.223C80.7974 264.316 80.9787 263.522 81.3414 262.839C81.704 262.156 82.2107 261.634 82.8614 261.271C83.5227 260.898 84.28 260.711 85.1334 260.711C85.9654 260.711 86.7014 260.892 87.3414 261.255C87.9814 261.618 88.472 262.119 88.8134 262.759C89.1654 263.388 89.3414 264.103 89.3414 264.903ZM87.8374 264.599C87.8374 264.044 87.7147 263.57 87.4694 263.175C87.224 262.77 86.888 262.466 86.4614 262.263C86.0454 262.05 85.5814 261.943 85.0694 261.943C84.3334 261.943 83.704 262.178 83.1814 262.647C82.6694 263.116 82.376 263.767 82.3014 264.599H87.8374ZM95.2569 260.967C95.3315 259.986 95.7102 259.218 96.3929 258.663C97.0755 258.108 97.9609 257.831 99.0489 257.831C99.7742 257.831 100.398 257.964 100.921 258.231C101.454 258.487 101.854 258.839 102.121 259.287C102.398 259.735 102.537 260.242 102.537 260.807C102.537 261.468 102.345 262.039 101.961 262.519C101.588 262.999 101.097 263.308 100.489 263.447V263.527C101.182 263.698 101.732 264.034 102.137 264.535C102.542 265.036 102.745 265.692 102.745 266.503C102.745 267.111 102.606 267.66 102.329 268.151C102.052 268.631 101.636 269.01 101.081 269.287C100.526 269.564 99.8595 269.703 99.0809 269.703C97.9502 269.703 97.0222 269.41 96.2969 268.823C95.5715 268.226 95.1662 267.383 95.0809 266.295H96.4889C96.5635 266.935 96.8249 267.458 97.2729 267.863C97.7209 268.268 98.3182 268.471 99.0649 268.471C99.8115 268.471 100.377 268.279 100.761 267.895C101.156 267.5 101.353 266.994 101.353 266.375C101.353 265.575 101.086 264.999 100.553 264.647C100.02 264.295 99.2142 264.119 98.1369 264.119H97.7689V262.903H98.1529C99.1342 262.892 99.8755 262.732 100.377 262.423C100.878 262.103 101.129 261.612 101.129 260.951C101.129 260.386 100.942 259.932 100.569 259.591C100.206 259.25 99.6835 259.079 99.0009 259.079C98.3395 259.079 97.8062 259.25 97.4009 259.591C96.9955 259.932 96.7555 260.391 96.6809 260.967H95.2569Z" fill="black"/>
<rect x="5" y="306" width="379" height="37" rx="4" fill="#262626"/>
<path d="M173.364 331.126C172.536 331.126 171.792 330.982 171.132 330.694C170.484 330.394 169.974 329.986 169.602 329.47C169.23 328.942 169.038 328.336 169.026 327.652H170.772C170.832 328.24 171.072 328.738 171.492 329.146C171.924 329.542 172.548 329.74 173.364 329.74C174.144 329.74 174.756 329.548 175.2 329.164C175.656 328.768 175.884 328.264 175.884 327.652C175.884 327.172 175.752 326.782 175.488 326.482C175.224 326.182 174.894 325.954 174.498 325.798C174.102 325.642 173.568 325.474 172.896 325.294C172.068 325.078 171.402 324.862 170.898 324.646C170.406 324.43 169.98 324.094 169.62 323.638C169.272 323.17 169.098 322.546 169.098 321.766C169.098 321.082 169.272 320.476 169.62 319.948C169.968 319.42 170.454 319.012 171.078 318.724C171.714 318.436 172.44 318.292 173.256 318.292C174.432 318.292 175.392 318.586 176.136 319.174C176.892 319.762 177.318 320.542 177.414 321.514H175.614C175.554 321.034 175.302 320.614 174.858 320.254C174.414 319.882 173.826 319.696 173.094 319.696C172.41 319.696 171.852 319.876 171.42 320.236C170.988 320.584 170.772 321.076 170.772 321.712C170.772 322.168 170.898 322.54 171.15 322.828C171.414 323.116 171.732 323.338 172.104 323.494C172.488 323.638 173.022 323.806 173.706 323.998C174.534 324.226 175.2 324.454 175.704 324.682C176.208 324.898 176.64 325.24 177 325.708C177.36 326.164 177.54 326.788 177.54 327.58C177.54 328.192 177.378 328.768 177.054 329.308C176.73 329.848 176.25 330.286 175.614 330.622C174.978 330.958 174.228 331.126 173.364 331.126ZM179.338 326.032C179.338 325.024 179.542 324.142 179.95 323.386C180.358 322.618 180.916 322.024 181.624 321.604C182.344 321.184 183.142 320.974 184.018 320.974C184.882 320.974 185.632 321.16 186.268 321.532C186.904 321.904 187.378 322.372 187.69 322.936V321.136H189.346V331H187.69V329.164C187.366 329.74 186.88 330.22 186.232 330.604C185.596 330.976 184.852 331.162 184 331.162C183.124 331.162 182.332 330.946 181.624 330.514C180.916 330.082 180.358 329.476 179.95 328.696C179.542 327.916 179.338 327.028 179.338 326.032ZM187.69 326.05C187.69 325.306 187.54 324.658 187.24 324.106C186.94 323.554 186.532 323.134 186.016 322.846C185.512 322.546 184.954 322.396 184.342 322.396C183.73 322.396 183.172 322.54 182.668 322.828C182.164 323.116 181.762 323.536 181.462 324.088C181.162 324.64 181.012 325.288 181.012 326.032C181.012 326.788 181.162 327.448 181.462 328.012C181.762 328.564 182.164 328.99 182.668 329.29C183.172 329.578 183.73 329.722 184.342 329.722C184.954 329.722 185.512 329.578 186.016 329.29C186.532 328.99 186.94 328.564 187.24 328.012C187.54 327.448 187.69 326.794 187.69 326.05ZM195.787 329.488L198.847 321.136H200.593L196.723 331H194.815L190.945 321.136H192.709L195.787 329.488ZM211.204 325.69C211.204 326.002 211.186 326.332 211.15 326.68H203.266C203.326 327.652 203.656 328.414 204.256 328.966C204.868 329.506 205.606 329.776 206.47 329.776C207.178 329.776 207.766 329.614 208.234 329.29C208.714 328.954 209.05 328.51 209.242 327.958H211.006C210.742 328.906 210.214 329.68 209.422 330.28C208.63 330.868 207.646 331.162 206.47 331.162C205.534 331.162 204.694 330.952 203.95 330.532C203.218 330.112 202.642 329.518 202.222 328.75C201.802 327.97 201.592 327.07 201.592 326.05C201.592 325.03 201.796 324.136 202.204 323.368C202.612 322.6 203.182 322.012 203.914 321.604C204.658 321.184 205.51 320.974 206.47 320.974C207.406 320.974 208.234 321.178 208.954 321.586C209.674 321.994 210.226 322.558 210.61 323.278C211.006 323.986 211.204 324.79 211.204 325.69ZM209.512 325.348C209.512 324.724 209.374 324.19 209.098 323.746C208.822 323.29 208.444 322.948 207.964 322.72C207.496 322.48 206.974 322.36 206.398 322.36C205.57 322.36 204.862 322.624 204.274 323.152C203.698 323.68 203.368 324.412 203.284 325.348H209.512Z" fill="white"/>
<defs>
<filter id="filter0_d" x="0" y="0" width="387" height="351" filterUnits="userSpaceOnUse" color-interpolation-filters="sRGB">
<feFlood flood-opacity="0" result="BackgroundImageFix"/>
<feColorMatrix in="SourceAlpha" type="matrix" values="0 0 0 0 0 0 0 0 0 0 0 0 0 0 0 0 0 0 127 0"/>
<feOffset dy="4"/>
<feGaussianBlur stdDeviation="2"/>
<feColorMatrix type="matrix" values="0 0 0 0 0 0 0 0 0 0 0 0 0 0 0 0 0 0 0.25 0"/>
<feBlend mode="normal" in2="BackgroundImageFix" result="effect1_dropShadow"/>
<feBlend mode="normal" in="SourceGraphic" in2="effect1_dropShadow" result="shape"/>
</filter>
</defs>
</svg>
